<svg xmlns="http://www.w3.org/2000/svg" xmlns:xlink="http://www.w3.org/1999/xlink" width="400" zoomAndPan="magnify" viewBox="0 0 300 299.999988" height="400" preserveAspectRatio="xMidYMid meet" version="1.0"><defs><filter x="0%" y="0%" width="100%" height="100%" id="0ede1a8fcf"><feColorMatrix values="0 0 0 0 1 0 0 0 0 1 0 0 0 0 1 0 0 0 1 0" color-interpolation-filters="sRGB"/></filter><mask id="953aa3f8e3"><g filter="url(#0ede1a8fcf)"><rect x="-30" width="360" fill="#000000" y="-29.999999" height="359.999986" fill-opacity="0.5"/></g></mask><clipPath id="d957cedb22"><rect x="0" width="24" y="0" height="30"/></clipPath><mask id="2f64aca2e8"><g filter="url(#0ede1a8fcf)"><rect x="-30" width="360" fill="#000000" y="-29.999999" height="359.999986" fill-opacity="0.5"/></g></mask><clipPath id="c417ccc9ec"><rect x="0" width="15" y="0" height="16"/></clipPath></defs><path fill="#ffffff" d="M 178.566406 260.214844 L 100.347656 260.214844 C 86.933594 260.214844 75.957031 249.226562 75.957031 235.796875 L 75.957031 166.601562 C 75.957031 153.167969 86.933594 142.179688 100.347656 142.179688 L 178.566406 142.179688 C 191.980469 142.179688 202.957031 153.167969 202.957031 166.601562 L 202.957031 235.796875 C 202.957031 249.226562 191.980469 260.214844 178.566406 260.214844 Z M 178.566406 260.214844 " fill-opacity="1" fill-rule="nonzero"/><path fill="#371a45" d="M 178.566406 142.179688 C 191.980469 142.179688 202.957031 153.167969 202.957031 166.601562 L 202.957031 235.792969 C 202.957031 249.226562 191.980469 260.214844 178.566406 260.214844 L 100.347656 260.214844 C 86.933594 260.214844 75.957031 249.226562 75.957031 235.792969 L 75.957031 166.597656 C 75.957031 153.167969 86.933594 142.179688 100.347656 142.179688 Z M 178.566406 138.320312 L 100.347656 138.320312 C 84.773438 138.320312 72.101562 151.007812 72.101562 166.601562 L 72.101562 235.792969 C 72.101562 251.390625 84.773438 264.074219 100.347656 264.074219 L 178.566406 264.074219 C 194.140625 264.074219 206.8125 251.390625 206.8125 235.792969 L 206.8125 166.597656 C 206.8125 151.003906 194.140625 138.320312 178.566406 138.320312 Z M 178.566406 138.320312 " fill-opacity="1" fill-rule="nonzero"/><path fill="#ffffff" d="M 201.207031 217.429688 C 189.03125 218.859375 176.890625 219.210938 176.890625 219.210938 C 176.890625 219.210938 170.710938 188.347656 168.996094 164.148438 C 167.734375 146.214844 168.921875 131.945312 176.890625 136.597656 C 180.558594 138.742188 184.78125 142.773438 189.183594 147.890625 C 205.703125 167.085938 224.679688 201.554688 225.71875 208.707031 C 226.390625 213.308594 213.78125 215.945312 201.207031 217.429688 Z M 201.207031 217.429688 " fill-opacity="1" fill-rule="nonzero"/><path fill="#371a45" d="M 175.261719 221.265625 L 174.929688 219.609375 C 174.890625 219.417969 171.109375 200.453125 168.664062 180.816406 C 164.109375 144.277344 167.875 136.984375 171.101562 134.675781 C 172.429688 133.726562 174.6875 132.992188 177.902344 134.867188 C 195.625 145.222656 226.257812 198.535156 227.703125 208.417969 C 227.835938 209.328125 227.746094 210.707031 226.566406 212.113281 C 225.507812 213.375 222.285156 217.214844 198.917969 219.703125 C 187.6875 220.898438 177.054688 221.214844 176.949219 221.21875 Z M 174.132812 137.714844 C 173.746094 137.714844 173.542969 137.863281 173.429688 137.941406 C 172.125 138.875 168.203125 144.695312 172.640625 180.320312 C 174.652344 196.449219 177.566406 212.121094 178.535156 217.152344 C 194.605469 216.570312 219.675781 214.09375 223.5 209.53125 C 223.769531 209.210938 223.746094 209.0625 223.738281 208.996094 C 223.167969 205.097656 215.765625 190.164062 205.652344 174.148438 C 193.941406 155.597656 183.09375 142.542969 175.886719 138.332031 C 175.066406 137.855469 174.511719 137.714844 174.132812 137.714844 Z M 174.132812 137.714844 " fill-opacity="1" fill-rule="nonzero"/><path fill="#ffffff" d="M 114.921875 135.460938 L 112.457031 154.128906 L 111.054688 164.746094 L 108.066406 187.40625 C 108.066406 187.40625 102.601562 191.128906 93.507812 194.078125 C 90.109375 195.183594 86.199219 196.167969 81.882812 196.816406 C 74.824219 197.878906 66.660156 198.015625 57.820312 196.203125 C 35.074219 191.539062 21.421875 174.621094 15.511719 166.113281 C 4.085938 149.695312 2.328125 145.257812 5.503906 138.34375 C 7.929688 133.046875 12.082031 132.082031 12.082031 132.082031 C 12.082031 132.082031 11.878906 127.847656 15.226562 126.34375 C 25.253906 121.832031 38.171875 133.875 38.171875 133.875 C 38.171875 133.875 38.65625 120.925781 45.578125 123.914062 C 50.347656 125.976562 51.429688 140.078125 51.429688 140.078125 C 51.429688 140.078125 57.828125 148.3125 68 149.40625 C 73.316406 149.976562 80.667969 148.433594 87.972656 146.191406 C 88.058594 146.164062 88.144531 146.140625 88.230469 146.109375 C 92.121094 144.90625 95.988281 143.511719 99.53125 142.132812 C 101.117188 141.515625 102.640625 140.898438 104.066406 140.308594 C 110.449219 137.65625 114.921875 135.460938 114.921875 135.460938 Z M 114.921875 135.460938 " fill-opacity="1" fill-rule="nonzero"/><path fill="#371a45" d="M 15.507812 166.113281 C 21.421875 174.617188 35.074219 191.539062 57.816406 196.203125 C 72.066406 199.121094 84.550781 196.980469 93.507812 194.074219 C 102.601562 191.128906 108.066406 187.40625 108.066406 187.40625 L 108.464844 169.519531 C 108.464844 169.519531 102.273438 163.542969 96.503906 165.980469 C 89.570312 168.910156 91.789062 178.863281 81.890625 181.628906 C 54.363281 189.328125 32.003906 175.265625 24.808594 169.09375 C 14.828125 160.53125 12.222656 155.136719 10.820312 152.910156 C 7.914062 148.308594 5.667969 144.6875 4.402344 141.449219 C 3.113281 146.929688 5.867188 152.253906 15.507812 166.113281 Z M 15.507812 166.113281 " fill-opacity="0.35" fill-rule="nonzero"/><path fill="#371a45" d="M 71.652344 199.617188 C 67.167969 199.617188 62.40625 199.191406 57.417969 198.167969 C 40.585938 194.71875 25.527344 184.03125 13.863281 167.261719 C 2.390625 150.765625 -0.00390625 145.542969 3.679688 137.503906 C 5.570312 133.382812 8.425781 131.484375 10.152344 130.671875 C 10.433594 128.554688 11.53125 125.804688 14.402344 124.511719 C 22.554688 120.847656 31.960938 126.515625 36.621094 130.011719 C 37.152344 127.28125 38.292969 123.839844 40.738281 122.296875 C 41.878906 121.574219 43.78125 120.953125 46.375 122.074219 C 51.589844 124.328125 53.039062 135.671875 53.371094 139.269531 C 54.796875 140.882812 60.328125 146.5625 68.214844 147.410156 C 82.617188 148.957031 113.726562 133.808594 114.039062 133.65625 C 114.703125 133.332031 115.492188 133.398438 116.089844 133.828125 C 116.691406 134.261719 117.003906 134.988281 116.90625 135.722656 L 110.054688 187.664062 C 109.980469 188.230469 109.667969 188.738281 109.195312 189.0625 C 108.441406 189.574219 93.410156 199.617188 71.652344 199.617188 Z M 20.15625 127.332031 C 18.746094 127.332031 17.359375 127.582031 16.046875 128.171875 C 14.011719 129.089844 14.082031 131.875 14.085938 131.996094 C 14.117188 132.953125 13.46875 133.8125 12.535156 134.03125 C 12.425781 134.058594 9.273438 134.921875 7.324219 139.175781 C 4.757812 144.777344 5.386719 148.042969 17.15625 164.964844 C 28.21875 180.875 42.417969 190.996094 58.222656 194.234375 C 82.820312 199.277344 102.246094 188.605469 106.203125 186.207031 L 112.453125 138.835938 C 103.773438 142.820312 80.542969 152.765625 67.789062 151.394531 C 56.898438 150.226562 50.128906 141.671875 49.847656 141.304688 C 49.605469 140.996094 49.460938 140.621094 49.429688 140.230469 C 49.027344 135.027344 47.273438 126.832031 44.785156 125.753906 C 43.589844 125.238281 43.070312 125.5625 42.878906 125.6875 C 41.203125 126.746094 40.273438 131.238281 40.171875 133.945312 C 40.140625 134.730469 39.660156 135.425781 38.933594 135.726562 C 38.210938 136.027344 37.378906 135.875 36.804688 135.339844 C 36.703125 135.246094 28.078125 127.332031 20.15625 127.332031 Z M 20.15625 127.332031 " fill-opacity="1" fill-rule="nonzero"/><path fill="#371a45" d="M 39.820312 133.875 C 39.886719 135.015625 39.542969 135.863281 39.242188 136.582031 L 39.003906 137.097656 L 38.757812 137.570312 C 38.585938 137.886719 38.4375 138.167969 38.261719 138.457031 C 37.617188 139.597656 37 140.628906 36.542969 141.765625 C 36.085938 142.890625 35.785156 144.09375 35.621094 145.363281 C 35.414062 146.636719 35.464844 147.960938 35.464844 149.34375 L 35.464844 149.359375 C 35.464844 149.492188 35.355469 149.601562 35.222656 149.601562 C 35.128906 149.601562 35.046875 149.542969 35.007812 149.464844 C 34.390625 148.210938 33.867188 146.863281 33.652344 145.414062 C 33.417969 143.976562 33.398438 142.453125 33.671875 140.964844 C 33.941406 139.480469 34.460938 138.03125 35.09375 136.78125 C 35.394531 136.160156 35.722656 135.558594 35.988281 135.050781 C 36.242188 134.539062 36.425781 134.101562 36.515625 133.871094 L 36.71875 133.367188 C 37.046875 132.539062 37.984375 132.136719 38.808594 132.464844 C 39.410156 132.707031 39.785156 133.265625 39.820312 133.875 Z M 39.820312 133.875 " fill-opacity="1" fill-rule="nonzero"/><path fill="#371a45" d="M 55.617188 197.582031 C 55.113281 197.582031 54.625 197.300781 54.382812 196.816406 C 54.046875 196.136719 54.324219 195.308594 55.003906 194.96875 C 68.691406 188.148438 66.730469 149.984375 66.707031 149.597656 C 66.664062 148.839844 67.246094 148.1875 68.003906 148.144531 C 68.777344 148.109375 69.414062 148.683594 69.457031 149.445312 C 69.546875 151.089844 71.53125 189.8125 56.230469 197.4375 C 56.035156 197.535156 55.824219 197.582031 55.617188 197.582031 Z M 55.617188 197.582031 " fill-opacity="1" fill-rule="nonzero"/><path fill="#371a45" d="M 233.320312 286.320312 L 233.320312 286.039062 C 231.117188 286.132812 233.320312 286.320312 233.320312 286.320312 Z M 233.320312 286.320312 " fill-opacity="0.35" fill-rule="nonzero"/><path fill="#ffffff" d="M 205.527344 252.453125 L 73.25 252.453125 C 73.25 252.453125 74.054688 229.59375 81.882812 196.816406 C 85.015625 183.667969 89.285156 168.925781 95.082031 153.421875 C 96.472656 149.699219 97.957031 145.933594 99.53125 142.132812 C 103.929688 131.523438 109.058594 120.65625 115.039062 109.792969 L 163.738281 109.792969 C 168.683594 118.777344 173.046875 127.753906 176.894531 136.597656 C 179.382812 142.316406 181.65625 147.972656 183.730469 153.53125 C 192.78125 177.757812 198.097656 200.121094 201.210938 217.429688 C 205.046875 238.785156 205.527344 252.453125 205.527344 252.453125 Z M 205.527344 252.453125 " fill-opacity="1" fill-rule="nonzero"/><path fill="#371a45" d="M 187.367188 170.578125 C 189.921875 173.4375 191.101562 176.757812 192.164062 180.105469 C 193.261719 183.445312 194.300781 186.800781 195.195312 190.199219 C 195.636719 191.902344 196.097656 193.597656 196.515625 195.304688 L 197.734375 200.433594 C 198.148438 202.136719 198.539062 203.851562 198.921875 205.566406 L 200.113281 210.699219 L 201.257812 215.839844 C 201.640625 217.554688 201.980469 219.277344 202.347656 220.996094 L 204.433594 231.328125 C 204.609375 232.191406 204.800781 233.050781 204.964844 233.914062 C 205.132812 234.777344 205.269531 235.644531 205.414062 236.511719 C 205.679688 238.25 205.859375 240.003906 205.992188 241.761719 C 206.210938 245.285156 206.308594 248.832031 205.832031 252.417969 C 205.808594 252.59375 205.648438 252.714844 205.476562 252.691406 C 205.355469 252.675781 205.261719 252.59375 205.222656 252.488281 L 205.21875 252.480469 C 203.980469 249.113281 203.089844 245.730469 202.253906 242.335938 C 201.847656 240.640625 201.496094 238.933594 201.160156 237.226562 C 200.851562 235.515625 200.597656 233.792969 200.328125 232.074219 L 199.921875 229.492188 L 199.445312 226.925781 C 199.113281 225.214844 198.785156 223.507812 198.421875 221.804688 C 198.0625 220.097656 197.71875 218.390625 197.34375 216.691406 L 196.203125 211.589844 C 194.644531 204.800781 192.792969 198.082031 190.867188 191.386719 C 189.976562 188.019531 188.992188 184.679688 188.152344 181.296875 C 187.9375 180.453125 187.722656 179.609375 187.488281 178.769531 C 187.269531 177.925781 187.078125 177.074219 186.933594 176.207031 C 186.671875 174.464844 186.511719 172.6875 186.78125 170.765625 L 186.78125 170.753906 C 186.808594 170.570312 186.980469 170.441406 187.164062 170.464844 C 187.246094 170.480469 187.316406 170.519531 187.367188 170.578125 Z M 187.367188 170.578125 " fill-opacity="1" fill-rule="nonzero"/><path fill="#371a45" d="M 72.941406 252.441406 C 71.507812 248.808594 71.71875 245.222656 71.996094 241.683594 C 72.117188 239.90625 72.273438 238.132812 72.472656 236.367188 C 72.644531 234.597656 72.882812 232.835938 73.132812 231.078125 C 73.390625 229.316406 73.648438 227.558594 73.964844 225.8125 C 74.273438 224.0625 74.554688 222.308594 74.902344 220.566406 L 75.894531 215.335938 L 76.921875 210.113281 C 77.25 208.367188 77.648438 206.640625 78.011719 204.902344 C 78.378906 203.164062 78.742188 201.429688 79.160156 199.703125 L 81.609375 189.34375 C 82.007812 187.613281 82.386719 185.878906 82.90625 184.179688 C 83.425781 182.480469 83.988281 180.796875 84.605469 179.128906 L 85.078125 177.878906 C 85.242188 177.464844 85.425781 177.058594 85.597656 176.648438 C 85.941406 175.824219 86.320312 175.011719 86.691406 174.203125 C 87.460938 172.585938 88.257812 170.980469 89.203125 169.429688 C 89.292969 169.28125 89.488281 169.234375 89.636719 169.324219 C 89.738281 169.386719 89.792969 169.496094 89.789062 169.609375 L 89.789062 169.617188 C 89.589844 173.257812 88.894531 176.714844 88.238281 180.179688 C 87.898438 181.910156 87.507812 183.625 87.066406 185.324219 L 85.648438 190.394531 C 85.164062 192.082031 84.683594 193.769531 84.269531 195.476562 L 83.066406 200.601562 C 82.652344 202.308594 82.292969 204.027344 81.929688 205.746094 C 81.574219 207.460938 81.175781 209.175781 80.851562 210.898438 C 79.445312 217.78125 78.496094 224.742188 77.578125 231.691406 L 76.160156 242.109375 C 75.734375 245.59375 75.316406 249.042969 73.554688 252.464844 L 73.550781 252.472656 C 73.464844 252.636719 73.261719 252.703125 73.097656 252.617188 C 73.023438 252.578125 72.96875 252.511719 72.941406 252.441406 Z M 72.941406 252.441406 " fill-opacity="1" fill-rule="nonzero"/><path fill="#ffffff" d="M 111.347656 223.613281 C 103.804688 226.671875 92.128906 226.03125 84.167969 225.066406 C 79.394531 224.488281 76.042969 220.078125 76.746094 215.3125 C 77.390625 210.96875 81.210938 207.804688 85.59375 208.011719 C 93.039062 208.363281 104.207031 208.523438 111.277344 206.953125 Z M 111.347656 223.613281 " fill-opacity="1" fill-rule="nonzero"/><path fill="#371a45" d="M 111.351562 223.613281 C 103.804688 226.675781 92.128906 226.027344 84.167969 225.070312 C 79.394531 224.492188 76.042969 220.078125 76.75 215.316406 C 76.886719 214.34375 77.191406 213.433594 77.625 212.601562 C 78.882812 215.003906 81.261719 216.773438 84.167969 217.128906 C 92.113281 218.09375 103.769531 218.734375 111.316406 215.691406 Z M 111.351562 223.613281 " fill-opacity="0.35" fill-rule="nonzero"/><path fill="#371a45" d="M 96.347656 227.871094 C 91.984375 227.871094 87.644531 227.507812 83.925781 227.058594 C 81.082031 226.714844 78.554688 225.265625 76.816406 222.984375 C 75.070312 220.695312 74.34375 217.867188 74.761719 215.019531 C 75.5625 209.628906 80.269531 205.765625 85.683594 206.007812 C 96.652344 206.523438 105.585938 206.164062 110.84375 204.996094 C 111.898438 204.761719 114.519531 204.753906 116.066406 209.734375 C 117.640625 214.796875 117.464844 223.296875 112.097656 225.472656 C 107.675781 227.265625 101.992188 227.871094 96.347656 227.871094 Z M 85.183594 210.007812 C 81.953125 210.007812 79.207031 212.367188 78.730469 215.605469 C 78.46875 217.375 78.917969 219.128906 80 220.546875 C 81.078125 221.964844 82.644531 222.859375 84.410156 223.074219 C 95.789062 224.453125 105.089844 223.984375 110.59375 221.753906 C 112.230469 221.089844 112.699219 218.4375 112.824219 217.328125 C 113.265625 213.445312 112.085938 209.859375 111.347656 208.988281 C 104.171875 210.5 93.363281 210.382812 85.5 210.015625 C 85.394531 210.011719 85.289062 210.007812 85.183594 210.007812 Z M 111.347656 223.613281 L 111.351562 223.613281 Z M 111.347656 223.613281 " fill-opacity="1" fill-rule="nonzero"/><path fill="#ffffff" d="M 169.050781 223.613281 C 176.597656 226.671875 188.273438 226.03125 196.230469 225.066406 C 201.003906 224.488281 204.355469 220.078125 203.652344 215.3125 C 203.011719 210.96875 199.191406 207.804688 194.808594 208.011719 C 187.363281 208.363281 176.195312 208.523438 169.121094 206.953125 Z M 169.050781 223.613281 " fill-opacity="1" fill-rule="nonzero"/><path fill="#371a45" d="M 196.230469 225.070312 C 188.269531 226.027344 176.597656 226.675781 169.050781 223.613281 L 169.082031 215.617188 C 176.628906 218.660156 188.285156 218.019531 196.230469 217.054688 C 199.121094 216.707031 201.488281 214.949219 202.753906 212.558594 C 203.199219 213.398438 203.511719 214.324219 203.65625 215.316406 C 204.355469 220.078125 201.003906 224.488281 196.230469 225.070312 Z M 196.230469 225.070312 " fill-opacity="0.35" fill-rule="nonzero"/><path fill="#371a45" d="M 184.050781 227.871094 C 178.40625 227.871094 172.726562 227.265625 168.300781 225.472656 C 162.9375 223.296875 162.761719 214.796875 164.332031 209.734375 C 165.878906 204.753906 168.5 204.761719 169.558594 204.996094 C 174.8125 206.164062 183.75 206.523438 194.714844 206.007812 C 200.148438 205.765625 204.839844 209.628906 205.636719 215.019531 C 206.058594 217.867188 205.328125 220.695312 203.585938 222.984375 C 201.84375 225.265625 199.320312 226.714844 196.472656 227.058594 C 192.757812 227.507812 188.414062 227.871094 184.050781 227.871094 Z M 169.804688 221.753906 C 175.308594 223.984375 184.609375 224.453125 195.992188 223.074219 C 197.757812 222.859375 199.320312 221.964844 200.398438 220.550781 C 201.480469 219.128906 201.933594 217.375 201.671875 215.609375 C 201.175781 212.261719 198.285156 209.84375 194.902344 210.019531 C 187.035156 210.386719 176.226562 210.503906 169.050781 208.992188 C 168.3125 209.859375 167.132812 213.445312 167.574219 217.328125 C 167.699219 218.4375 168.171875 221.089844 169.804688 221.753906 Z M 169.804688 221.753906 " fill-opacity="1" fill-rule="nonzero"/><path fill="#ffffff" d="M 171.96875 201.449219 L 171.96875 228.144531 C 171.96875 233.097656 167.917969 237.152344 162.972656 237.152344 L 113.867188 237.152344 C 108.929688 237.152344 104.878906 233.097656 104.878906 228.144531 L 104.878906 201.449219 C 104.878906 196.496094 108.929688 192.449219 113.867188 192.449219 L 162.972656 192.449219 C 165.882812 192.449219 168.484375 193.855469 170.132812 196.015625 C 171.285156 197.527344 171.96875 199.410156 171.96875 201.449219 Z M 171.96875 201.449219 " fill-opacity="1" fill-rule="nonzero"/><path fill="#371a45" d="M 171.96875 201.449219 L 171.96875 228.144531 C 171.96875 233.097656 167.921875 237.152344 162.972656 237.152344 L 113.871094 237.152344 C 108.925781 237.152344 104.878906 233.097656 104.878906 228.144531 L 104.878906 218.160156 C 112.253906 225.6875 126.757812 230.414062 140.058594 230.484375 C 144.332031 230.507812 147.78125 227.125 148.085938 222.855469 C 148.085938 222.8125 148.089844 222.769531 148.09375 222.726562 C 148.421875 218.980469 151.503906 215.949219 155.246094 215.679688 C 159.511719 215.371094 163.113281 218.523438 163.535156 222.625 C 169.972656 214.664062 168.085938 200.832031 170.136719 196.015625 C 171.285156 197.53125 171.96875 199.410156 171.96875 201.449219 Z M 171.96875 201.449219 " fill-opacity="0.35" fill-rule="nonzero"/><path fill="#371a45" d="M 162.976562 239.160156 L 113.871094 239.160156 C 107.808594 239.160156 102.875 234.21875 102.875 228.148438 L 102.875 201.449219 C 102.875 195.378906 107.808594 190.441406 113.871094 190.441406 L 162.976562 190.441406 C 169.039062 190.441406 173.96875 195.378906 173.96875 201.449219 L 173.96875 228.148438 C 173.96875 234.21875 169.039062 239.160156 162.976562 239.160156 Z M 113.871094 194.453125 C 110.019531 194.453125 106.882812 197.589844 106.882812 201.449219 L 106.882812 228.148438 C 106.882812 232.007812 110.019531 235.144531 113.871094 235.144531 L 162.976562 235.144531 C 166.828125 235.144531 169.964844 232.007812 169.964844 228.148438 L 169.964844 201.449219 C 169.964844 197.589844 166.828125 194.453125 162.976562 194.453125 Z M 113.871094 194.453125 " fill-opacity="1" fill-rule="nonzero"/><path fill="#22a7f0" d="M 163.574219 214.800781 C 163.574219 215.308594 163.523438 215.8125 163.425781 216.3125 C 163.324219 216.8125 163.179688 217.300781 162.984375 217.769531 C 162.789062 218.242188 162.550781 218.6875 162.265625 219.113281 C 161.984375 219.535156 161.664062 219.929688 161.300781 220.289062 C 160.941406 220.648438 160.550781 220.972656 160.128906 221.253906 C 159.703125 221.539062 159.257812 221.777344 158.785156 221.972656 C 158.316406 222.167969 157.832031 222.316406 157.332031 222.414062 C 156.832031 222.511719 156.328125 222.5625 155.820312 222.5625 C 155.308594 222.5625 154.804688 222.511719 154.304688 222.414062 C 153.808594 222.316406 153.320312 222.167969 152.851562 221.972656 C 152.382812 221.777344 151.933594 221.539062 151.511719 221.253906 C 151.085938 220.972656 150.695312 220.648438 150.335938 220.289062 C 149.976562 219.929688 149.65625 219.535156 149.371094 219.113281 C 149.089844 218.6875 148.851562 218.242188 148.65625 217.769531 C 148.460938 217.300781 148.3125 216.8125 148.214844 216.3125 C 148.113281 215.8125 148.066406 215.308594 148.066406 214.800781 C 148.066406 214.289062 148.113281 213.785156 148.214844 213.285156 C 148.3125 212.785156 148.460938 212.296875 148.65625 211.828125 C 148.851562 211.355469 149.089844 210.910156 149.371094 210.484375 C 149.65625 210.0625 149.976562 209.667969 150.335938 209.308594 C 150.695312 208.949219 151.085938 208.625 151.511719 208.34375 C 151.933594 208.058594 152.382812 207.820312 152.851562 207.625 C 153.320312 207.429688 153.808594 207.285156 154.304688 207.183594 C 154.804688 207.085938 155.308594 207.035156 155.820312 207.035156 C 156.328125 207.035156 156.832031 207.085938 157.332031 207.183594 C 157.832031 207.285156 158.316406 207.429688 158.785156 207.625 C 159.257812 207.820312 159.703125 208.058594 160.128906 208.34375 C 160.550781 208.625 160.941406 208.949219 161.300781 209.308594 C 161.664062 209.667969 161.984375 210.0625 162.265625 210.484375 C 162.550781 210.910156 162.789062 211.355469 162.984375 211.828125 C 163.179688 212.296875 163.324219 212.785156 163.425781 213.285156 C 163.523438 213.785156 163.574219 214.289062 163.574219 214.800781 Z M 163.574219 214.800781 " fill-opacity="1" fill-rule="nonzero"/><path fill="#ffffff" d="M 163.574219 214.800781 C 163.574219 215.332031 163.523438 215.847656 163.421875 216.351562 C 162.707031 212.800781 159.574219 210.128906 155.820312 210.128906 C 152.0625 210.128906 148.929688 212.800781 148.214844 216.351562 C 148.113281 215.847656 148.0625 215.332031 148.0625 214.800781 C 148.0625 210.507812 151.535156 207.035156 155.820312 207.035156 C 160.097656 207.035156 163.574219 210.507812 163.574219 214.800781 Z M 163.574219 214.800781 " fill-opacity="0.7" fill-rule="nonzero"/><path fill="#371a45" d="M 163.570312 214.796875 C 163.570312 219.082031 160.097656 222.558594 155.816406 222.558594 C 151.535156 222.558594 148.066406 219.082031 148.066406 214.796875 C 148.066406 213.804688 148.25 212.859375 148.597656 211.988281 C 149.714844 214.882812 152.527344 216.933594 155.820312 216.933594 C 159.109375 216.933594 161.921875 214.882812 163.039062 211.988281 C 163.382812 212.859375 163.570312 213.804688 163.570312 214.796875 Z M 163.570312 214.796875 " fill-opacity="0.35" fill-rule="nonzero"/><path fill="#371a45" d="M 155.820312 224.066406 C 150.714844 224.066406 146.5625 219.910156 146.5625 214.800781 C 146.5625 209.6875 150.714844 205.53125 155.820312 205.53125 C 160.921875 205.53125 165.074219 209.6875 165.074219 214.800781 C 165.074219 219.910156 160.921875 224.066406 155.820312 224.066406 Z M 155.820312 208.539062 C 152.371094 208.539062 149.566406 211.347656 149.566406 214.800781 C 149.566406 218.25 152.371094 221.058594 155.820312 221.058594 C 159.265625 221.058594 162.070312 218.25 162.070312 214.800781 C 162.070312 211.347656 159.265625 208.539062 155.820312 208.539062 Z M 155.820312 208.539062 " fill-opacity="1" fill-rule="nonzero"/><path fill="#371a45" d="M 133.84375 238.65625 C 133.015625 238.65625 132.34375 237.984375 132.34375 237.152344 L 132.34375 218.863281 L 122.523438 211.464844 L 122.523438 192.445312 C 122.523438 191.617188 123.195312 190.941406 124.023438 190.941406 C 124.855469 190.941406 125.527344 191.617188 125.527344 192.445312 L 125.527344 209.960938 L 135.347656 217.363281 L 135.347656 237.152344 C 135.347656 237.984375 134.675781 238.65625 133.84375 238.65625 Z M 133.84375 238.65625 " fill-opacity="1" fill-rule="nonzero"/><path fill="#ffffff" d="M 139.386719 251.523438 C 148.074219 251.523438 156.425781 248.296875 162.949219 242.554688 C 171.984375 234.601562 187.199219 225.117188 203.988281 231.199219 C 210.726562 233.640625 215.316406 238.117188 218.449219 243.070312 C 226.519531 224.351562 243.441406 223.230469 250.765625 233.839844 C 250.765625 233.839844 238.453125 292.652344 234.441406 293.960938 C 228.691406 295.835938 214.878906 293.867188 214.878906 293.867188 C 214.878906 293.867188 166.828125 287.351562 139.386719 287.351562 C 111.945312 287.351562 63.894531 293.867188 63.894531 293.867188 C 63.894531 293.867188 50.078125 295.835938 44.332031 293.960938 C 40.320312 292.652344 28.007812 233.839844 28.007812 233.839844 C 35.332031 223.230469 52.253906 224.351562 60.320312 243.070312 C 63.453125 238.113281 68.046875 233.640625 74.78125 231.199219 C 91.574219 225.117188 106.785156 234.601562 115.824219 242.554688 C 122.347656 248.296875 130.699219 251.523438 139.386719 251.523438 Z M 139.386719 251.523438 " fill-opacity="1" fill-rule="nonzero"/><path fill="#371a45" d="M 250.765625 233.839844 C 250.765625 233.839844 238.453125 292.65625 234.441406 293.964844 C 228.691406 295.839844 214.878906 293.867188 214.878906 293.867188 C 214.878906 293.867188 166.828125 287.351562 139.382812 287.351562 C 111.945312 287.351562 63.890625 293.867188 63.890625 293.867188 C 63.890625 293.867188 50.078125 295.839844 44.332031 293.964844 C 40.320312 292.65625 28.007812 233.839844 28.007812 233.839844 C 29.214844 232.09375 30.675781 230.664062 32.320312 229.578125 C 36.269531 246.824219 41.867188 269.339844 44.332031 270.144531 C 50.078125 272.015625 63.890625 270.042969 63.890625 270.042969 C 63.890625 270.042969 111.945312 257.011719 139.382812 257.011719 C 166.828125 257.011719 214.878906 270.042969 214.878906 270.042969 C 214.878906 270.042969 228.691406 272.015625 234.441406 270.144531 C 236.90625 269.339844 242.503906 246.824219 246.453125 229.578125 C 248.097656 230.664062 249.558594 232.09375 250.765625 233.839844 Z M 250.765625 233.839844 " fill-opacity="0.35" fill-rule="nonzero"/><path fill="#371a45" d="M 51.742188 296.773438 C 48.726562 296.773438 45.78125 296.546875 43.710938 295.871094 C 42.25 295.394531 40.4375 294.804688 34.230469 270.054688 C 31.027344 257.273438 27.898438 242.921875 26.703125 237.34375 C 26.078125 234.425781 27.03125 231.40625 29.195312 229.46875 C 33.351562 225.742188 38.921875 224.308594 44.472656 225.535156 C 51.042969 226.980469 56.695312 231.761719 60.648438 239.128906 C 64.230469 234.550781 68.746094 231.253906 74.101562 229.316406 C 85.03125 225.355469 97.003906 227.207031 108.722656 234.675781 C 109.65625 235.273438 109.929688 236.511719 109.335938 237.449219 C 108.742188 238.382812 107.503906 238.660156 106.570312 238.0625 C 95.789062 231.191406 85.320312 229.515625 75.464844 233.089844 C 69.90625 235.101562 65.378906 238.824219 62.015625 244.144531 C 61.621094 244.773438 60.910156 245.132812 60.164062 245.070312 C 59.425781 245.011719 58.777344 244.550781 58.480469 243.867188 C 55.113281 236.046875 49.691406 230.792969 43.613281 229.453125 C 39.332031 228.511719 35.050781 229.605469 31.871094 232.460938 C 30.773438 233.441406 30.296875 234.988281 30.621094 236.503906 C 37.167969 267.03125 43.003906 289.191406 45.261719 292.152344 C 49.785156 293.425781 59.980469 292.402344 63.609375 291.882812 C 64.105469 291.816406 112.125 285.347656 139.386719 285.347656 C 166.644531 285.347656 214.664062 291.816406 215.148438 291.878906 C 218.789062 292.398438 228.984375 293.425781 233.507812 292.152344 C 235.386719 289.644531 240.527344 271.925781 247.980469 237.304688 C 248.445312 235.140625 247.636719 232.921875 245.917969 231.65625 C 242.636719 229.234375 238.574219 228.511719 234.472656 229.621094 C 228.601562 231.210938 223.5625 236.269531 220.289062 243.867188 C 219.996094 244.550781 219.347656 245.011719 218.605469 245.070312 C 217.863281 245.132812 217.152344 244.773438 216.757812 244.144531 C 213.390625 238.824219 208.867188 235.101562 203.308594 233.089844 C 193.363281 229.484375 182.808594 231.21875 171.933594 238.234375 C 171.003906 238.835938 169.765625 238.566406 169.164062 237.636719 C 168.5625 236.707031 168.832031 235.464844 169.761719 234.863281 C 181.574219 227.242188 193.644531 225.320312 204.671875 229.316406 C 210.027344 231.257812 214.539062 234.550781 218.125 239.132812 C 221.890625 232.128906 227.238281 227.425781 233.429688 225.75 C 238.652344 224.332031 244.074219 225.308594 248.296875 228.425781 C 251.277344 230.628906 252.695312 234.445312 251.898438 238.148438 C 250.390625 245.144531 247.40625 258.695312 244.339844 270.851562 C 238.292969 294.820312 236.5 295.402344 235.0625 295.875 C 228.941406 297.871094 215.179688 295.941406 214.597656 295.855469 C 214.132812 295.792969 166.375 289.363281 139.386719 289.363281 C 112.394531 289.363281 64.640625 295.792969 64.160156 295.859375 C 63.785156 295.910156 57.632812 296.773438 51.742188 296.773438 Z M 233.382812 292.300781 Z M 45.390625 292.300781 Z M 45.390625 292.300781 " fill-opacity="1" fill-rule="nonzero"/><path fill="#afafb2" d="M 230.871094 293.964844 L 234.441406 293.964844 C 238.628906 293.964844 242.429688 291.503906 244.136719 287.671875 C 249.476562 275.695312 259.21875 249.375 250.09375 233.3125 C 249.828125 232.84375 249.546875 232.390625 249.246094 231.960938 C 249.246094 231.960938 240.484375 223.984375 234.191406 235.265625 C 228.316406 245.808594 215.976562 290.886719 230.871094 293.964844 Z M 230.871094 293.964844 " fill-opacity="1" fill-rule="nonzero"/><path fill="#ffffff" d="M 230.972656 242.78125 C 231.128906 242.527344 231.285156 242.289062 231.4375 242.070312 C 239.175781 230.785156 249.949219 238.761719 249.949219 238.761719 C 250.316406 239.195312 250.667969 239.644531 250.992188 240.113281 C 252.070312 241.660156 252.9375 243.300781 253.609375 245.015625 C 253.175781 240.796875 252.085938 236.808594 250.097656 233.3125 C 249.832031 232.84375 249.546875 232.394531 249.246094 231.960938 C 249.246094 231.960938 240.488281 223.984375 234.195312 235.269531 C 233.238281 236.976562 232.117188 239.585938 230.972656 242.78125 Z M 230.972656 242.78125 " fill-opacity="0.7" fill-rule="nonzero"/><path fill="#371a45" d="M 253.5625 246.21875 C 253.472656 246.21875 253.378906 246.214844 253.289062 246.195312 L 231.394531 242.539062 C 230.496094 242.386719 229.886719 241.535156 230.039062 240.632812 C 230.1875 239.730469 231.042969 239.121094 231.941406 239.273438 L 253.835938 242.933594 C 254.734375 243.082031 255.34375 243.9375 255.191406 244.839844 C 255.054688 245.648438 254.355469 246.21875 253.5625 246.21875 Z M 253.5625 246.21875 " fill-opacity="1" fill-rule="nonzero"/><path fill="#371a45" d="M 253.421875 258.0625 C 253.351562 258.0625 253.277344 258.058594 253.203125 258.050781 L 227.589844 254.601562 C 226.6875 254.480469 226.050781 253.648438 226.171875 252.742188 C 226.296875 251.835938 227.132812 251.203125 228.03125 251.320312 L 253.640625 254.769531 C 254.546875 254.890625 255.179688 255.726562 255.058594 256.628906 C 254.945312 257.460938 254.238281 258.0625 253.421875 258.0625 Z M 253.421875 258.0625 " fill-opacity="1" fill-rule="nonzero"/><path fill="#371a45" d="M 251.164062 269.664062 C 251.097656 269.664062 251.027344 269.660156 250.960938 269.652344 L 224.964844 266.464844 C 224.058594 266.355469 223.414062 265.53125 223.523438 264.621094 C 223.636719 263.714844 224.46875 263.066406 225.363281 263.179688 L 251.363281 266.367188 C 252.269531 266.480469 252.914062 267.304688 252.800781 268.210938 C 252.699219 269.050781 251.988281 269.664062 251.164062 269.664062 Z M 251.164062 269.664062 " fill-opacity="1" fill-rule="nonzero"/><path fill="#371a45" d="M 247.042969 282.3125 C 246.992188 282.3125 246.941406 282.3125 246.890625 282.308594 L 223.648438 280.207031 C 222.738281 280.125 222.066406 279.320312 222.152344 278.410156 C 222.234375 277.5 223.039062 276.835938 223.945312 276.914062 L 247.1875 279.011719 C 248.097656 279.09375 248.769531 279.898438 248.683594 280.808594 C 248.609375 281.667969 247.886719 282.3125 247.042969 282.3125 Z M 247.042969 282.3125 " fill-opacity="1" fill-rule="nonzero"/><path fill="#371a45" d="M 230.871094 293.964844 L 234.441406 293.964844 C 238.628906 293.964844 242.429688 291.503906 244.136719 287.671875 C 245.515625 284.566406 247.195312 280.507812 248.769531 275.90625 C 246.625 279.464844 242.273438 281.722656 237.492188 281.722656 L 233.238281 281.722656 C 227.183594 280.671875 224.90625 274.726562 224.816406 266.9375 C 222.769531 280.085938 223.332031 292.40625 230.871094 293.964844 Z M 230.871094 293.964844 " fill-opacity="0.35" fill-rule="nonzero"/><path fill="#371a45" d="M 234.441406 295.617188 L 230.871094 295.617188 C 230.757812 295.617188 230.644531 295.605469 230.539062 295.582031 C 227.652344 294.988281 225.472656 293.113281 224.058594 290.015625 C 217.964844 276.679688 227.933594 243.09375 232.75 234.460938 C 234.957031 230.5 237.738281 228.222656 241.015625 227.6875 C 246.039062 226.871094 250.183594 230.578125 250.355469 230.734375 C 250.449219 230.820312 250.53125 230.910156 250.601562 231.011719 C 250.933594 231.488281 251.246094 231.988281 251.535156 232.496094 C 260.804688 248.816406 251.824219 274.492188 245.644531 288.347656 C 243.679688 292.765625 239.28125 295.617188 234.441406 295.617188 Z M 231.050781 292.308594 L 234.441406 292.308594 C 237.976562 292.308594 241.191406 290.226562 242.628906 287 C 247.398438 276.304688 257.53125 249.75 248.660156 234.128906 C 248.457031 233.769531 248.238281 233.417969 248.007812 233.078125 C 247.390625 232.570312 244.578125 230.449219 241.53125 230.957031 C 239.304688 231.328125 237.324219 233.050781 235.636719 236.074219 C 230.585938 245.128906 221.867188 277.261719 227.0625 288.640625 C 228.003906 290.695312 229.308594 291.898438 231.050781 292.308594 Z M 231.050781 292.308594 " fill-opacity="1" fill-rule="nonzero"/><path fill="#afafb2" d="M 47.898438 293.964844 L 44.332031 293.964844 C 40.140625 293.964844 36.34375 291.503906 34.636719 287.671875 C 29.292969 275.695312 19.554688 249.375 28.675781 233.3125 C 28.941406 232.84375 29.226562 232.390625 29.527344 231.960938 C 29.527344 231.960938 38.285156 223.984375 44.578125 235.265625 C 50.457031 245.808594 62.792969 290.886719 47.898438 293.964844 Z M 47.898438 293.964844 " fill-opacity="1" fill-rule="nonzero"/><path fill="#ffffff" d="M 47.800781 242.78125 C 47.644531 242.527344 47.484375 242.289062 47.332031 242.070312 C 39.597656 230.785156 28.824219 238.761719 28.824219 238.761719 C 28.457031 239.195312 28.105469 239.644531 27.78125 240.113281 C 26.699219 241.660156 25.835938 243.300781 25.160156 245.015625 C 25.597656 240.796875 26.6875 236.808594 28.675781 233.3125 C 28.941406 232.84375 29.226562 232.394531 29.527344 231.960938 C 29.527344 231.960938 38.285156 223.984375 44.578125 235.269531 C 45.53125 236.976562 46.652344 239.585938 47.800781 242.78125 Z M 47.800781 242.78125 " fill-opacity="0.7" fill-rule="nonzero"/><path fill="#371a45" d="M 25.207031 246.21875 C 24.414062 246.21875 23.714844 245.648438 23.582031 244.839844 C 23.429688 243.9375 24.039062 243.085938 24.9375 242.933594 L 46.832031 239.273438 C 47.726562 239.121094 48.582031 239.734375 48.734375 240.632812 C 48.882812 241.535156 48.273438 242.386719 47.375 242.539062 L 25.484375 246.195312 C 25.390625 246.214844 25.300781 246.21875 25.207031 246.21875 Z M 25.207031 246.21875 " fill-opacity="1" fill-rule="nonzero"/><path fill="#371a45" d="M 25.347656 258.0625 C 24.535156 258.0625 23.824219 257.460938 23.710938 256.628906 C 23.589844 255.726562 24.226562 254.890625 25.128906 254.769531 L 50.742188 251.320312 C 51.648438 251.207031 52.476562 251.835938 52.597656 252.742188 C 52.71875 253.648438 52.085938 254.480469 51.179688 254.601562 L 25.570312 258.050781 C 25.496094 258.058594 25.421875 258.0625 25.347656 258.0625 Z M 25.347656 258.0625 " fill-opacity="1" fill-rule="nonzero"/><path fill="#371a45" d="M 27.609375 269.664062 C 26.785156 269.664062 26.070312 269.050781 25.96875 268.210938 C 25.859375 267.304688 26.503906 266.480469 27.410156 266.367188 L 53.40625 263.179688 C 54.300781 263.0625 55.136719 263.714844 55.25 264.621094 C 55.359375 265.53125 54.714844 266.355469 53.808594 266.464844 L 27.808594 269.652344 C 27.742188 269.660156 27.675781 269.664062 27.609375 269.664062 Z M 27.609375 269.664062 " fill-opacity="1" fill-rule="nonzero"/><path fill="#371a45" d="M 31.730469 282.3125 C 30.886719 282.3125 30.164062 281.667969 30.089844 280.808594 C 30.007812 279.898438 30.675781 279.09375 31.585938 279.011719 L 54.828125 276.914062 C 55.738281 276.835938 56.542969 277.5 56.621094 278.410156 C 56.703125 279.320312 56.035156 280.125 55.125 280.207031 L 31.882812 282.308594 C 31.832031 282.3125 31.78125 282.3125 31.730469 282.3125 Z M 31.730469 282.3125 " fill-opacity="1" fill-rule="nonzero"/><path fill="#371a45" d="M 47.898438 293.964844 L 44.332031 293.964844 C 40.140625 293.964844 36.34375 291.503906 34.636719 287.671875 C 33.253906 284.566406 31.574219 280.507812 30.003906 275.90625 C 32.148438 279.464844 36.5 281.722656 41.277344 281.722656 L 45.53125 281.722656 C 51.585938 280.671875 53.863281 274.726562 53.953125 266.9375 C 56.003906 280.085938 55.441406 292.40625 47.898438 293.964844 Z M 47.898438 293.964844 " fill-opacity="0.35" fill-rule="nonzero"/><path fill="#371a45" d="M 47.898438 295.617188 L 44.332031 295.617188 C 39.492188 295.617188 35.09375 292.765625 33.128906 288.347656 C 26.949219 274.492188 17.96875 248.816406 27.242188 232.492188 C 27.53125 231.984375 27.84375 231.484375 28.171875 231.011719 C 28.246094 230.910156 28.324219 230.816406 28.417969 230.734375 C 28.589844 230.578125 32.734375 226.867188 37.757812 227.6875 C 41.035156 228.222656 43.816406 230.5 46.019531 234.460938 C 50.835938 243.09375 60.808594 276.675781 54.714844 290.019531 C 53.296875 293.117188 51.117188 294.988281 48.234375 295.585938 C 48.125 295.605469 48.011719 295.617188 47.898438 295.617188 Z M 30.765625 233.078125 C 30.535156 233.414062 30.320312 233.765625 30.113281 234.128906 C 21.242188 249.75 31.375 276.304688 36.144531 286.996094 C 37.582031 290.226562 40.796875 292.308594 44.332031 292.308594 L 47.722656 292.308594 C 49.464844 291.898438 50.773438 290.695312 51.710938 288.640625 C 56.90625 277.261719 48.1875 245.128906 43.136719 236.074219 C 41.445312 233.039062 39.457031 231.316406 37.226562 230.953125 C 34.199219 230.457031 31.382812 232.574219 30.765625 233.078125 Z M 30.765625 233.078125 " fill-opacity="1" fill-rule="nonzero"/><path fill="#371a45" d="M 88.1875 292.453125 C 87.953125 292.453125 87.714844 292.398438 87.492188 292.28125 C 86.757812 291.894531 86.472656 290.988281 86.855469 290.25 C 93.132812 278.246094 93.222656 264.746094 87.132812 250.125 C 82.535156 239.09375 75.957031 231.546875 75.890625 231.472656 C 75.339844 230.851562 75.402344 229.898438 76.023438 229.351562 C 76.644531 228.800781 77.59375 228.859375 78.144531 229.484375 C 78.425781 229.800781 85.078125 237.414062 89.871094 248.878906 C 96.265625 264.179688 96.144531 278.964844 89.519531 291.644531 C 89.25 292.160156 88.726562 292.453125 88.1875 292.453125 Z M 88.1875 292.453125 " fill-opacity="1" fill-rule="nonzero"/><path fill="#371a45" d="M 191.195312 292.453125 C 190.65625 292.453125 190.132812 292.160156 189.863281 291.648438 C 183.234375 278.96875 183.113281 264.179688 189.511719 248.878906 C 194.304688 237.417969 200.957031 229.800781 201.238281 229.484375 C 201.789062 228.859375 202.734375 228.800781 203.359375 229.351562 C 203.980469 229.902344 204.039062 230.851562 203.492188 231.472656 C 203.425781 231.550781 196.84375 239.09375 192.25 250.125 C 186.15625 264.746094 186.25 278.246094 192.523438 290.25 C 192.910156 290.988281 192.625 291.898438 191.890625 292.28125 C 191.667969 292.398438 191.429688 292.453125 191.195312 292.453125 Z M 191.195312 292.453125 " fill-opacity="1" fill-rule="nonzero"/><path fill="#371a45" d="M 189.183594 147.890625 C 187.453125 149.875 185.628906 151.761719 183.730469 153.53125 C 179.222656 157.734375 174.28125 161.3125 168.996094 164.148438 C 160.070312 168.941406 150.164062 171.632812 139.734375 171.679688 C 129.546875 171.726562 119.847656 169.246094 111.054688 164.742188 C 105.300781 161.789062 99.933594 157.972656 95.078125 153.421875 C 92.664062 151.15625 90.375 148.710938 88.226562 146.109375 C 92.121094 144.90625 95.988281 143.511719 99.527344 142.132812 C 103.925781 131.523438 109.054688 120.65625 115.039062 109.792969 L 163.734375 109.792969 C 168.679688 118.777344 173.042969 127.753906 176.890625 136.597656 C 180.558594 138.742188 184.78125 142.773438 189.183594 147.890625 Z M 189.183594 147.890625 " fill-opacity="0.35" fill-rule="nonzero"/><path fill="#ffffff" d="M 213.75 99.449219 C 212.902344 99.542969 212.140625 98.929688 212.050781 98.078125 L 207.296875 53.792969 C 207.207031 52.945312 207.820312 52.183594 208.667969 52.089844 C 217.566406 51.132812 225.550781 57.578125 226.507812 66.488281 L 228.128906 81.589844 C 229.085938 90.496094 222.648438 98.492188 213.75 99.449219 Z M 213.75 99.449219 " fill-opacity="1" fill-rule="nonzero"/><path fill="#371a45" d="M 213.585938 99.839844 C 212.613281 99.839844 211.777344 99.105469 211.671875 98.121094 L 206.917969 53.832031 C 206.804688 52.777344 207.574219 51.824219 208.628906 51.710938 C 217.71875 50.730469 225.910156 57.339844 226.886719 66.445312 L 228.507812 81.546875 C 228.980469 85.957031 227.710938 90.285156 224.933594 93.738281 C 222.152344 97.191406 218.195312 99.355469 213.792969 99.828125 C 213.722656 99.835938 213.652344 99.839844 213.585938 99.839844 Z M 210.410156 52.378906 C 209.847656 52.378906 209.28125 52.40625 208.710938 52.46875 C 208.070312 52.539062 207.609375 53.113281 207.675781 53.75 L 212.429688 98.035156 C 212.5 98.675781 213.078125 99.140625 213.710938 99.070312 C 217.914062 98.617188 221.6875 96.554688 224.339844 93.261719 C 226.992188 89.964844 228.203125 85.835938 227.75 81.625 L 226.132812 66.523438 C 225.261719 58.414062 218.382812 52.378906 210.410156 52.378906 Z M 210.410156 52.378906 " fill-opacity="1" fill-rule="nonzero"/><path fill="#371a45" d="M 227.371094 74.507812 L 228.132812 81.589844 C 229.085938 90.492188 222.648438 98.492188 213.75 99.453125 C 212.902344 99.546875 212.140625 98.925781 212.050781 98.078125 L 210.78125 86.304688 C 211.078125 86.816406 211.65625 87.128906 212.277344 87.070312 L 213.328125 86.953125 C 220.355469 86.195312 225.855469 81.039062 227.371094 74.507812 Z M 227.371094 74.507812 " fill-opacity="0.35" fill-rule="nonzero"/><path fill="#371a45" d="M 213.585938 101.582031 C 211.738281 101.582031 210.148438 100.183594 209.945312 98.304688 L 205.191406 54.019531 C 204.976562 52.007812 206.433594 50.195312 208.441406 49.980469 C 218.488281 48.898438 227.535156 56.203125 228.617188 66.257812 L 230.238281 81.359375 C 230.757812 86.234375 229.355469 91.015625 226.285156 94.832031 C 223.214844 98.648438 218.84375 101.035156 213.976562 101.558594 C 213.84375 101.574219 213.714844 101.582031 213.585938 101.582031 Z M 209.46875 54.148438 L 214.09375 97.269531 C 217.605469 96.746094 220.746094 94.953125 222.984375 92.167969 C 225.347656 89.238281 226.425781 85.558594 226.023438 81.8125 L 224.402344 66.710938 C 223.59375 59.175781 216.960938 53.648438 209.46875 54.148438 Z M 209.46875 54.148438 " fill-opacity="1" fill-rule="nonzero"/><path fill="#ffffff" d="M 62.675781 67.796875 C 63.527344 67.707031 64.285156 68.320312 64.378906 69.167969 L 69.132812 113.453125 C 69.222656 114.304688 68.609375 115.066406 67.761719 115.15625 C 58.863281 116.113281 50.878906 109.667969 49.921875 100.761719 L 48.300781 85.660156 C 47.34375 76.753906 53.78125 68.753906 62.675781 67.796875 Z M 62.675781 67.796875 " fill-opacity="1" fill-rule="nonzero"/><path fill="#371a45" d="M 66 115.636719 C 62.230469 115.636719 58.601562 114.359375 55.625 111.957031 C 52.175781 109.175781 50.015625 105.214844 49.542969 100.804688 L 47.921875 85.703125 C 46.945312 76.601562 53.546875 68.398438 62.636719 67.417969 C 63.699219 67.304688 64.644531 68.074219 64.757812 69.128906 L 69.511719 113.417969 C 69.625 114.472656 68.855469 115.425781 67.800781 115.539062 C 67.199219 115.601562 66.597656 115.636719 66 115.636719 Z M 62.675781 67.796875 L 62.71875 68.175781 C 54.042969 69.109375 47.746094 76.933594 48.679688 85.621094 L 50.300781 100.722656 C 50.75 104.929688 52.8125 108.707031 56.101562 111.363281 C 59.394531 114.019531 63.523438 115.234375 67.71875 114.78125 C 68.359375 114.710938 68.820312 114.136719 68.753906 113.496094 L 64 69.210938 C 63.933594 68.574219 63.355469 68.109375 62.71875 68.179688 Z M 62.675781 67.796875 " fill-opacity="1" fill-rule="nonzero"/><path fill="#371a45" d="M 67.816406 101.171875 L 69.132812 113.457031 C 69.226562 114.304688 68.605469 115.066406 67.761719 115.160156 C 63.089844 115.660156 58.667969 114.125 55.382812 111.257812 C 52.414062 108.671875 50.378906 104.992188 49.921875 100.765625 L 49.238281 94.402344 C 52.363281 99.714844 58.410156 102.996094 64.929688 102.296875 L 66.546875 102.121094 C 67.132812 102.058594 67.601562 101.675781 67.816406 101.171875 Z M 67.816406 101.171875 " fill-opacity="0.35" fill-rule="nonzero"/><path fill="#371a45" d="M 65.996094 117.375 C 61.832031 117.375 57.824219 115.964844 54.535156 113.3125 C 50.722656 110.238281 48.335938 105.859375 47.8125 100.988281 L 46.191406 85.886719 C 45.113281 75.828125 52.40625 66.769531 62.453125 65.6875 C 64.460938 65.472656 66.269531 66.929688 66.488281 68.941406 L 71.238281 113.226562 C 71.453125 115.238281 69.996094 117.050781 67.988281 117.269531 C 67.320312 117.339844 66.65625 117.375 65.996094 117.375 Z M 62.335938 69.980469 C 54.910156 71.082031 49.597656 77.894531 50.40625 85.433594 L 52.027344 100.535156 C 52.429688 104.28125 54.265625 107.644531 57.195312 110.007812 C 59.972656 112.25 63.421875 113.339844 66.960938 113.101562 Z M 62.675781 67.796875 L 62.90625 69.90625 Z M 62.675781 67.796875 " fill-opacity="1" fill-rule="nonzero"/><path fill="#ffffff" d="M 214.027344 83.625 C 214.027344 84.867188 213.996094 86.105469 213.9375 87.347656 C 213.875 88.589844 213.785156 89.828125 213.664062 91.0625 C 213.542969 92.300781 213.390625 93.53125 213.207031 94.761719 C 213.027344 95.988281 212.8125 97.210938 212.570312 98.429688 C 212.328125 99.648438 212.058594 100.859375 211.757812 102.066406 C 211.453125 103.269531 211.125 104.46875 210.765625 105.65625 C 210.402344 106.84375 210.015625 108.023438 209.597656 109.191406 C 209.179688 110.363281 208.734375 111.519531 208.257812 112.667969 C 207.78125 113.816406 207.28125 114.953125 206.75 116.074219 C 206.21875 117.199219 205.660156 118.308594 205.078125 119.402344 C 204.492188 120.496094 203.882812 121.578125 203.242188 122.644531 C 202.605469 123.710938 201.941406 124.757812 201.253906 125.792969 C 200.5625 126.824219 199.847656 127.839844 199.109375 128.835938 C 198.371094 129.835938 197.609375 130.8125 196.820312 131.773438 C 196.035156 132.734375 195.222656 133.675781 194.390625 134.59375 C 193.558594 135.515625 192.703125 136.414062 191.824219 137.292969 C 190.949219 138.171875 190.050781 139.027344 189.132812 139.863281 C 188.210938 140.695312 187.273438 141.507812 186.3125 142.292969 C 185.355469 143.082031 184.375 143.847656 183.378906 144.585938 C 182.382812 145.328125 181.371094 146.042969 180.339844 146.730469 C 179.308594 147.421875 178.257812 148.085938 177.195312 148.726562 C 176.132812 149.363281 175.050781 149.976562 173.957031 150.5625 C 172.863281 151.148438 171.757812 151.707031 170.632812 152.234375 C 169.511719 152.765625 168.378906 153.269531 167.234375 153.746094 C 166.085938 154.222656 164.929688 154.667969 163.761719 155.085938 C 162.59375 155.503906 161.414062 155.894531 160.230469 156.253906 C 159.042969 156.617188 157.847656 156.945312 156.644531 157.25 C 155.441406 157.550781 154.230469 157.824219 153.011719 158.066406 C 151.796875 158.308594 150.574219 158.519531 149.347656 158.703125 C 148.121094 158.882812 146.890625 159.035156 145.652344 159.15625 C 144.417969 159.28125 143.183594 159.371094 141.945312 159.433594 C 140.703125 159.492188 139.464844 159.523438 138.222656 159.523438 C 136.984375 159.523438 135.742188 159.492188 134.503906 159.433594 C 133.265625 159.371094 132.027344 159.28125 130.792969 159.15625 C 129.558594 159.035156 128.328125 158.882812 127.101562 158.703125 C 125.875 158.519531 124.652344 158.308594 123.433594 158.066406 C 122.21875 157.824219 121.007812 157.550781 119.804688 157.25 C 118.601562 156.945312 117.40625 156.617188 116.21875 156.253906 C 115.03125 155.894531 113.855469 155.503906 112.6875 155.085938 C 111.519531 154.667969 110.359375 154.222656 109.214844 153.746094 C 108.070312 153.269531 106.933594 152.765625 105.8125 152.234375 C 104.691406 151.707031 103.585938 151.148438 102.488281 150.5625 C 101.394531 149.976562 100.316406 149.363281 99.253906 148.726562 C 98.1875 148.085938 97.140625 147.421875 96.109375 146.730469 C 95.078125 146.042969 94.0625 145.328125 93.066406 144.585938 C 92.070312 143.847656 91.09375 143.082031 90.132812 142.292969 C 89.175781 141.507812 88.238281 140.695312 87.316406 139.863281 C 86.398438 139.027344 85.5 138.171875 84.621094 137.292969 C 83.746094 136.414062 82.890625 135.515625 82.058594 134.59375 C 81.222656 133.675781 80.414062 132.734375 79.625 131.773438 C 78.839844 130.8125 78.078125 129.835938 77.335938 128.835938 C 76.597656 127.839844 75.882812 126.824219 75.195312 125.792969 C 74.507812 124.757812 73.84375 123.710938 73.203125 122.644531 C 72.566406 121.578125 71.957031 120.496094 71.371094 119.402344 C 70.785156 118.308594 70.226562 117.199219 69.699219 116.074219 C 69.167969 114.953125 68.664062 113.816406 68.191406 112.667969 C 67.714844 111.519531 67.269531 110.363281 66.851562 109.191406 C 66.433594 108.023438 66.042969 106.84375 65.683594 105.65625 C 65.324219 104.46875 64.992188 103.269531 64.691406 102.066406 C 64.390625 100.859375 64.117188 99.648438 63.875 98.429688 C 63.632812 97.210938 63.421875 95.988281 63.242188 94.761719 C 63.058594 93.53125 62.90625 92.300781 62.785156 91.0625 C 62.664062 89.828125 62.570312 88.589844 62.511719 87.347656 C 62.449219 86.105469 62.421875 84.867188 62.421875 83.625 C 62.421875 82.382812 62.449219 81.140625 62.511719 79.898438 C 62.570312 78.65625 62.664062 77.417969 62.785156 76.183594 C 62.90625 74.949219 63.058594 73.714844 63.242188 72.484375 C 63.421875 71.257812 63.632812 70.035156 63.875 68.816406 C 64.117188 67.597656 64.390625 66.386719 64.691406 65.179688 C 64.992188 63.976562 65.324219 62.777344 65.683594 61.589844 C 66.042969 60.402344 66.433594 59.222656 66.851562 58.054688 C 67.269531 56.882812 67.714844 55.726562 68.191406 54.578125 C 68.664062 53.429688 69.167969 52.292969 69.699219 51.171875 C 70.226562 50.046875 70.785156 48.9375 71.371094 47.84375 C 71.957031 46.75 72.566406 45.667969 73.203125 44.601562 C 73.84375 43.535156 74.507812 42.488281 75.195312 41.457031 C 75.882812 40.421875 76.597656 39.40625 77.335938 38.410156 C 78.078125 37.410156 78.839844 36.433594 79.625 35.472656 C 80.414062 34.511719 81.222656 33.570312 82.058594 32.652344 C 82.890625 31.730469 83.746094 30.832031 84.621094 29.953125 C 85.5 29.074219 86.398438 28.21875 87.316406 27.382812 C 88.238281 26.550781 89.175781 25.738281 90.132812 24.953125 C 91.09375 24.164062 92.070312 23.398438 93.066406 22.660156 C 94.0625 21.917969 95.078125 21.203125 96.109375 20.515625 C 97.140625 19.824219 98.1875 19.160156 99.253906 18.519531 C 100.316406 17.882812 101.394531 17.269531 102.488281 16.683594 C 103.585938 16.097656 104.691406 15.542969 105.8125 15.011719 C 106.933594 14.480469 108.070312 13.976562 109.214844 13.5 C 110.359375 13.023438 111.519531 12.578125 112.6875 12.160156 C 113.855469 11.742188 115.03125 11.351562 116.21875 10.992188 C 117.40625 10.628906 118.601562 10.300781 119.804688 9.996094 C 121.007812 9.695312 122.21875 9.421875 123.433594 9.179688 C 124.652344 8.9375 125.875 8.726562 127.101562 8.542969 C 128.328125 8.363281 129.558594 8.210938 130.792969 8.089844 C 132.027344 7.964844 133.265625 7.875 134.503906 7.8125 C 135.742188 7.753906 136.984375 7.722656 138.222656 7.722656 C 139.464844 7.722656 140.703125 7.753906 141.945312 7.8125 C 143.183594 7.875 144.417969 7.964844 145.652344 8.089844 C 146.890625 8.210938 148.121094 8.363281 149.347656 8.542969 C 150.574219 8.726562 151.796875 8.9375 153.011719 9.179688 C 154.230469 9.421875 155.441406 9.695312 156.644531 9.996094 C 157.847656 10.300781 159.042969 10.628906 160.230469 10.992188 C 161.414062 11.351562 162.59375 11.742188 163.761719 12.160156 C 164.929688 12.578125 166.085938 13.023438 167.234375 13.5 C 168.378906 13.976562 169.511719 14.480469 170.632812 15.011719 C 171.757812 15.542969 172.863281 16.097656 173.957031 16.683594 C 175.050781 17.269531 176.132812 17.882812 177.195312 18.519531 C 178.257812 19.160156 179.308594 19.824219 180.339844 20.515625 C 181.371094 21.203125 182.382812 21.917969 183.378906 22.660156 C 184.375 23.398438 185.355469 24.164062 186.3125 24.953125 C 187.273438 25.738281 188.210938 26.550781 189.132812 27.382812 C 190.050781 28.21875 190.949219 29.074219 191.824219 29.953125 C 192.703125 30.832031 193.558594 31.730469 194.390625 32.652344 C 195.222656 33.570312 196.035156 34.511719 196.820312 35.472656 C 197.609375 36.433594 198.371094 37.410156 199.109375 38.410156 C 199.847656 39.40625 200.5625 40.421875 201.253906 41.457031 C 201.941406 42.488281 202.605469 43.535156 203.242188 44.601562 C 203.882812 45.667969 204.492188 46.75 205.078125 47.84375 C 205.660156 48.9375 206.21875 50.046875 206.75 51.171875 C 207.28125 52.292969 207.78125 53.429688 208.257812 54.578125 C 208.734375 55.726562 209.179688 56.882812 209.597656 58.054688 C 210.015625 59.222656 210.402344 60.402344 210.765625 61.589844 C 211.125 62.777344 211.453125 63.976562 211.757812 65.179688 C 212.058594 66.386719 212.328125 67.597656 212.570312 68.816406 C 212.8125 70.035156 213.027344 71.257812 213.207031 72.484375 C 213.390625 73.714844 213.542969 74.949219 213.664062 76.183594 C 213.785156 77.417969 213.875 78.65625 213.9375 79.898438 C 213.996094 81.140625 214.027344 82.382812 214.027344 83.625 Z M 214.027344 83.625 " fill-opacity="1" fill-rule="nonzero"/><path fill="#371a45" d="M 138.1875 159.90625 C 97.4375 159.90625 63.570312 127.476562 62.089844 86.375 C 60.574219 44.339844 93.496094 8.90625 135.476562 7.390625 C 155.816406 6.652344 175.21875 13.894531 190.117188 27.773438 C 205.015625 41.652344 213.625 60.511719 214.359375 80.875 C 215.09375 101.234375 207.863281 120.664062 194.003906 135.582031 C 180.140625 150.5 161.308594 159.121094 140.972656 159.855469 C 140.039062 159.890625 139.113281 159.90625 138.1875 159.90625 Z M 138.292969 8.101562 C 137.363281 8.101562 136.433594 8.121094 135.503906 8.152344 C 93.941406 9.65625 61.351562 44.730469 62.847656 86.347656 C 64.316406 127.035156 97.847656 159.140625 138.191406 159.144531 C 139.105469 159.144531 140.019531 159.128906 140.945312 159.09375 C 161.078125 158.367188 179.722656 149.832031 193.445312 135.0625 C 207.167969 120.296875 214.328125 101.058594 213.601562 80.902344 C 212.871094 60.742188 204.351562 42.074219 189.597656 28.332031 C 175.53125 15.226562 157.40625 8.101562 138.292969 8.101562 Z M 138.292969 8.101562 " fill-opacity="1" fill-rule="nonzero"/><path fill="#371a45" d="M 212.875 70.414062 C 213.480469 73.828125 213.851562 77.324219 213.980469 80.886719 C 215.484375 122.777344 182.792969 157.964844 140.957031 159.476562 C 99.117188 160.984375 63.980469 128.25 62.464844 86.359375 C 62.421875 85.15625 62.40625 83.949219 62.421875 82.757812 C 68.859375 119.5 101.523438 146.785156 139.804688 145.402344 C 180.441406 143.929688 212.441406 110.703125 212.875 70.414062 Z M 212.875 70.414062 " fill-opacity="0.35" fill-rule="nonzero"/><path fill="#371a45" d="M 138.1875 161.648438 C 96.503906 161.648438 61.863281 128.476562 60.351562 86.4375 C 58.800781 43.441406 92.476562 7.203125 135.414062 5.652344 C 156.21875 4.902344 176.0625 12.304688 191.300781 26.5 C 206.539062 40.695312 215.347656 59.984375 216.097656 80.8125 C 216.847656 101.636719 209.453125 121.511719 195.273438 136.769531 C 181.097656 152.027344 161.832031 160.84375 141.03125 161.59375 C 140.082031 161.628906 139.132812 161.648438 138.1875 161.648438 Z M 138.289062 9.84375 C 137.382812 9.84375 136.476562 9.859375 135.566406 9.894531 C 94.964844 11.359375 63.121094 45.628906 64.585938 86.285156 C 66.019531 126.035156 98.777344 157.398438 138.191406 157.402344 C 139.085938 157.402344 139.980469 157.386719 140.878906 157.355469 C 160.550781 156.644531 178.765625 148.304688 192.171875 133.878906 C 205.578125 119.449219 212.570312 100.660156 211.859375 80.964844 C 211.152344 61.269531 202.824219 43.03125 188.414062 29.605469 C 174.671875 16.804688 156.960938 9.84375 138.289062 9.84375 Z M 138.289062 9.84375 " fill-opacity="1" fill-rule="nonzero"/><path fill="#371a45" d="M 213.808594 82.84375 C 214.566406 97.675781 210.460938 111.695312 202.820312 123.511719 C 197.089844 132.371094 172.507812 148.621094 141.222656 150.503906 C 112.21875 152.253906 85.019531 138.117188 78.417969 129.890625 C 69.609375 118.917969 64.097656 105.394531 63.339844 90.558594 C 61.332031 51.308594 94.179688 33.308594 135.734375 31.175781 C 177.285156 29.046875 211.800781 43.589844 213.808594 82.84375 Z M 213.808594 82.84375 " fill-opacity="1" fill-rule="nonzero"/><path fill="#371a45" d="M 136.152344 152.113281 C 108.339844 152.117188 83.757812 138.871094 77.28125 130.800781 C 67.957031 119.1875 62.632812 105.296875 61.882812 90.632812 C 60.90625 71.5625 67.789062 56.46875 82.339844 45.769531 C 95.074219 36.40625 113.511719 30.855469 135.660156 29.71875 C 157.800781 28.585938 176.710938 32.21875 190.335938 40.234375 C 205.898438 49.386719 214.285156 63.699219 215.261719 82.769531 C 216.011719 97.433594 212.132812 111.792969 204.042969 124.304688 C 197.476562 134.457031 171.359375 150.148438 141.3125 151.960938 C 139.582031 152.066406 137.859375 152.113281 136.152344 152.113281 Z M 143.476562 32.433594 C 140.96875 32.433594 138.414062 32.496094 135.804688 32.632812 C 114.234375 33.738281 96.339844 39.09375 84.0625 48.121094 C 70.351562 58.199219 63.871094 72.453125 64.792969 90.484375 C 65.507812 104.53125 70.613281 117.839844 79.550781 128.976562 C 85.542969 136.441406 109.660156 149.195312 136.257812 149.195312 C 137.878906 149.195312 139.503906 149.148438 141.136719 149.050781 C 172.683594 147.148438 196.441406 130.691406 201.597656 122.71875 C 209.351562 110.726562 213.070312 96.964844 212.351562 82.917969 C 211.429688 64.886719 203.527344 51.371094 188.863281 42.75 C 177.3125 35.957031 161.734375 32.433594 143.476562 32.433594 Z M 143.476562 32.433594 " fill-opacity="1" fill-rule="nonzero"/><g mask="url(#953aa3f8e3)"><g transform="matrix(1, 0, 0, 1, 177, 64)"><g clip-path="url(#d957cedb22)"><path fill="#ffffff" d="M 13.789062 1.441406 C 14.421875 1.523438 15.035156 1.691406 15.636719 1.941406 C 16.234375 2.191406 16.804688 2.519531 17.347656 2.929688 C 17.886719 3.339844 18.390625 3.824219 18.855469 4.378906 C 19.320312 4.929688 19.734375 5.546875 20.101562 6.222656 C 20.472656 6.898438 20.785156 7.625 21.042969 8.394531 C 21.300781 9.167969 21.5 9.972656 21.636719 10.8125 C 21.777344 11.652344 21.851562 12.511719 21.863281 13.382812 C 21.878906 14.257812 21.828125 15.132812 21.714844 16.007812 C 21.601562 16.882812 21.429688 17.738281 21.195312 18.582031 C 20.960938 19.425781 20.671875 20.234375 20.324219 21.011719 C 19.980469 21.789062 19.585938 22.515625 19.140625 23.199219 C 18.695312 23.878906 18.207031 24.5 17.679688 25.0625 C 17.152344 25.625 16.59375 26.113281 16.007812 26.53125 C 15.417969 26.949219 14.808594 27.289062 14.179688 27.546875 C 13.554688 27.808594 12.917969 27.980469 12.273438 28.074219 C 11.632812 28.164062 10.996094 28.167969 10.359375 28.085938 C 9.726562 28.003906 9.113281 27.839844 8.511719 27.585938 C 7.914062 27.335938 7.34375 27.007812 6.800781 26.597656 C 6.261719 26.1875 5.757812 25.703125 5.292969 25.148438 C 4.828125 24.597656 4.414062 23.980469 4.046875 23.304688 C 3.679688 22.628906 3.363281 21.902344 3.105469 21.132812 C 2.847656 20.359375 2.648438 19.554688 2.511719 18.714844 C 2.375 17.875 2.296875 17.015625 2.285156 16.144531 C 2.269531 15.269531 2.320312 14.394531 2.433594 13.519531 C 2.546875 12.644531 2.71875 11.789062 2.953125 10.945312 C 3.1875 10.105469 3.476562 9.292969 3.824219 8.515625 C 4.167969 7.742188 4.566406 7.011719 5.011719 6.328125 C 5.457031 5.648438 5.941406 5.027344 6.46875 4.464844 C 6.996094 3.902344 7.554688 3.414062 8.144531 2.996094 C 8.730469 2.578125 9.339844 2.238281 9.96875 1.980469 C 10.59375 1.722656 11.230469 1.546875 11.875 1.457031 C 12.515625 1.363281 13.15625 1.359375 13.789062 1.441406 Z M 13.789062 1.441406 " fill-opacity="1" fill-rule="nonzero"/></g></g></g><g mask="url(#2f64aca2e8)"><g transform="matrix(1, 0, 0, 1, 171, 98)"><g clip-path="url(#c417ccc9ec)"><path fill="#ffffff" d="M 9.179688 2.015625 C 9.515625 2.109375 9.835938 2.238281 10.144531 2.402344 C 10.453125 2.570312 10.738281 2.769531 11.007812 3.003906 C 11.277344 3.238281 11.519531 3.5 11.738281 3.792969 C 11.957031 4.085938 12.148438 4.402344 12.308594 4.742188 C 12.472656 5.085938 12.601562 5.441406 12.699219 5.820312 C 12.796875 6.195312 12.859375 6.578125 12.886719 6.976562 C 12.917969 7.371094 12.914062 7.769531 12.875 8.171875 C 12.835938 8.570312 12.761719 8.96875 12.65625 9.359375 C 12.546875 9.75 12.410156 10.125 12.242188 10.492188 C 12.070312 10.855469 11.871094 11.203125 11.644531 11.527344 C 11.417969 11.851562 11.167969 12.152344 10.894531 12.425781 C 10.621094 12.699219 10.328125 12.941406 10.015625 13.15625 C 9.703125 13.367188 9.378906 13.542969 9.039062 13.683594 C 8.703125 13.824219 8.359375 13.925781 8.007812 13.992188 C 7.660156 14.054688 7.308594 14.082031 6.960938 14.066406 C 6.613281 14.054688 6.269531 14 5.933594 13.910156 C 5.601562 13.820312 5.28125 13.691406 4.972656 13.523438 C 4.664062 13.359375 4.375 13.15625 4.109375 12.925781 C 3.839844 12.691406 3.597656 12.425781 3.375 12.132812 C 3.15625 11.839844 2.96875 11.523438 2.804688 11.183594 C 2.644531 10.839844 2.515625 10.484375 2.417969 10.109375 C 2.320312 9.730469 2.257812 9.347656 2.226562 8.949219 C 2.199219 8.554688 2.203125 8.15625 2.242188 7.753906 C 2.28125 7.355469 2.355469 6.960938 2.460938 6.570312 C 2.566406 6.179688 2.707031 5.800781 2.875 5.433594 C 3.046875 5.070312 3.242188 4.726562 3.46875 4.398438 C 3.695312 4.074219 3.949219 3.773438 4.222656 3.5 C 4.496094 3.226562 4.789062 2.984375 5.101562 2.773438 C 5.414062 2.558594 5.738281 2.382812 6.074219 2.242188 C 6.414062 2.101562 6.757812 2 7.105469 1.933594 C 7.457031 1.871094 7.804688 1.84375 8.15625 1.859375 C 8.503906 1.871094 8.847656 1.925781 9.179688 2.015625 Z M 9.179688 2.015625 " fill-opacity="1" fill-rule="nonzero"/></g></g></g><path fill="#111a28" d="M 197.300781 46.972656 C 206.949219 55.289062 212.996094 67.078125 213.804688 82.839844 C 214.566406 97.675781 210.457031 111.695312 202.820312 123.511719 C 197.089844 132.367188 172.507812 148.617188 141.222656 150.507812 C 130.175781 151.175781 119.394531 149.539062 109.910156 146.796875 C 148.316406 143.652344 178.253906 123.71875 185.359375 112.734375 C 195.058594 97.738281 200.265625 79.941406 199.300781 61.121094 C 199.046875 56.089844 198.363281 51.378906 197.300781 46.972656 Z M 197.300781 46.972656 " fill-opacity="0.35" fill-rule="nonzero"/><path fill="#371a45" d="M 67.292969 58.839844 C 66.890625 58.839844 66.480469 58.71875 66.125 58.46875 C 65.21875 57.832031 64.988281 56.59375 65.59375 55.675781 C 77.894531 35.433594 103.117188 22.894531 134.804688 21.269531 C 166.265625 19.660156 192.601562 29.175781 207.089844 47.386719 C 207.75 48.113281 207.800781 49.234375 207.167969 50.027344 C 206.488281 50.878906 205.265625 51.039062 204.390625 50.414062 L 204.160156 50.257812 L 203.96875 50.011719 C 190.320312 32.789062 165.1875 23.800781 135.011719 25.347656 C 104.667969 26.902344 80.625 38.746094 69.042969 57.84375 L 68.910156 58.039062 C 68.511719 58.558594 67.90625 58.839844 67.292969 58.839844 Z M 67.292969 58.839844 " fill-opacity="1" fill-rule="nonzero"/><path fill="#ffffff" d="M 81.429688 113.042969 C 81.429688 113.042969 67.304688 74.945312 87.359375 58.445312 C 107.414062 41.945312 137.402344 40.46875 136.800781 42.429688 C 136.800781 42.429688 104.015625 52.179688 92.371094 79.125 C 83.390625 99.902344 81.429688 113.042969 81.429688 113.042969 Z M 81.429688 113.042969 " fill-opacity="0.5" fill-rule="nonzero"/><path fill="#371a45" d="M 220.039062 243.523438 C 219.835938 244.90625 219.496094 246.300781 219.148438 247.671875 C 218.804688 249.050781 218.382812 250.414062 218 251.789062 C 217.621094 253.160156 217.238281 254.535156 216.882812 255.925781 C 216.523438 257.3125 216.195312 258.710938 215.867188 260.140625 L 215.867188 260.144531 C 215.835938 260.277344 215.707031 260.359375 215.578125 260.328125 C 215.484375 260.304688 215.414062 260.230469 215.394531 260.140625 C 215.09375 258.679688 214.976562 257.191406 214.925781 255.703125 C 214.898438 254.21875 214.949219 252.738281 215.070312 251.261719 C 215.199219 249.792969 215.359375 248.320312 215.652344 246.878906 C 215.945312 245.433594 216.292969 244.019531 216.863281 242.617188 C 217.210938 241.765625 218.179688 241.355469 219.027344 241.699219 C 219.753906 241.996094 220.15625 242.742188 220.046875 243.484375 Z M 220.039062 243.523438 " fill-opacity="1" fill-rule="nonzero"/><path fill="#371a45" d="M 62.054688 242.617188 C 62.621094 244.019531 62.96875 245.433594 63.265625 246.878906 C 63.558594 248.320312 63.71875 249.792969 63.847656 251.261719 C 63.964844 252.738281 64.019531 254.222656 63.992188 255.703125 C 63.941406 257.191406 63.824219 258.679688 63.519531 260.140625 C 63.492188 260.273438 63.363281 260.355469 63.234375 260.328125 C 63.140625 260.308594 63.070312 260.234375 63.050781 260.144531 L 63.046875 260.140625 C 62.722656 258.710938 62.394531 257.3125 62.035156 255.925781 C 61.675781 254.535156 61.292969 253.160156 60.914062 251.789062 C 60.53125 250.414062 60.113281 249.050781 59.769531 247.671875 C 59.421875 246.300781 59.082031 244.90625 58.875 243.523438 L 58.871094 243.484375 C 58.738281 242.574219 59.363281 241.730469 60.273438 241.597656 C 61.042969 241.480469 61.769531 241.921875 62.054688 242.617188 Z M 62.054688 242.617188 " fill-opacity="1" fill-rule="nonzero"/><path fill="#1698f9" d="M 206.921875 298.332031 L 72.480469 298.332031 C 68.125 298.332031 64.597656 294.796875 64.597656 290.4375 C 64.597656 287.925781 66.632812 285.890625 69.140625 285.890625 L 210.265625 285.890625 C 212.773438 285.890625 214.804688 287.925781 214.804688 290.4375 C 214.804688 294.796875 211.277344 298.332031 206.921875 298.332031 Z M 206.921875 298.332031 " fill-opacity="1" fill-rule="nonzero"/><path fill="#ffffff" d="M 214.804688 290.4375 C 214.804688 291.300781 214.664062 292.128906 214.40625 292.90625 C 213.703125 291.316406 212.113281 290.214844 210.265625 290.214844 L 69.140625 290.214844 C 67.890625 290.214844 66.753906 290.71875 65.929688 291.546875 C 65.539062 291.941406 65.21875 292.398438 64.992188 292.910156 C 64.738281 292.128906 64.597656 291.304688 64.597656 290.441406 C 64.597656 289.1875 65.105469 288.046875 65.929688 287.226562 C 66.753906 286.398438 67.890625 285.890625 69.140625 285.890625 L 210.265625 285.890625 C 212.773438 285.890625 214.804688 287.925781 214.804688 290.4375 Z M 214.804688 290.4375 " fill-opacity="0.3" fill-rule="nonzero"/><path fill="#371a45" d="M 214.804688 290.4375 C 214.804688 292.617188 213.921875 294.59375 212.492188 296.015625 C 211.070312 297.445312 209.097656 298.328125 206.921875 298.328125 L 72.480469 298.328125 C 68.128906 298.328125 64.597656 294.796875 64.597656 290.4375 C 64.597656 289.601562 64.824219 288.8125 65.222656 288.136719 C 66.414062 290.960938 69.21875 292.945312 72.480469 292.945312 L 206.921875 292.945312 C 209.09375 292.945312 211.070312 292.066406 212.492188 290.632812 C 213.203125 289.921875 213.777344 289.074219 214.175781 288.136719 C 214.578125 288.816406 214.804688 289.601562 214.804688 290.4375 Z M 214.804688 290.4375 " fill-opacity="0.35" fill-rule="nonzero"/><path fill="#371a45" d="M 206.921875 300.335938 L 72.480469 300.335938 C 67.027344 300.335938 62.59375 295.898438 62.59375 290.4375 C 62.59375 286.824219 65.53125 283.886719 69.140625 283.886719 L 210.265625 283.886719 C 213.871094 283.886719 216.808594 286.824219 216.808594 290.4375 C 216.808594 295.898438 212.375 300.335938 206.921875 300.335938 Z M 69.140625 287.898438 C 67.738281 287.898438 66.601562 289.039062 66.601562 290.441406 C 66.601562 293.683594 69.238281 296.324219 72.480469 296.324219 L 206.921875 296.324219 C 210.164062 296.324219 212.800781 293.683594 212.800781 290.441406 C 212.800781 289.039062 211.664062 287.898438 210.265625 287.898438 Z M 69.140625 287.898438 " fill-opacity="1" fill-rule="nonzero"/><path fill="#ff66ac" d="M 222.652344 197.039062 L 209.503906 285.890625 L 69.902344 285.890625 L 69.425781 282.675781 L 56.746094 197.039062 C 56.332031 194.226562 58.511719 191.703125 61.347656 191.703125 L 218.054688 191.703125 C 220.894531 191.703125 223.070312 194.226562 222.652344 197.039062 Z M 222.652344 197.039062 " fill-opacity="1" fill-rule="nonzero"/><path fill="#1698f9" d="M 222.652344 197.039062 L 209.503906 285.890625 L 69.902344 285.890625 L 69.425781 282.675781 L 56.746094 197.039062 C 56.332031 194.226562 58.511719 191.703125 61.347656 191.703125 L 218.054688 191.703125 C 220.894531 191.703125 223.070312 194.226562 222.652344 197.039062 Z M 222.652344 197.039062 " fill-opacity="1" fill-rule="nonzero"/><path fill="#ffffff" d="M 61.703125 202.550781 C 61.289062 199.738281 63.46875 197.214844 66.300781 197.214844 L 222.628906 197.214844 L 222.652344 197.039062 C 223.070312 194.226562 220.894531 191.703125 218.054688 191.703125 L 61.347656 191.703125 C 58.511719 191.703125 56.332031 194.226562 56.746094 197.039062 L 69.425781 282.675781 L 69.902344 285.890625 L 74.042969 285.890625 Z M 61.703125 202.550781 " fill-opacity="0.5" fill-rule="nonzero"/><path fill="#371a45" d="M 213.648438 191.703125 L 202.644531 191.703125 C 206.816406 207.007812 204.515625 241.570312 177.597656 259.632812 C 143.804688 282.308594 82.90625 282.164062 69.976562 282.675781 L 70.453125 285.890625 L 205.097656 285.890625 L 218.246094 197.039062 C 218.664062 194.226562 216.488281 191.703125 213.648438 191.703125 Z M 213.648438 191.703125 " fill-opacity="0.35" fill-rule="nonzero"/><path fill="#371a45" d="M 211.230469 287.898438 L 68.175781 287.898438 L 54.769531 197.332031 C 54.484375 195.414062 55.046875 193.472656 56.3125 192.003906 C 57.574219 190.535156 59.410156 189.695312 61.347656 189.695312 L 218.058594 189.695312 C 219.992188 189.695312 221.828125 190.535156 223.09375 192.003906 C 224.359375 193.472656 224.921875 195.414062 224.636719 197.332031 Z M 71.628906 283.886719 L 207.773438 283.886719 L 220.671875 196.742188 C 220.785156 195.96875 220.570312 195.21875 220.058594 194.625 C 219.546875 194.03125 218.839844 193.707031 218.058594 193.707031 L 61.347656 193.707031 C 60.566406 193.707031 59.855469 194.03125 59.347656 194.625 C 58.835938 195.21875 58.617188 195.96875 58.730469 196.742188 Z M 71.628906 283.886719 " fill-opacity="1" fill-rule="nonzero"/><path fill="#ffffff" d="M 81.015625 265.132812 C 75.71875 253.441406 71.863281 233.492188 72.730469 221.75 C 73.601562 210.003906 80.402344 213.597656 82.511719 228.640625 C 88.121094 268.671875 83.378906 270.351562 81.015625 265.132812 Z M 81.015625 265.132812 " fill-opacity="0.3" fill-rule="nonzero"/><path fill="#371a45" d="M 157.941406 228.714844 C 158.109375 227.214844 158.308594 225.699219 158.015625 224.171875 C 157.882812 224.007812 157.765625 223.835938 157.632812 223.671875 C 157.199219 223.515625 156.777344 223.3125 156.324219 223.199219 C 153.148438 222.375 149.929688 222.050781 146.65625 222.332031 C 142.390625 222.699219 138.476562 224.019531 135.109375 226.734375 C 133.886719 227.714844 132.777344 228.820312 131.640625 229.894531 C 131.335938 230.183594 131.101562 230.304688 130.671875 230.109375 C 129.664062 229.648438 128.578125 229.445312 127.476562 229.390625 C 124.515625 229.253906 121.878906 230.210938 119.417969 231.761719 C 116.75 233.441406 114.597656 235.691406 112.597656 238.097656 C 111.742188 239.121094 112.074219 240.257812 113.34375 240.6875 C 114.144531 240.945312 114.945312 241.203125 115.746094 241.464844 C 117.664062 242.089844 119.578125 242.707031 121.492188 243.324219 C 121.488281 243.386719 121.492188 243.417969 121.484375 243.445312 C 121.46875 243.484375 121.453125 243.527344 121.425781 243.5625 C 120.628906 244.589844 120.820312 245.542969 121.664062 246.433594 C 121.753906 246.535156 121.832031 246.652344 121.910156 246.757812 C 122.351562 247.339844 122.800781 247.925781 123.269531 248.53125 C 122.632812 249.023438 122.003906 249.441406 121.449219 249.949219 C 121.171875 250.203125 120.925781 250.574219 120.820312 250.941406 C 120.640625 251.535156 120.945312 252.140625 121.472656 252.449219 C 122.03125 252.785156 122.605469 252.773438 123.125 252.398438 C 123.785156 251.925781 124.414062 251.417969 125.085938 250.90625 C 125.71875 251.742188 126.320312 252.53125 126.921875 253.3125 C 127.613281 254.203125 128.089844 254.355469 129.160156 254.058594 C 129.355469 253.996094 129.546875 253.957031 129.777344 253.898438 C 129.792969 254.128906 129.808594 254.3125 129.820312 254.484375 C 129.957031 257.253906 130.082031 260.03125 130.234375 262.792969 C 130.304688 264.101562 131.335938 264.722656 132.519531 264.160156 C 133.585938 263.65625 134.652344 263.121094 135.699219 262.554688 C 138.109375 261.242188 140.304688 259.632812 142.054688 257.496094 C 144.246094 254.804688 145.457031 251.796875 144.890625 248.246094 C 144.867188 248.105469 144.984375 247.867188 145.105469 247.796875 C 146.179688 247.101562 147.28125 246.453125 148.359375 245.753906 C 150.789062 244.167969 152.746094 242.105469 154.273438 239.640625 C 156.351562 236.292969 157.5 232.617188 157.941406 228.714844 Z M 123.074219 240.703125 C 120.859375 239.980469 118.5625 239.230469 116.203125 238.460938 C 118.640625 235.867188 121.222656 233.601562 124.695312 232.648438 C 126.195312 232.234375 127.933594 232.269531 128.957031 232.683594 C 127.011719 235.34375 125.0625 238 123.074219 240.703125 Z M 141.707031 252.101562 C 141.144531 253.902344 140.070312 255.367188 138.746094 256.671875 C 137.097656 258.277344 135.183594 259.472656 133.113281 260.566406 C 132.988281 258.019531 132.859375 255.527344 132.734375 253.085938 C 135.867188 251.867188 138.929688 250.675781 142.007812 249.476562 C 142.125 250.328125 141.980469 251.226562 141.707031 252.101562 Z M 153.269531 235.046875 C 152.261719 237.425781 150.941406 239.59375 149.054688 241.390625 C 147.597656 242.769531 145.949219 243.875 144.210938 244.855469 C 139.5 247.519531 134.449219 249.355469 129.285156 250.910156 C 129.03125 250.980469 128.878906 250.96875 128.710938 250.734375 C 128.351562 250.222656 127.945312 249.730469 127.566406 249.222656 C 127.539062 249.195312 127.53125 249.148438 127.496094 249.054688 C 127.628906 248.949219 127.769531 248.847656 127.910156 248.738281 C 130.855469 246.472656 133.816406 244.214844 136.765625 241.945312 C 137.617188 241.296875 137.65625 240.183594 136.867188 239.542969 C 136.316406 239.089844 135.589844 239.097656 134.953125 239.578125 C 133.179688 240.929688 131.410156 242.285156 129.640625 243.644531 C 128.324219 244.65625 127.015625 245.660156 125.644531 246.714844 C 125.171875 246.097656 124.71875 245.535156 124.308594 244.945312 C 124.242188 244.839844 124.3125 244.574219 124.40625 244.441406 C 125.976562 242.09375 127.535156 239.734375 129.167969 237.429688 C 130.785156 235.140625 132.625 233.023438 134.644531 231.082031 C 136.542969 229.25 138.597656 227.628906 141.082031 226.664062 C 142.675781 226.042969 144.316406 225.621094 146.015625 225.441406 C 146.167969 225.417969 146.394531 225.570312 146.5 225.714844 C 148.226562 227.949219 149.933594 230.1875 151.644531 232.429688 C 152.15625 233.09375 152.664062 233.777344 153.191406 234.4375 C 153.351562 234.636719 153.371094 234.804688 153.269531 235.046875 Z M 154.292969 231.921875 C 152.589844 229.683594 150.921875 227.507812 149.253906 225.324219 C 149.257812 225.273438 149.273438 225.214844 149.28125 225.160156 C 151.222656 225.394531 153.167969 225.632812 155.132812 225.867188 C 155.097656 227.988281 154.785156 229.929688 154.292969 231.921875 Z M 154.292969 231.921875 " fill-opacity="1" fill-rule="nonzero"/><path fill="#ffffff" d="M 153.195312 234.4375 C 152.664062 233.777344 152.160156 233.097656 151.648438 232.429688 C 149.9375 230.1875 148.230469 227.949219 146.503906 225.714844 C 146.394531 225.570312 146.171875 225.417969 146.019531 225.441406 C 144.320312 225.621094 142.675781 226.042969 141.085938 226.664062 C 138.601562 227.628906 136.546875 229.25 134.648438 231.082031 C 132.628906 233.023438 130.789062 235.140625 129.171875 237.429688 C 127.539062 239.734375 125.980469 242.09375 124.410156 244.441406 C 124.316406 244.574219 124.242188 244.839844 124.3125 244.945312 C 124.722656 245.535156 125.175781 246.097656 125.648438 246.714844 C 127.015625 245.660156 128.324219 244.652344 129.644531 243.644531 C 131.414062 242.285156 133.183594 240.929688 134.957031 239.578125 C 135.59375 239.097656 136.316406 239.09375 136.871094 239.542969 C 137.65625 240.183594 137.621094 241.296875 136.769531 241.945312 C 133.820312 244.214844 130.859375 246.472656 127.914062 248.738281 C 127.773438 248.847656 127.628906 248.949219 127.5 249.058594 C 127.535156 249.148438 127.542969 249.195312 127.570312 249.222656 C 127.949219 249.730469 128.355469 250.222656 128.714844 250.738281 C 128.882812 250.96875 129.035156 250.980469 129.289062 250.910156 C 134.453125 249.355469 139.5 247.519531 144.214844 244.855469 C 145.949219 243.875 147.601562 242.769531 149.058594 241.390625 C 150.941406 239.59375 152.265625 237.425781 153.273438 235.046875 C 153.371094 234.804688 153.351562 234.636719 153.195312 234.4375 Z M 148.023438 237.851562 C 145.769531 239.550781 142.582031 239.132812 140.890625 236.910156 C 139.1875 234.6875 139.617188 231.5 141.847656 229.777344 C 144.039062 228.085938 147.230469 228.523438 148.9375 230.746094 C 150.625 232.953125 150.214844 236.191406 148.023438 237.851562 Z M 148.023438 237.851562 " fill-opacity="1" fill-rule="nonzero"/><path fill="#db2c2c" d="M 154.292969 231.921875 C 152.585938 229.6875 150.921875 227.507812 149.253906 225.324219 C 149.261719 225.269531 149.273438 225.214844 149.28125 225.160156 C 151.222656 225.394531 153.167969 225.632812 155.136719 225.867188 C 155.097656 227.984375 154.785156 229.929688 154.292969 231.921875 Z M 154.292969 231.921875 " fill-opacity="1" fill-rule="nonzero"/><path fill="#db2c2c" d="M 128.957031 232.6875 C 127.011719 235.339844 125.058594 238 123.078125 240.707031 C 120.859375 239.980469 118.5625 239.230469 116.203125 238.464844 C 118.644531 235.867188 121.222656 233.601562 124.695312 232.648438 C 126.195312 232.230469 127.929688 232.269531 128.957031 232.6875 Z M 128.957031 232.6875 " fill-opacity="1" fill-rule="nonzero"/><path fill="#db2c2c" d="M 138.742188 256.671875 C 137.097656 258.277344 135.183594 259.476562 133.113281 260.566406 C 132.988281 258.023438 132.859375 255.53125 132.734375 253.085938 C 135.867188 251.867188 138.929688 250.679688 142.011719 249.476562 C 142.128906 250.328125 141.980469 251.226562 141.710938 252.105469 C 141.144531 253.90625 140.070312 255.367188 138.742188 256.671875 Z M 138.742188 256.671875 " fill-opacity="1" fill-rule="nonzero"/><path fill="#371a45" d="M 148.9375 230.746094 C 147.230469 228.523438 144.039062 228.085938 141.847656 229.777344 C 139.617188 231.5 139.1875 234.6875 140.890625 236.910156 C 142.582031 239.132812 145.769531 239.550781 148.023438 237.851562 C 150.214844 236.191406 150.625 232.953125 148.9375 230.746094 Z M 146.503906 235.972656 C 145.363281 236.839844 143.6875 236.613281 142.796875 235.46875 C 141.878906 234.292969 142.128906 232.5625 143.347656 231.660156 C 144.488281 230.804688 146.195312 231.050781 147.054688 232.199219 C 147.949219 233.390625 147.703125 235.066406 146.503906 235.972656 Z M 146.503906 235.972656 " fill-opacity="1" fill-rule="nonzero"/><path fill="#22a7f0" d="M 146.503906 235.972656 C 145.363281 236.839844 143.6875 236.613281 142.796875 235.46875 C 141.878906 234.292969 142.128906 232.5625 143.34375 231.660156 C 144.488281 230.804688 146.191406 231.050781 147.050781 232.195312 C 147.949219 233.390625 147.703125 235.070312 146.503906 235.972656 Z M 146.503906 235.972656 " fill-opacity="1" fill-rule="nonzero"/><path fill="#ffffff" d="M 221.960938 201.726562 C 221.960938 201.726562 211.140625 196.585938 200.980469 201.195312 C 191.25 205.613281 184.367188 237.050781 196.972656 245.015625 C 204.753906 249.929688 210.050781 245.589844 214.449219 246.863281 C 220.980469 248.753906 234.375 216.382812 221.960938 201.726562 Z M 221.960938 201.726562 " fill-opacity="1" fill-rule="nonzero"/><path fill="#371a45" d="M 226.839844 222.183594 C 225.558594 235.363281 218.613281 248.066406 214.453125 246.863281 C 210.050781 245.589844 204.753906 249.933594 196.976562 245.015625 C 190.953125 241.210938 189.378906 232.050781 190.441406 223.03125 C 191.15625 228.292969 193.1875 232.800781 196.976562 235.195312 C 204.753906 240.105469 209.933594 237.824219 214.453125 237.042969 C 220.039062 236.074219 224.59375 229.964844 226.839844 222.183594 Z M 226.839844 222.183594 " fill-opacity="0.35" fill-rule="nonzero"/><path fill="#371a45" d="M 204.953125 249.425781 C 202.328125 249.425781 199.289062 248.851562 195.90625 246.714844 C 190.328125 243.1875 187.53125 235.3125 188.234375 225.097656 C 188.933594 214.933594 193.347656 202.460938 200.15625 199.371094 C 211.035156 194.429688 222.34375 199.6875 222.820312 199.914062 L 223.210938 200.101562 L 223.488281 200.429688 C 233.105469 211.78125 228.675781 233.140625 221.9375 243.558594 C 218.535156 248.824219 215.6875 249.308594 213.894531 248.792969 C 212.734375 248.457031 211.265625 248.691406 209.5625 248.964844 C 208.21875 249.179688 206.671875 249.425781 204.953125 249.425781 Z M 210.246094 201.292969 C 207.5625 201.292969 204.644531 201.738281 201.808594 203.023438 C 197.308594 205.066406 192.921875 215.300781 192.230469 225.375 C 191.632812 234.066406 193.75 240.609375 198.042969 243.316406 C 202.367188 246.050781 205.703125 245.515625 208.929688 245 C 211.015625 244.667969 212.984375 244.351562 215.007812 244.9375 C 215.234375 244.972656 216.90625 244.335938 219.261719 240.25 C 224.746094 230.738281 228.222656 212.773438 220.71875 203.375 C 219.460938 202.855469 215.269531 201.292969 210.246094 201.292969 Z M 210.246094 201.292969 " fill-opacity="1" fill-rule="nonzero"/><path fill="#ff0068" d="M 252.214844 87.285156 C 248.355469 83.292969 245.722656 78.050781 245.019531 72.105469 C 243.3125 57.679688 253.609375 44.601562 268.019531 42.890625 C 282.429688 41.183594 295.492188 51.492188 297.199219 65.917969 C 298.902344 80.347656 288.605469 93.425781 274.199219 95.136719 C 270.191406 95.609375 266.289062 95.152344 262.703125 93.9375 L 251.4375 99.261719 Z M 252.214844 87.285156 " fill-opacity="1" fill-rule="nonzero"/><path fill="#ffffff" d="M 268.613281 47.914062 C 255.152344 49.511719 245.285156 61.03125 245.433594 74.300781 C 245.226562 73.394531 245.0625 72.472656 244.949219 71.535156 C 243.246094 57.105469 253.542969 44.027344 267.949219 42.316406 C 282.359375 40.609375 295.421875 50.917969 297.128906 65.347656 C 297.242188 66.292969 297.296875 67.230469 297.308594 68.164062 C 294.363281 55.21875 282.078125 46.316406 268.613281 47.914062 Z M 268.613281 47.914062 " fill-opacity="0.5" fill-rule="nonzero"/><path fill="#371a45" d="M 251.4375 101.191406 C 251.054688 101.191406 250.675781 101.078125 250.351562 100.855469 C 249.785156 100.472656 249.46875 99.816406 249.511719 99.136719 L 250.238281 87.996094 C 246.265625 83.628906 243.804688 78.230469 243.105469 72.332031 C 241.277344 56.871094 252.351562 42.804688 267.792969 40.976562 C 275.269531 40.089844 282.652344 42.171875 288.566406 46.839844 C 294.480469 51.507812 298.226562 58.203125 299.113281 65.691406 C 299.996094 73.183594 297.917969 80.566406 293.253906 86.492188 C 288.59375 92.414062 281.90625 96.164062 274.425781 97.050781 C 270.488281 97.519531 266.59375 97.167969 262.835938 96.007812 L 252.257812 101.003906 C 251.996094 101.128906 251.714844 101.191406 251.4375 101.191406 Z M 271.15625 44.636719 C 270.191406 44.636719 269.21875 44.691406 268.246094 44.808594 C 254.917969 46.386719 245.355469 58.53125 246.933594 71.878906 C 247.566406 77.21875 249.871094 82.082031 253.601562 85.941406 C 253.980469 86.335938 254.175781 86.867188 254.140625 87.410156 L 253.574219 96.117188 L 261.882812 92.191406 C 262.332031 91.980469 262.847656 91.949219 263.324219 92.109375 C 266.761719 93.273438 270.34375 93.644531 273.972656 93.21875 C 280.429688 92.453125 286.203125 89.214844 290.226562 84.101562 C 294.253906 78.988281 296.050781 72.609375 295.285156 66.144531 C 294.519531 59.679688 291.285156 53.898438 286.179688 49.871094 C 281.84375 46.449219 276.59375 44.636719 271.15625 44.636719 Z M 271.15625 44.636719 " fill-opacity="1" fill-rule="nonzero"/><path fill="#371a45" d="M 252.015625 87.070312 C 260.367188 91.445312 270.625 91.878906 279.695312 87.332031 C 289.753906 82.289062 295.789062 72.410156 296.410156 61.917969 C 296.769531 63.210938 297.035156 64.542969 297.199219 65.917969 C 298.902344 80.34375 288.605469 93.425781 274.199219 95.132812 C 270.191406 95.609375 266.289062 95.152344 262.703125 93.9375 L 251.4375 99.261719 L 252.214844 87.285156 C 252.148438 87.214844 252.082031 87.140625 252.015625 87.070312 Z M 252.015625 87.070312 " fill-opacity="0.3" fill-rule="nonzero"/><path fill="#ffffff" d="M 262.800781 61.625 C 265.074219 59.351562 268.761719 59.757812 271.035156 62.035156 L 271.386719 62.386719 L 271.742188 62.035156 C 274.015625 59.757812 277.703125 59.351562 279.976562 61.625 C 282.25 63.902344 282.25 67.59375 279.976562 69.871094 L 279.621094 70.222656 L 272.472656 77.378906 C 271.875 77.980469 270.902344 77.980469 270.304688 77.378906 L 263.15625 70.222656 L 262.800781 69.871094 C 260.527344 67.59375 260.527344 63.902344 262.800781 61.625 Z M 262.800781 61.625 " fill-opacity="1" fill-rule="nonzero"/></svg>