<svg xmlns="http://www.w3.org/2000/svg" xmlns:xlink="http://www.w3.org/1999/xlink" width="400" zoomAndPan="magnify" viewBox="0 0 300 299.999988" height="400" preserveAspectRatio="xMidYMid meet" version="1.0"><defs><filter x="0%" y="0%" width="100%" height="100%" id="ac8d622fee"><feColorMatrix values="0 0 0 0 1 0 0 0 0 1 0 0 0 0 1 0 0 0 1 0" color-interpolation-filters="sRGB"/></filter><mask id="4d82d67c15"><g filter="url(#ac8d622fee)"><rect x="-30" width="360" fill="#000000" y="-29.999999" height="359.999986" fill-opacity="0.5"/></g></mask><clipPath id="4ad7cb903f"><rect x="0" width="25" y="0" height="27"/></clipPath><mask id="1b5d49d56e"><g filter="url(#ac8d622fee)"><rect x="-30" width="360" fill="#000000" y="-29.999999" height="359.999986" fill-opacity="0.5"/></g></mask><clipPath id="e9dc4748fc"><rect x="0" width="12" y="0" height="12"/></clipPath><mask id="77a3bede17"><g filter="url(#ac8d622fee)"><rect x="-30" width="360" fill="#000000" y="-29.999999" height="359.999986" fill-opacity="0.25"/></g></mask><clipPath id="3b1599f3b5"><path d="M 19 0.679688 L 20 0.679688 L 20 5 L 19 5 Z M 19 0.679688 " clip-rule="nonzero"/></clipPath><clipPath id="51d144dd30"><path d="M 0.558594 15 L 29.839844 15 L 29.839844 36.199219 L 0.558594 36.199219 Z M 0.558594 15 " clip-rule="nonzero"/></clipPath><clipPath id="35022c3215"><rect x="0" width="30" y="0" height="37"/></clipPath><clipPath id="5b52aafb34"><path d="M 231 67 L 244.6875 67 L 244.6875 73 L 231 73 Z M 231 67 " clip-rule="nonzero"/></clipPath></defs><path fill="#ffffff" d="M 112.425781 126.402344 L 112.90625 136.578125 L 113.152344 141.761719 L 117.398438 231.144531 C 117.398438 231.144531 112.140625 230.824219 105.085938 229.742188 C 103.707031 229.527344 102.257812 229.289062 100.765625 229.015625 C 89.65625 226.984375 76.191406 223.140625 71.15625 216.113281 C 63.636719 205.609375 63.0625 157.152344 70.1875 138.515625 C 73.453125 129.972656 89.445312 127.394531 100.785156 126.648438 C 102.050781 126.5625 103.261719 126.503906 104.390625 126.464844 C 109.140625 126.277344 112.425781 126.402344 112.425781 126.402344 Z M 112.425781 126.402344 " fill-opacity="1" fill-rule="nonzero"/><path fill="#371a45" d="M 112.90625 136.578125 L 113.152344 141.761719 L 116.523438 212.734375 L 117.398438 231.144531 C 117.398438 231.144531 117.289062 231.136719 117.078125 231.121094 C 117.019531 231.117188 116.949219 231.113281 116.875 231.109375 C 116.816406 231.101562 116.75 231.097656 116.683594 231.09375 C 116.632812 231.089844 116.578125 231.085938 116.527344 231.082031 C 116.507812 231.078125 116.484375 231.082031 116.464844 231.078125 C 116.371094 231.070312 116.265625 231.0625 116.15625 231.050781 C 116.132812 231.050781 116.109375 231.050781 116.082031 231.046875 C 115.988281 231.039062 115.894531 231.03125 115.792969 231.023438 C 115.65625 231.011719 115.511719 231 115.363281 230.984375 C 115.257812 230.972656 115.140625 230.964844 115.027344 230.953125 C 114.910156 230.941406 114.792969 230.933594 114.667969 230.921875 C 114.515625 230.910156 114.355469 230.890625 114.1875 230.878906 C 113.851562 230.84375 113.496094 230.8125 113.121094 230.769531 C 112.792969 230.738281 112.445312 230.703125 112.082031 230.660156 C 111.660156 230.613281 111.222656 230.566406 110.769531 230.511719 C 109.089844 230.3125 107.167969 230.058594 105.085938 229.742188 C 104.679688 229.679688 104.269531 229.613281 103.851562 229.546875 C 103.5625 229.5 103.265625 229.449219 102.96875 229.398438 C 102.25 229.28125 101.511719 229.152344 100.765625 229.015625 C 89.652344 226.980469 76.191406 223.136719 71.160156 216.113281 C 64.964844 207.464844 63.480469 173.078125 67.128906 150.800781 C 66.273438 170.355469 68.261719 191.484375 72.933594 198 C 75.242188 201.226562 84.457031 190.804688 84.273438 184.511719 C 83.800781 168.277344 85.949219 147.53125 98.78125 135.808594 C 99.113281 135.503906 106.648438 137.011719 112.90625 136.578125 Z M 112.90625 136.578125 " fill-opacity="0.3" fill-rule="nonzero"/><path fill="#371a45" d="M 119.144531 232.910156 L 117.296875 232.800781 C 115.753906 232.707031 79.3125 230.351562 69.804688 217.078125 C 61.953125 206.113281 61.230469 157.285156 68.632812 137.921875 C 74.164062 123.457031 110.921875 124.691406 112.484375 124.75 L 114.007812 124.808594 Z M 109.0625 128 C 97.460938 128 75.253906 129.902344 71.734375 139.101562 C 68.503906 147.550781 66.628906 163.351562 66.835938 180.339844 C 67.039062 196.964844 69.265625 210.625 72.507812 215.152344 C 79.96875 225.570312 108.144531 228.691406 115.652344 229.347656 L 110.839844 128.015625 C 110.28125 128.007812 109.6875 128 109.0625 128 Z M 109.0625 128 " fill-opacity="1" fill-rule="nonzero"/><path fill="#ffffff" d="M 68.1875 179.351562 L 83.300781 181.394531 C 84.648438 181.578125 85.769531 182.785156 86.023438 184.339844 C 86.949219 190.03125 88.503906 203.269531 83.800781 207.390625 C 79.894531 210.8125 73.503906 210.082031 69.734375 206.226562 C 65.515625 201.917969 65.003906 188.980469 65.019531 182.589844 C 65.027344 180.601562 66.476562 179.121094 68.1875 179.351562 Z M 68.1875 179.351562 " fill-opacity="1" fill-rule="nonzero"/><path fill="#371a45" d="M 86.019531 184.339844 C 86.949219 190.03125 88.503906 203.269531 83.800781 207.390625 C 79.894531 210.8125 73.503906 210.082031 69.730469 206.226562 C 67.140625 203.574219 65.945312 197.660156 65.417969 192.015625 C 66.121094 194.855469 67.207031 197.1875 68.546875 198.75 C 76.226562 207.691406 81.828125 197.855469 81.828125 197.855469 C 81.828125 197.855469 82.835938 200.355469 83.621094 200.535156 C 86.910156 201.273438 86.136719 189.3125 85.613281 183.125 C 85.808594 183.492188 85.949219 183.898438 86.019531 184.339844 Z M 86.019531 184.339844 " fill-opacity="0.3" fill-rule="nonzero"/><path fill="#371a45" d="M 77.671875 211.253906 C 74.40625 211.253906 71.046875 209.941406 68.546875 207.386719 C 64.21875 202.964844 63.339844 191.457031 63.359375 182.585938 C 63.363281 181.0625 63.980469 179.660156 65.042969 178.730469 C 65.988281 177.910156 67.1875 177.546875 68.410156 177.710938 L 83.523438 179.753906 C 85.589844 180.03125 87.292969 181.808594 87.660156 184.074219 C 88.835938 191.308594 90.042969 204.125 84.894531 208.636719 C 82.886719 210.394531 80.3125 211.253906 77.671875 211.253906 Z M 67.835938 180.984375 C 67.613281 180.984375 67.410156 181.066406 67.222656 181.226562 C 66.882812 181.523438 66.679688 182.03125 66.679688 182.59375 C 66.648438 193.925781 68.234375 202.328125 70.921875 205.070312 C 74.179688 208.394531 79.574219 208.890625 82.707031 206.144531 C 85.503906 203.695312 86.148438 195.441406 84.386719 184.605469 C 84.25 183.777344 83.703125 183.117188 83.078125 183.035156 L 67.964844 180.992188 C 67.921875 180.988281 67.878906 180.984375 67.835938 180.984375 Z M 67.835938 180.984375 " fill-opacity="1" fill-rule="nonzero"/><path fill="#371a45" d="M 75.636719 208.203125 C 79.011719 206.035156 80.324219 201.789062 80.929688 197.960938 C 81.089844 196.589844 81.21875 195.070312 81.253906 193.691406 C 81.296875 191.816406 81.3125 189.800781 80.941406 187.988281 C 80.890625 187.753906 81.039062 187.523438 81.273438 187.46875 C 81.496094 187.421875 81.71875 187.554688 81.785156 187.765625 C 82.367188 189.738281 82.507812 191.660156 82.644531 193.671875 C 82.757812 195.585938 82.769531 197.710938 82.570312 199.628906 C 82.191406 203.183594 81.015625 206.957031 78.4375 209.617188 C 78 210.050781 77.566406 210.457031 77.019531 210.785156 C 75.292969 211.644531 73.957031 209.15625 75.636719 208.203125 Z M 75.636719 208.203125 " fill-opacity="1" fill-rule="nonzero"/><path fill="#371a45" d="M 92.859375 139.105469 C 89.21875 138.644531 85.511719 138.328125 81.839844 138.210938 C 78.28125 138.109375 74.53125 138.113281 71.101562 138.855469 C 68.953125 139.28125 68.230469 136.179688 70.363281 135.625 C 76.175781 134.824219 81.886719 135.625 87.605469 136.4375 C 89.460938 136.726562 91.300781 137.046875 93.152344 137.421875 C 93.617188 137.515625 93.914062 137.964844 93.820312 138.429688 C 93.730469 138.875 93.304688 139.167969 92.859375 139.105469 Z M 92.859375 139.105469 " fill-opacity="1" fill-rule="nonzero"/><path fill="#0096f0" d="M 205.910156 44.832031 C 204.355469 44.773438 202.726562 44.816406 201.019531 44.949219 C 199.5625 45.0625 198.40625 46.207031 198.285156 47.652344 C 197.730469 54.238281 198.636719 60.96875 199.726562 67.996094 C 199.960938 69.539062 201.277344 70.699219 202.84375 70.730469 C 204.488281 70.765625 206.085938 70.839844 207.621094 70.980469 C 208.804688 71.074219 209.953125 71.214844 211.054688 71.386719 C 212.847656 71.667969 214.09375 73.324219 213.867188 75.125 L 212.683594 84.644531 L 225.28125 77.628906 C 230.351562 56.695312 222.441406 45.414062 205.910156 44.832031 Z M 205.910156 44.832031 " fill-opacity="1" fill-rule="nonzero"/><path fill="#ffffff" d="M 200.515625 48.980469 C 202.222656 48.847656 203.851562 48.804688 205.40625 48.863281 C 219.597656 49.363281 227.425781 57.753906 226.152344 73.363281 C 229.191406 55.164062 221.28125 45.375 205.910156 44.832031 C 204.355469 44.773438 202.726562 44.816406 201.019531 44.949219 C 199.5625 45.0625 198.40625 46.203125 198.285156 47.652344 C 198.203125 48.605469 198.15625 49.5625 198.136719 50.523438 C 198.605469 49.667969 199.480469 49.0625 200.515625 48.980469 Z M 200.515625 48.980469 " fill-opacity="0.5" fill-rule="nonzero"/><path fill="#ffffff" d="M 203.988281 44.515625 C 202.816406 44.578125 201.589844 44.746094 200.300781 45.011719 C 199.207031 45.234375 198.34375 46.457031 198.269531 47.90625 C 197.917969 54.496094 198.667969 61.121094 199.558594 68.023438 C 199.75 69.539062 200.753906 70.59375 201.933594 70.503906 C 203.175781 70.410156 204.378906 70.367188 205.539062 70.386719 C 206.824219 62.980469 205.84375 50.644531 203.988281 44.515625 Z M 203.988281 44.515625 " fill-opacity="1" fill-rule="nonzero"/><path fill="#371a45" d="M 212.683594 86.058594 C 212.40625 86.058594 212.132812 85.976562 211.894531 85.816406 C 211.453125 85.519531 211.214844 85 211.28125 84.472656 L 212.464844 74.949219 C 212.59375 73.914062 211.863281 72.941406 210.835938 72.78125 C 209.75 72.609375 208.628906 72.476562 207.507812 72.386719 C 206.058594 72.253906 204.527344 72.175781 202.8125 72.140625 C 200.554688 72.09375 198.667969 70.4375 198.328125 68.207031 C 197.238281 61.179688 196.308594 54.308594 196.875 47.535156 C 197.054688 45.390625 198.75 43.710938 200.910156 43.542969 C 202.675781 43.40625 204.375 43.363281 205.960938 43.421875 C 213.941406 43.703125 220.144531 46.464844 223.902344 51.40625 C 228.457031 57.398438 229.410156 66.582031 226.652344 77.960938 C 226.558594 78.34375 226.3125 78.671875 225.96875 78.863281 L 213.375 85.878906 C 213.160156 86 212.921875 86.058594 212.683594 86.058594 Z M 204.550781 46.21875 C 203.453125 46.21875 202.308594 46.265625 201.128906 46.359375 C 200.359375 46.417969 199.753906 47.011719 199.691406 47.769531 C 199.148438 54.238281 200.058594 60.925781 201.121094 67.777344 C 201.253906 68.65625 201.992188 69.304688 202.871094 69.320312 C 204.652344 69.355469 206.25 69.441406 207.75 69.574219 C 208.929688 69.671875 210.121094 69.8125 211.273438 69.992188 C 213.835938 70.394531 215.589844 72.726562 215.269531 75.300781 L 214.429688 82.058594 L 224.046875 76.703125 C 226.421875 66.453125 225.597656 58.308594 221.648438 53.109375 C 218.375 48.808594 213.066406 46.496094 205.859375 46.242188 C 205.433594 46.226562 204.996094 46.21875 204.550781 46.21875 Z M 225.277344 77.628906 L 225.285156 77.628906 Z M 225.277344 77.628906 " fill-opacity="1" fill-rule="nonzero"/><path fill="#ffffff" d="M 236.824219 108.101562 C 236.777344 143.210938 216.648438 169.558594 177.9375 171.121094 C 177.203125 171.152344 176.460938 171.175781 175.710938 171.1875 L 167.9375 128.628906 C 175.71875 127.691406 182.96875 126.527344 189.417969 124.699219 C 189.417969 124.707031 189.421875 124.699219 189.421875 124.699219 C 202.898438 120.90625 212.898438 114.257812 217.050781 100.90625 C 217.050781 100.902344 217.050781 100.902344 217.050781 100.902344 C 217.886719 98.203125 218.488281 95.230469 218.824219 91.949219 L 235.554688 92.183594 C 236.410156 97.640625 236.835938 102.964844 236.824219 108.101562 Z M 236.824219 108.101562 " fill-opacity="1" fill-rule="nonzero"/><path fill="#371a45" d="M 175.710938 172.597656 C 175.027344 172.597656 174.441406 172.109375 174.320312 171.441406 L 166.542969 128.882812 C 166.472656 128.5 166.566406 128.105469 166.796875 127.789062 C 167.027344 127.476562 167.378906 127.273438 167.765625 127.226562 C 197.253906 123.675781 214.832031 116.742188 217.417969 91.800781 C 217.496094 91.074219 218.109375 90.519531 218.84375 90.535156 L 235.574219 90.773438 C 236.261719 90.78125 236.84375 91.285156 236.949219 91.964844 C 240.753906 116.199219 236.070312 137.585938 223.757812 152.183594 C 212.757812 165.21875 196.152344 172.277344 175.734375 172.597656 C 175.726562 172.597656 175.71875 172.597656 175.710938 172.597656 Z M 169.59375 129.847656 L 176.882812 169.75 C 195.910156 169.191406 211.351562 162.503906 221.59375 150.363281 C 233.175781 136.636719 237.679688 116.503906 234.335938 93.574219 L 220.082031 93.375 C 218.503906 105.8125 213 114.691406 203.296875 120.492188 C 193.921875 126.09375 181.632812 128.339844 169.59375 129.847656 Z M 169.59375 129.847656 " fill-opacity="1" fill-rule="nonzero"/><path fill="#371a45" d="M 218.628906 156.960938 C 218.398438 156.960938 218.164062 156.902344 217.945312 156.78125 C 204.640625 149.445312 194.992188 132.75 197.296875 121.058594 C 197.449219 120.296875 198.195312 119.796875 198.957031 119.949219 C 199.726562 120.097656 200.222656 120.839844 200.074219 121.605469 C 197.976562 132.222656 206.96875 147.503906 219.3125 154.3125 C 220 154.691406 220.246094 155.546875 219.867188 156.230469 C 219.609375 156.695312 219.125 156.960938 218.628906 156.960938 Z M 218.628906 156.960938 " fill-opacity="1" fill-rule="nonzero"/><path fill="#371a45" d="M 236.824219 108.101562 C 236.777344 143.210938 216.648438 169.558594 177.9375 171.121094 C 177.472656 167.777344 177.007812 164.4375 176.539062 161.09375 C 176.433594 160.300781 176.328125 159.449219 176.679688 158.730469 C 177.039062 158.007812 178.046875 157.5625 178.675781 158.066406 L 179.605469 158.0625 C 197.085938 156.746094 213.921875 148.296875 225.40625 135.089844 C 227.296875 132.914062 229.050781 130.617188 230.449219 128.105469 C 232.753906 123.984375 234.058594 119.390625 235.21875 114.816406 C 235.777344 112.585938 236.3125 110.34375 236.824219 108.101562 Z M 236.824219 108.101562 " fill-opacity="0.25" fill-rule="nonzero"/><path fill="#371a45" d="M 218.390625 111.449219 C 218.046875 118.273438 213.445312 124.695312 207.085938 127.21875 C 201.304688 129.515625 194.351562 128.472656 189.421875 124.699219 C 202.898438 120.90625 212.898438 114.257812 217.046875 100.90625 C 217.457031 102.109375 217.660156 103.40625 217.851562 104.667969 C 218.183594 106.917969 218.503906 109.183594 218.390625 111.449219 Z M 218.390625 111.449219 " fill-opacity="0.25" fill-rule="nonzero"/><path fill="#371a45" d="M 122.535156 280.164062 C 122.34375 280.164062 122.148438 280.113281 121.972656 280.007812 C 113.082031 274.664062 100.160156 277.023438 100.03125 277.050781 C 99.433594 277.160156 98.863281 276.769531 98.75 276.175781 C 98.636719 275.582031 99.027344 275.011719 99.621094 274.898438 C 100.183594 274.792969 113.503906 272.363281 123.101562 278.128906 C 123.621094 278.441406 123.789062 279.113281 123.476562 279.632812 C 123.269531 279.972656 122.90625 280.164062 122.535156 280.164062 Z M 122.535156 280.164062 " fill-opacity="1" fill-rule="nonzero"/><path fill="#ffffff" d="M 175.269531 275.976562 C 175.269531 275.976562 181.589844 250.253906 183.761719 230.6875 C 184.441406 224.558594 184.785156 218.359375 184.851562 212.191406 C 184.871094 210.519531 184.871094 208.851562 184.847656 207.191406 C 184.804688 203.195312 184.648438 199.222656 184.40625 195.300781 C 183.214844 176.011719 179.898438 157.898438 176.71875 144.085938 C 175.507812 138.851562 174.320312 134.234375 173.269531 130.40625 C 171.171875 122.777344 169.644531 118.28125 169.644531 118.28125 L 105.441406 118.28125 C 105.441406 118.28125 103.988281 122.550781 101.980469 129.828125 C 100.90625 133.722656 99.675781 138.480469 98.417969 143.910156 C 95.214844 157.757812 91.871094 175.980469 90.679688 195.378906 C 90.441406 199.25 90.292969 203.164062 90.246094 207.101562 C 90.226562 208.777344 90.21875 210.460938 90.238281 212.144531 C 90.304688 218.328125 90.644531 224.542969 91.324219 230.6875 C 93.503906 250.253906 99.824219 275.976562 99.824219 275.976562 C 99.824219 275.976562 89.910156 279.09375 87.644531 285.765625 C 87.261719 286.890625 87.097656 288.121094 87.238281 289.457031 C 87.261719 289.703125 87.929688 299.328125 114.777344 298.363281 C 126.15625 297.957031 132.632812 295.875 135.402344 290.144531 C 136.371094 288.132812 136.914062 283.824219 137.203125 279.324219 C 137.492188 274.9375 137.542969 269.289062 137.542969 265.699219 C 137.558594 272.308594 137.816406 286.269531 139.6875 290.144531 C 142.460938 295.875 150.199219 297.957031 161.578125 298.363281 C 188.421875 299.328125 187.824219 289.703125 187.851562 289.457031 C 188.824219 280.25 175.269531 275.976562 175.269531 275.976562 Z M 137.5625 262.183594 C 137.5625 262.183594 137.542969 263.3125 137.542969 265.121094 C 137.539062 263.332031 137.523438 262.183594 137.523438 262.183594 L 137.523438 229.894531 L 137.5625 229.894531 Z M 137.5625 262.183594 " fill-opacity="1" fill-rule="nonzero"/><path fill="#371a45" d="M 187.847656 289.457031 C 187.820312 289.703125 187.15625 299.324219 160.308594 298.363281 C 148.929688 297.957031 142.457031 295.871094 139.683594 290.140625 C 138.714844 288.128906 138.175781 283.820312 137.882812 279.324219 L 137.632812 262.074219 L 137.203125 279.324219 C 136.914062 283.820312 136.375 288.128906 135.402344 290.140625 C 132.632812 295.871094 126.160156 297.957031 114.78125 298.363281 C 87.933594 299.324219 87.265625 289.703125 87.242188 289.457031 C 87.101562 288.121094 87.269531 286.890625 87.648438 285.761719 C 88.621094 287.289062 91.519531 289.492188 100.03125 290.613281 C 113.84375 292.425781 128.679688 290.8125 131.195312 282.023438 C 133.089844 275.410156 136.210938 239.871094 125.710938 235.582031 C 109.476562 228.945312 103.515625 223.609375 108.03125 222.746094 C 110.324219 222.308594 116.371094 224.128906 137.546875 224.128906 C 158.722656 224.128906 164.765625 222.308594 167.058594 222.746094 C 171.574219 223.609375 165.613281 228.945312 149.378906 235.582031 C 138.882812 239.871094 142 275.410156 143.894531 282.023438 C 146.414062 290.8125 161.246094 292.425781 175.0625 290.613281 C 183.574219 289.492188 186.472656 287.292969 187.441406 285.761719 C 187.820312 286.890625 187.988281 288.121094 187.847656 289.457031 Z M 187.847656 289.457031 " fill-opacity="0.25" fill-rule="nonzero"/><path fill="#371a45" d="M 99.027344 145.222656 C 98.371094 150.589844 97.34375 156.203125 96.425781 161.535156 C 94.488281 172.34375 93.058594 183.25 92.320312 194.199219 C 91.585938 204.421875 91.546875 214.753906 92.292969 224.976562 C 93.738281 242.0625 97.320312 258.949219 101.199219 275.636719 C 101.199219 275.636719 101.5 276.90625 101.5 276.90625 C 98.59375 277.796875 95.671875 279.132812 93.230469 280.953125 C 90.296875 283.105469 87.796875 286.46875 88.847656 290.03125 C 92.363281 297.058594 107.539062 297.128906 114.503906 296.957031 C 121.28125 296.597656 131.269531 296.300781 134.308594 289.097656 C 135.21875 286.273438 135.410156 283.152344 135.671875 280.167969 C 136.503906 268.984375 135.988281 241.472656 136.113281 229.890625 C 136.113281 229.890625 136.113281 228.480469 136.113281 228.480469 L 138.976562 228.480469 L 138.976562 229.890625 C 139.109375 241.660156 138.574219 268.890625 139.425781 280.242188 C 139.71875 283.355469 139.84375 286.640625 140.964844 289.539062 C 141.578125 290.753906 142.472656 291.820312 143.542969 292.671875 C 145.617188 294.234375 148.132812 295.113281 150.671875 295.710938 C 154.011719 296.453125 157.40625 296.761719 160.859375 296.917969 C 164.988281 297.058594 169.152344 297.054688 173.25 296.574219 C 173.898438 296.535156 174.644531 296.363281 175.269531 296.273438 C 176.507812 296.128906 178.007812 295.699219 179.210938 295.40625 C 179.210938 295.40625 181.074219 294.753906 181.074219 294.753906 C 181.660156 294.484375 182.25 294.214844 182.816406 293.925781 C 183.222656 293.652344 183.988281 293.238281 184.347656 292.882812 C 185.496094 291.953125 186.320312 290.855469 186.4375 289.511719 C 186.492188 288.605469 186.519531 287.675781 186.269531 286.792969 C 184.792969 281.527344 178.507812 278.492188 173.570312 276.921875 C 173.570312 276.921875 173.875 275.632812 173.875 275.632812 C 178.328125 256.285156 182.550781 236.6875 183.230469 216.789062 C 183.695312 201.90625 182.597656 186.960938 180.433594 172.21875 C 179.753906 167.453125 179.015625 162.15625 178.601562 157.363281 C 178.566406 156.972656 178.863281 156.621094 179.257812 156.597656 C 179.597656 156.570312 179.894531 156.785156 179.988281 157.097656 C 180.722656 159.503906 181.328125 161.945312 181.859375 164.398438 C 183.425781 171.769531 184.347656 179.257812 185.144531 186.746094 C 186.671875 201.765625 186.886719 216.953125 185.121094 231.964844 C 183.257812 246.929688 180.140625 261.65625 176.65625 276.316406 C 176.65625 276.316406 175.695312 274.613281 175.695312 274.613281 C 177.15625 275.105469 178.4375 275.671875 179.785156 276.359375 C 184.769531 278.84375 189.949219 283.480469 189.257812 289.597656 C 188.992188 293.578125 185.441406 295.992188 182.132812 297.371094 C 182.132812 297.371094 180.023438 298.109375 180.023438 298.109375 C 179.3125 298.296875 178.597656 298.46875 177.886719 298.648438 C 176.6875 298.96875 175.347656 299.089844 174.128906 299.324219 C 172.660156 299.460938 170.757812 299.695312 169.292969 299.722656 C 162.839844 299.964844 156.382812 299.820312 150.03125 298.464844 C 144.878906 297.304688 139.324219 294.664062 137.804688 289.039062 C 137.410156 287.5625 137.195312 286.136719 137.015625 284.710938 C 135.449219 271.066406 136.375 243.910156 136.148438 229.890625 C 136.148438 229.890625 137.5625 231.304688 137.5625 231.304688 L 137.523438 231.304688 L 138.9375 229.890625 C 138.8125 241.796875 139.335938 268.867188 138.488281 280.375 C 138.039062 284.707031 138.070312 289.613281 135.148438 293.171875 C 130.347656 299.019531 121.574219 299.425781 114.597656 299.777344 C 112.136719 299.835938 108.492188 299.835938 106.050781 299.6875 C 99.40625 299.214844 87.613281 297.570312 85.847656 289.742188 C 85 281.855469 92.882812 276.898438 99.394531 274.628906 C 99.394531 274.628906 98.449219 276.3125 98.449219 276.3125 C 95.867188 265.535156 93.570312 254.726562 91.714844 243.796875 C 86.71875 216.429688 88.488281 188.238281 93.640625 161.03125 C 94.667969 155.589844 95.929688 150.183594 97.644531 144.914062 C 97.765625 144.542969 98.167969 144.339844 98.542969 144.464844 C 98.871094 144.574219 99.066406 144.894531 99.027344 145.222656 Z M 99.027344 145.222656 " fill-opacity="1" fill-rule="nonzero"/><path fill="#371a45" d="M 175.003906 277.359375 C 169.453125 276.722656 163.699219 276.578125 158.214844 277.820312 C 156.394531 278.25 154.640625 278.890625 152.917969 279.671875 C 152.558594 279.859375 152.113281 279.707031 151.945312 279.339844 C 151.800781 279.023438 151.910156 278.65625 152.191406 278.464844 C 153.855469 277.324219 155.675781 276.386719 157.589844 275.71875 C 159.460938 275.050781 161.511719 274.585938 163.480469 274.300781 C 166.972656 273.820312 170.519531 273.796875 174.003906 274.3125 C 174.507812 274.390625 174.988281 274.46875 175.527344 274.589844 C 176.289062 274.757812 176.769531 275.511719 176.601562 276.269531 C 176.441406 277.003906 175.730469 277.472656 175.003906 277.359375 Z M 175.003906 277.359375 " fill-opacity="1" fill-rule="nonzero"/><path fill="#371a45" d="M 99.761719 274.585938 C 105.703125 273.429688 111.96875 273.710938 117.714844 275.671875 C 119.632812 276.34375 121.449219 277.308594 123.101562 278.464844 C 123.421875 278.6875 123.5 279.128906 123.273438 279.449219 C 123.070312 279.742188 122.679688 279.828125 122.371094 279.671875 C 120.640625 278.910156 118.882812 278.289062 117.0625 277.863281 C 112.480469 276.824219 107.730469 276.738281 103.058594 277.09375 C 102.105469 277.144531 101.125 277.265625 100.226562 277.367188 C 98.464844 277.53125 98.046875 275.003906 99.761719 274.585938 Z M 99.761719 274.585938 " fill-opacity="1" fill-rule="nonzero"/><path fill="#371a45" d="M 184.847656 207.191406 C 184.0625 207.652344 183.175781 207.964844 182.214844 208.078125 C 176.648438 208.746094 168.800781 209.21875 162.902344 207.679688 L 162.902344 210.507812 C 162.902344 214.421875 159.679688 217.621094 155.75 217.621094 L 116.664062 217.621094 C 112.730469 217.621094 109.511719 214.421875 109.511719 210.507812 L 109.511719 208.25 C 104.089844 209.070312 97.742188 208.644531 93.023438 208.078125 C 92.003906 207.953125 91.066406 207.613281 90.246094 207.101562 C 90.292969 203.164062 90.441406 199.246094 90.683594 195.375 C 91.636719 194.878906 92.710938 194.597656 93.84375 194.597656 C 93.949219 194.597656 94.054688 194.601562 94.15625 194.605469 C 98.5 194.8125 104.4375 194.9375 109.511719 194.503906 L 109.511719 189.425781 C 109.511719 185.515625 112.730469 182.320312 116.664062 182.320312 L 155.75 182.320312 C 158.890625 182.320312 161.582031 184.359375 162.53125 187.179688 C 162.773438 187.882812 162.902344 188.640625 162.902344 189.425781 L 162.902344 194.175781 C 168.457031 194.976562 175.898438 194.851562 181.082031 194.605469 C 181.1875 194.601562 181.292969 194.597656 181.398438 194.597656 C 182.472656 194.597656 183.496094 194.851562 184.410156 195.296875 C 184.648438 199.222656 184.804688 203.195312 184.847656 207.191406 Z M 184.847656 207.191406 " fill-opacity="0.25" fill-rule="nonzero"/><path fill="#ffffff" d="M 114.65625 200.800781 C 108.652344 203.214844 99.359375 202.710938 93.027344 201.949219 C 89.226562 201.492188 86.558594 198.007812 87.117188 194.246094 C 87.628906 190.816406 90.671875 188.320312 94.160156 188.480469 C 100.085938 188.757812 108.972656 188.886719 114.601562 187.644531 Z M 114.65625 200.800781 " fill-opacity="1" fill-rule="nonzero"/><path fill="#371a45" d="M 114.65625 200.800781 C 108.652344 203.214844 99.359375 202.714844 93.023438 201.949219 C 89.226562 201.492188 86.558594 198.007812 87.117188 194.246094 C 87.234375 193.445312 87.488281 192.695312 87.863281 192.019531 C 88.875 193.878906 90.746094 195.238281 93.023438 195.511719 C 99.347656 196.273438 108.625 196.777344 114.628906 194.371094 Z M 114.65625 200.800781 " fill-opacity="0.25" fill-rule="nonzero"/><path fill="#371a45" d="M 102.722656 203.988281 C 99.257812 203.988281 95.808594 203.707031 92.855469 203.351562 C 90.632812 203.082031 88.664062 201.960938 87.308594 200.1875 C 85.957031 198.421875 85.394531 196.238281 85.71875 194.042969 C 86.339844 189.871094 90 186.886719 94.226562 187.074219 C 100.410156 187.363281 108.914062 187.457031 114.296875 186.269531 C 115.089844 186.09375 117.0625 186.097656 118.25 189.921875 C 119.46875 193.851562 119.335938 200.441406 115.183594 202.113281 C 111.6875 203.515625 107.191406 203.988281 102.722656 203.988281 Z M 93.835938 189.886719 C 91.171875 189.886719 88.910156 191.808594 88.515625 194.457031 C 88.304688 195.890625 88.671875 197.320312 89.554688 198.476562 C 90.445312 199.636719 91.734375 200.375 93.195312 200.550781 C 99.625 201.324219 108.476562 201.765625 114.128906 199.492188 C 115.628906 198.890625 115.972656 196.46875 116.050781 195.457031 C 116.296875 192.277344 115.300781 189.601562 114.722656 189.0625 C 109.035156 190.277344 100.382812 190.183594 94.09375 189.890625 C 94.007812 189.886719 93.917969 189.886719 93.835938 189.886719 Z M 114.65625 200.800781 L 114.660156 200.800781 Z M 114.65625 200.800781 " fill-opacity="1" fill-rule="nonzero"/><path fill="#ffffff" d="M 160.582031 200.800781 C 166.585938 203.214844 175.878906 202.710938 182.214844 201.949219 C 186.015625 201.492188 188.679688 198.007812 188.121094 194.246094 C 187.609375 190.816406 184.570312 188.320312 181.082031 188.480469 C 175.15625 188.757812 166.269531 188.886719 160.640625 187.644531 Z M 160.582031 200.800781 " fill-opacity="1" fill-rule="nonzero"/><path fill="#371a45" d="M 182.214844 201.949219 C 175.878906 202.714844 166.585938 203.214844 160.582031 200.800781 L 160.609375 194.386719 C 166.613281 196.792969 175.886719 196.285156 182.214844 195.527344 C 184.492188 195.25 186.371094 193.882812 187.378906 192.023438 C 187.746094 192.695312 188.003906 193.449219 188.125 194.246094 C 188.679688 198.011719 186.011719 201.496094 182.214844 201.949219 Z M 182.214844 201.949219 " fill-opacity="0.25" fill-rule="nonzero"/><path fill="#371a45" d="M 172.515625 203.988281 C 168.046875 203.988281 163.550781 203.515625 160.054688 202.109375 C 155.902344 200.441406 155.773438 193.851562 156.992188 189.921875 C 158.175781 186.097656 160.152344 186.09375 160.945312 186.269531 C 166.324219 187.457031 174.828125 187.359375 181.015625 187.070312 C 185.246094 186.878906 188.898438 189.871094 189.519531 194.039062 C 189.847656 196.238281 189.28125 198.417969 187.933594 200.1875 C 186.578125 201.960938 184.605469 203.082031 182.382812 203.351562 C 179.429688 203.707031 175.980469 203.988281 172.515625 203.988281 Z M 161.109375 199.492188 C 166.761719 201.765625 175.613281 201.320312 182.046875 200.546875 C 183.503906 200.371094 184.796875 199.636719 185.683594 198.476562 C 186.566406 197.320312 186.9375 195.890625 186.722656 194.453125 C 186.316406 191.722656 183.910156 189.75 181.144531 189.890625 C 174.855469 190.183594 166.203125 190.273438 160.515625 189.0625 C 159.9375 189.601562 158.941406 192.277344 159.1875 195.457031 C 159.265625 196.46875 159.609375 198.890625 161.109375 199.492188 Z M 161.109375 199.492188 " fill-opacity="1" fill-rule="nonzero"/><path fill="#ffffff" d="M 162.902344 183.296875 L 162.902344 204.378906 C 162.902344 208.292969 159.679688 211.492188 155.746094 211.492188 L 116.667969 211.492188 C 112.726562 211.492188 109.511719 208.292969 109.511719 204.378906 L 109.511719 183.296875 C 109.511719 179.390625 112.726562 176.1875 116.667969 176.1875 L 155.746094 176.1875 C 158.890625 176.1875 161.578125 178.230469 162.53125 181.050781 C 162.769531 181.757812 162.902344 182.511719 162.902344 183.296875 Z M 162.902344 183.296875 " fill-opacity="1" fill-rule="nonzero"/><path fill="#371a45" d="M 162.902344 183.296875 L 162.902344 204.378906 C 162.902344 208.292969 159.679688 211.492188 155.746094 211.492188 L 116.667969 211.492188 C 112.726562 211.492188 109.511719 208.292969 109.511719 204.378906 L 109.511719 197.285156 C 116.253906 200.992188 129.609375 206.558594 143.015625 201.964844 C 149.566406 199.71875 157.074219 192.023438 157.074219 192.023438 C 157.074219 192.023438 157.363281 200.097656 158.570312 199.96875 C 161.921875 199.617188 161.898438 183.277344 162.53125 181.046875 C 162.769531 181.757812 162.902344 182.511719 162.902344 183.296875 Z M 162.902344 183.296875 " fill-opacity="0.25" fill-rule="nonzero"/><path fill="#371a45" d="M 157.09375 212.902344 L 115.316406 212.902344 C 111.335938 212.902344 108.09375 209.667969 108.09375 205.695312 L 108.09375 181.988281 C 108.09375 178.011719 111.335938 174.777344 115.316406 174.777344 L 157.09375 174.777344 C 161.074219 174.777344 164.316406 178.011719 164.316406 181.988281 L 164.316406 205.695312 C 164.316406 209.667969 161.074219 212.902344 157.09375 212.902344 Z M 115.316406 177.597656 C 112.894531 177.597656 110.921875 179.566406 110.921875 181.988281 L 110.921875 205.695312 C 110.921875 208.113281 112.894531 210.082031 115.316406 210.082031 L 157.09375 210.082031 C 159.515625 210.082031 161.488281 208.113281 161.488281 205.695312 L 161.488281 181.988281 C 161.488281 179.566406 159.515625 177.597656 157.09375 177.597656 Z M 115.316406 177.597656 " fill-opacity="1" fill-rule="nonzero"/><path fill="#22a7f0" d="M 156.21875 193.839844 C 156.21875 194.242188 156.179688 194.640625 156.101562 195.035156 C 156.023438 195.429688 155.90625 195.816406 155.75 196.1875 C 155.597656 196.558594 155.40625 196.914062 155.179688 197.246094 C 154.957031 197.582031 154.699219 197.890625 154.414062 198.175781 C 154.125 198.460938 153.816406 198.714844 153.476562 198.9375 C 153.140625 199.160156 152.785156 199.351562 152.410156 199.503906 C 152.035156 199.660156 151.652344 199.773438 151.253906 199.855469 C 150.855469 199.933594 150.453125 199.972656 150.050781 199.972656 C 149.644531 199.972656 149.242188 199.933594 148.847656 199.855469 C 148.449219 199.773438 148.0625 199.660156 147.6875 199.503906 C 147.3125 199.351562 146.957031 199.160156 146.621094 198.9375 C 146.285156 198.714844 145.972656 198.460938 145.6875 198.175781 C 145.398438 197.890625 145.144531 197.582031 144.917969 197.246094 C 144.695312 196.914062 144.503906 196.558594 144.347656 196.1875 C 144.195312 195.816406 144.078125 195.429688 143.996094 195.035156 C 143.917969 194.640625 143.878906 194.242188 143.878906 193.839844 C 143.878906 193.4375 143.917969 193.039062 143.996094 192.644531 C 144.078125 192.25 144.195312 191.867188 144.347656 191.496094 C 144.503906 191.121094 144.695312 190.769531 144.917969 190.433594 C 145.144531 190.101562 145.398438 189.789062 145.6875 189.503906 C 145.972656 189.222656 146.285156 188.964844 146.621094 188.742188 C 146.957031 188.519531 147.3125 188.332031 147.6875 188.175781 C 148.0625 188.023438 148.449219 187.90625 148.847656 187.828125 C 149.242188 187.75 149.644531 187.710938 150.050781 187.710938 C 150.453125 187.710938 150.855469 187.75 151.253906 187.828125 C 151.652344 187.90625 152.035156 188.023438 152.410156 188.175781 C 152.785156 188.332031 153.140625 188.519531 153.476562 188.742188 C 153.816406 188.964844 154.125 189.222656 154.414062 189.503906 C 154.699219 189.789062 154.957031 190.101562 155.179688 190.433594 C 155.40625 190.769531 155.597656 191.121094 155.75 191.496094 C 155.90625 191.867188 156.023438 192.25 156.101562 192.644531 C 156.179688 193.039062 156.21875 193.4375 156.21875 193.839844 Z M 156.21875 193.839844 " fill-opacity="1" fill-rule="nonzero"/><path fill="#ffffff" d="M 156.222656 193.84375 C 156.222656 194.261719 156.183594 194.667969 156.101562 195.058594 C 155.53125 192.253906 153.035156 190.140625 150.046875 190.140625 C 147.0625 190.140625 144.566406 192.253906 144 195.058594 C 143.917969 194.667969 143.878906 194.261719 143.878906 193.84375 C 143.878906 190.457031 146.640625 187.707031 150.046875 187.707031 C 153.457031 187.707031 156.222656 190.457031 156.222656 193.84375 Z M 156.222656 193.84375 " fill-opacity="1" fill-rule="nonzero"/><path fill="#371a45" d="M 156.222656 193.839844 C 156.222656 197.226562 153.457031 199.96875 150.050781 199.96875 C 146.644531 199.96875 143.878906 197.226562 143.878906 193.839844 C 143.878906 193.273438 143.960938 192.71875 144.105469 192.199219 C 144.828125 194.78125 147.21875 196.683594 150.050781 196.683594 C 152.882812 196.683594 155.273438 194.78125 155.996094 192.199219 C 156.140625 192.71875 156.222656 193.273438 156.222656 193.839844 Z M 156.222656 193.839844 " fill-opacity="0.35" fill-rule="nonzero"/><path fill="#371a45" d="M 150.050781 201.285156 C 145.921875 201.285156 142.5625 197.945312 142.5625 193.839844 C 142.5625 189.734375 145.921875 186.394531 150.050781 186.394531 C 154.175781 186.394531 157.535156 189.734375 157.535156 193.839844 C 157.535156 197.945312 154.179688 201.285156 150.050781 201.285156 Z M 150.050781 189.023438 C 147.371094 189.023438 145.195312 191.183594 145.195312 193.839844 C 145.195312 196.496094 147.371094 198.65625 150.050781 198.65625 C 152.726562 198.65625 154.90625 196.496094 154.90625 193.839844 C 154.90625 191.183594 152.726562 189.023438 150.050781 189.023438 Z M 150.050781 189.023438 " fill-opacity="1" fill-rule="nonzero"/><path fill="#371a45" d="M 132.5625 212.804688 C 131.835938 212.804688 131.246094 212.21875 131.246094 211.492188 L 131.246094 200.703125 C 131.246094 198.457031 130.167969 196.308594 128.359375 194.957031 L 127.367188 194.214844 C 124.902344 192.371094 123.429688 189.4375 123.429688 186.371094 L 123.429688 176.1875 C 123.429688 175.464844 124.019531 174.875 124.746094 174.875 C 125.472656 174.875 126.0625 175.464844 126.0625 176.1875 L 126.0625 186.371094 C 126.0625 188.617188 127.140625 190.765625 128.945312 192.113281 L 129.9375 192.855469 C 132.40625 194.703125 133.875 197.632812 133.875 200.703125 L 133.875 211.492188 C 133.878906 212.21875 133.289062 212.804688 132.5625 212.804688 Z M 132.5625 212.804688 " fill-opacity="1" fill-rule="nonzero"/><path fill="#371a45" d="M 114.871094 248.402344 C 107.640625 248.402344 99.648438 247.203125 92.328125 243.445312 C 91.636719 243.089844 91.363281 242.238281 91.71875 241.546875 C 92.078125 240.855469 92.929688 240.582031 93.621094 240.9375 C 112.367188 250.558594 136.84375 242.078125 137.089844 241.992188 C 137.828125 241.730469 138.632812 242.113281 138.894531 242.847656 C 139.15625 243.582031 138.773438 244.390625 138.035156 244.648438 C 137.375 244.882812 127.242188 248.402344 114.871094 248.402344 Z M 114.871094 248.402344 " fill-opacity="1" fill-rule="nonzero"/><path fill="#371a45" d="M 160.238281 248.402344 C 147.863281 248.402344 137.734375 244.882812 137.070312 244.648438 C 136.335938 244.390625 135.953125 243.582031 136.214844 242.847656 C 136.476562 242.113281 137.285156 241.730469 138.019531 241.992188 C 138.265625 242.078125 162.738281 250.558594 181.488281 240.9375 C 182.179688 240.582031 183.03125 240.855469 183.390625 241.546875 C 183.746094 242.238281 183.472656 243.089844 182.78125 243.445312 C 175.460938 247.203125 167.46875 248.402344 160.238281 248.402344 Z M 160.238281 248.402344 " fill-opacity="1" fill-rule="nonzero"/><path fill="#ffffff" d="M 120.347656 229.074219 C 120.347656 229.074219 127.320312 232.054688 137.546875 232.054688 C 147.769531 232.054688 154.78125 229.074219 154.78125 229.074219 C 154.78125 229.074219 150.144531 225.574219 137.546875 225.574219 C 124.945312 225.574219 120.347656 229.074219 120.347656 229.074219 Z M 120.347656 229.074219 " fill-opacity="1" fill-rule="nonzero"/><path fill="#371a45" d="M 120.347656 229.074219 C 120.347656 229.074219 127.320312 232.054688 137.546875 232.054688 C 147.769531 232.054688 154.78125 229.074219 154.78125 229.074219 C 154.78125 229.074219 150.144531 225.574219 137.546875 225.574219 C 124.945312 225.574219 120.347656 229.074219 120.347656 229.074219 Z M 120.347656 229.074219 " fill-opacity="0.25" fill-rule="nonzero"/><path fill="#371a45" d="M 118.046875 228.164062 C 127.6875 230.921875 137.941406 231.542969 147.867188 230.195312 C 151.175781 229.738281 154.535156 229.082031 157.734375 228.152344 C 158.539062 227.921875 159.011719 229.078125 158.25 229.460938 C 147.203125 234.566406 133.949219 234.894531 122.382812 231.390625 C 120.714844 230.851562 119.09375 230.269531 117.488281 229.460938 C 117.140625 229.285156 117 228.863281 117.175781 228.511719 C 117.339844 228.191406 117.714844 228.050781 118.046875 228.164062 Z M 118.046875 228.164062 " fill-opacity="1" fill-rule="nonzero"/><path fill="#371a45" d="M 177.359375 119.929688 C 177.359375 120.753906 177.296875 121.574219 177.175781 122.394531 C 177.054688 123.214844 176.871094 124.027344 176.625 124.835938 C 176.382812 125.644531 176.078125 126.441406 175.714844 127.230469 C 175.351562 128.019531 174.933594 128.796875 174.453125 129.554688 C 173.976562 130.316406 173.441406 131.0625 172.851562 131.789062 C 172.261719 132.515625 171.621094 133.222656 170.925781 133.90625 C 170.234375 134.589844 169.488281 135.253906 168.695312 135.890625 C 167.902344 136.527344 167.066406 137.136719 166.179688 137.71875 C 165.296875 138.300781 164.371094 138.855469 163.40625 139.378906 C 162.4375 139.898438 161.4375 140.390625 160.398438 140.847656 C 159.359375 141.304688 158.285156 141.730469 157.183594 142.117188 C 156.082031 142.503906 154.953125 142.859375 153.796875 143.171875 C 152.644531 143.488281 151.46875 143.765625 150.273438 144.003906 C 149.074219 144.242188 147.863281 144.445312 146.636719 144.605469 C 145.414062 144.765625 144.175781 144.886719 142.933594 144.96875 C 141.6875 145.046875 140.441406 145.089844 139.191406 145.089844 C 137.941406 145.089844 136.695312 145.046875 135.453125 144.96875 C 134.207031 144.886719 132.972656 144.765625 131.746094 144.605469 C 130.519531 144.445312 129.308594 144.242188 128.113281 144.003906 C 126.917969 143.765625 125.742188 143.488281 124.585938 143.171875 C 123.429688 142.859375 122.304688 142.503906 121.199219 142.117188 C 120.097656 141.730469 119.027344 141.304688 117.988281 140.847656 C 116.949219 140.390625 115.945312 139.898438 114.980469 139.378906 C 114.011719 138.855469 113.089844 138.300781 112.203125 137.71875 C 111.320312 137.136719 110.480469 136.527344 109.6875 135.890625 C 108.894531 135.253906 108.152344 134.589844 107.457031 133.90625 C 106.761719 133.222656 106.121094 132.515625 105.53125 131.789062 C 104.941406 131.0625 104.410156 130.316406 103.929688 129.554688 C 103.453125 128.796875 103.03125 128.019531 102.667969 127.230469 C 102.304688 126.441406 102.003906 125.644531 101.757812 124.835938 C 101.515625 124.027344 101.332031 123.214844 101.207031 122.394531 C 101.085938 121.574219 101.023438 120.753906 101.023438 119.929688 C 101.023438 119.105469 101.085938 118.28125 101.207031 117.460938 C 101.332031 116.640625 101.515625 115.828125 101.757812 115.019531 C 102.003906 114.210938 102.304688 113.414062 102.667969 112.625 C 103.03125 111.835938 103.453125 111.0625 103.929688 110.300781 C 104.410156 109.539062 104.941406 108.796875 105.53125 108.066406 C 106.121094 107.339844 106.761719 106.636719 107.457031 105.949219 C 108.152344 105.265625 108.894531 104.605469 109.6875 103.96875 C 110.480469 103.332031 111.320312 102.71875 112.203125 102.136719 C 113.089844 101.554688 114.011719 101.003906 114.980469 100.480469 C 115.945312 99.957031 116.949219 99.46875 117.988281 99.007812 C 119.027344 98.550781 120.097656 98.128906 121.199219 97.738281 C 122.304688 97.351562 123.429688 97 124.585938 96.683594 C 125.742188 96.367188 126.917969 96.089844 128.113281 95.851562 C 129.308594 95.613281 130.519531 95.414062 131.746094 95.253906 C 132.972656 95.089844 134.207031 94.972656 135.453125 94.890625 C 136.695312 94.808594 137.941406 94.769531 139.191406 94.769531 C 140.441406 94.769531 141.6875 94.808594 142.933594 94.890625 C 144.175781 94.972656 145.414062 95.089844 146.636719 95.253906 C 147.863281 95.414062 149.074219 95.613281 150.273438 95.851562 C 151.46875 96.089844 152.644531 96.367188 153.796875 96.683594 C 154.953125 97 156.082031 97.351562 157.183594 97.738281 C 158.285156 98.128906 159.359375 98.550781 160.398438 99.007812 C 161.4375 99.46875 162.4375 99.957031 163.40625 100.480469 C 164.371094 101.003906 165.296875 101.554688 166.179688 102.136719 C 167.066406 102.71875 167.902344 103.332031 168.695312 103.96875 C 169.488281 104.605469 170.234375 105.265625 170.925781 105.949219 C 171.621094 106.636719 172.261719 107.339844 172.851562 108.066406 C 173.441406 108.796875 173.976562 109.539062 174.453125 110.300781 C 174.933594 111.0625 175.351562 111.835938 175.714844 112.625 C 176.078125 113.414062 176.382812 114.210938 176.625 115.019531 C 176.871094 115.828125 177.054688 116.640625 177.175781 117.460938 C 177.296875 118.28125 177.359375 119.105469 177.359375 119.929688 Z M 177.359375 119.929688 " fill-opacity="0.25" fill-rule="nonzero"/><path fill="#bac3ce" d="M 129.769531 159.664062 L 124.113281 159.664062 L 124.113281 147.910156 C 124.113281 146.351562 125.378906 145.085938 126.941406 145.085938 C 128.503906 145.085938 129.769531 146.351562 129.769531 147.910156 Z M 129.769531 159.664062 " fill-opacity="1" fill-rule="nonzero"/><path fill="#bac3ce" d="M 152.621094 159.902344 L 146.96875 159.902344 L 146.96875 148.144531 C 146.96875 146.585938 148.234375 145.320312 149.792969 145.320312 C 151.355469 145.320312 152.621094 146.585938 152.621094 148.144531 Z M 152.621094 159.902344 " fill-opacity="1" fill-rule="nonzero"/><path fill="#371a45" d="M 129.769531 160.839844 L 124.113281 160.839844 C 123.464844 160.839844 122.9375 160.316406 122.9375 159.664062 L 122.9375 147.910156 C 122.9375 145.707031 124.734375 143.910156 126.941406 143.910156 C 129.148438 143.910156 130.945312 145.703125 130.945312 147.910156 L 130.945312 159.664062 C 130.945312 160.316406 130.417969 160.839844 129.769531 160.839844 Z M 125.292969 158.488281 L 128.589844 158.488281 L 128.589844 147.910156 C 128.589844 147 127.851562 146.261719 126.941406 146.261719 C 126.03125 146.261719 125.292969 147 125.292969 147.910156 Z M 125.292969 158.488281 " fill-opacity="1" fill-rule="nonzero"/><path fill="#371a45" d="M 152.621094 161.078125 L 146.96875 161.078125 C 146.316406 161.078125 145.789062 160.550781 145.789062 159.902344 L 145.789062 148.144531 C 145.789062 145.941406 147.585938 144.148438 149.792969 144.148438 C 152.003906 144.148438 153.800781 145.9375 153.800781 148.144531 L 153.800781 159.902344 C 153.800781 160.550781 153.273438 161.078125 152.621094 161.078125 Z M 148.144531 158.726562 L 151.441406 158.726562 L 151.441406 148.144531 C 151.441406 147.238281 150.703125 146.496094 149.792969 146.496094 C 148.886719 146.496094 148.144531 147.238281 148.144531 148.144531 Z M 148.144531 158.726562 " fill-opacity="1" fill-rule="nonzero"/><path fill="#0096f0" d="M 164.164062 170.335938 L 164.164062 183.648438 L 111.863281 183.648438 L 111.863281 170.335938 C 111.863281 168.421875 112.609375 166.59375 113.921875 165.234375 C 114.167969 164.972656 114.433594 164.730469 114.726562 164.503906 L 124.472656 156.976562 C 125.765625 155.972656 127.359375 155.433594 128.996094 155.433594 L 147.03125 155.433594 C 148.667969 155.433594 150.261719 155.972656 151.554688 156.976562 L 161.300781 164.503906 C 162.480469 165.417969 163.339844 166.652344 163.792969 168.035156 C 164.039062 168.769531 164.164062 169.542969 164.164062 170.335938 Z M 164.164062 170.335938 " fill-opacity="1" fill-rule="nonzero"/><path fill="#371a45" d="M 164.164062 185.058594 L 111.863281 185.058594 C 111.082031 185.058594 110.449219 184.429688 110.449219 183.648438 L 110.449219 170.335938 C 110.449219 167.640625 111.726562 165.042969 113.863281 163.390625 L 123.605469 155.859375 C 125.140625 154.675781 127.054688 154.023438 128.996094 154.023438 L 147.03125 154.023438 C 148.972656 154.023438 150.886719 154.675781 152.421875 155.863281 L 162.164062 163.390625 C 164.300781 165.042969 165.578125 167.640625 165.578125 170.335938 L 165.578125 183.648438 C 165.578125 184.429688 164.945312 185.058594 164.164062 185.058594 Z M 113.277344 182.238281 L 162.753906 182.238281 L 162.753906 170.335938 C 162.753906 168.503906 161.886719 166.742188 160.433594 165.621094 L 150.691406 158.09375 C 149.648438 157.285156 148.347656 156.84375 147.03125 156.84375 L 128.996094 156.84375 C 127.679688 156.84375 126.378906 157.285156 125.335938 158.09375 L 115.59375 165.621094 C 114.140625 166.742188 113.277344 168.503906 113.277344 170.335938 Z M 113.277344 182.238281 " fill-opacity="1" fill-rule="nonzero"/><path fill="#ffffff" d="M 148.144531 170.011719 C 148.144531 170.660156 148.082031 171.300781 147.953125 171.9375 C 147.828125 172.574219 147.640625 173.191406 147.390625 173.789062 C 147.144531 174.390625 146.835938 174.960938 146.476562 175.5 C 146.117188 176.039062 145.707031 176.535156 145.246094 176.996094 C 144.785156 177.453125 144.285156 177.863281 143.746094 178.222656 C 143.207031 178.582031 142.636719 178.886719 142.035156 179.136719 C 141.4375 179.382812 140.816406 179.570312 140.179688 179.699219 C 139.542969 179.824219 138.898438 179.886719 138.25 179.886719 C 137.597656 179.886719 136.957031 179.824219 136.320312 179.699219 C 135.679688 179.570312 135.0625 179.382812 134.460938 179.136719 C 133.863281 178.886719 133.292969 178.582031 132.75 178.222656 C 132.210938 177.863281 131.710938 177.453125 131.253906 176.996094 C 130.792969 176.535156 130.382812 176.039062 130.023438 175.5 C 129.660156 174.960938 129.355469 174.390625 129.105469 173.789062 C 128.859375 173.191406 128.671875 172.574219 128.542969 171.9375 C 128.417969 171.300781 128.355469 170.660156 128.355469 170.011719 C 128.355469 169.363281 128.417969 168.722656 128.542969 168.085938 C 128.671875 167.449219 128.859375 166.832031 129.105469 166.234375 C 129.355469 165.632812 129.660156 165.0625 130.023438 164.523438 C 130.382812 163.984375 130.792969 163.488281 131.253906 163.027344 C 131.710938 162.570312 132.210938 162.160156 132.75 161.800781 C 133.292969 161.441406 133.863281 161.136719 134.460938 160.886719 C 135.0625 160.640625 135.679688 160.453125 136.320312 160.324219 C 136.957031 160.199219 137.597656 160.136719 138.25 160.136719 C 138.898438 160.136719 139.542969 160.199219 140.179688 160.324219 C 140.816406 160.453125 141.4375 160.640625 142.035156 160.886719 C 142.636719 161.136719 143.207031 161.441406 143.746094 161.800781 C 144.285156 162.160156 144.785156 162.570312 145.246094 163.027344 C 145.707031 163.488281 146.117188 163.984375 146.476562 164.523438 C 146.835938 165.0625 147.144531 165.632812 147.390625 166.234375 C 147.640625 166.832031 147.828125 167.449219 147.953125 168.085938 C 148.082031 168.722656 148.144531 169.363281 148.144531 170.011719 Z M 148.144531 170.011719 " fill-opacity="1" fill-rule="nonzero"/><path fill="#371a45" d="M 138.25 181.296875 C 132.011719 181.296875 126.941406 176.234375 126.941406 170.011719 C 126.941406 163.789062 132.011719 158.722656 138.25 158.722656 C 144.484375 158.722656 149.558594 163.789062 149.558594 170.011719 C 149.558594 176.234375 144.484375 181.296875 138.25 181.296875 Z M 138.25 161.546875 C 133.574219 161.546875 129.769531 165.34375 129.769531 170.011719 C 129.769531 174.679688 133.574219 178.476562 138.25 178.476562 C 142.925781 178.476562 146.730469 174.679688 146.730469 170.011719 C 146.730469 165.34375 142.925781 161.546875 138.25 161.546875 Z M 138.25 161.546875 " fill-opacity="1" fill-rule="nonzero"/><path fill="#371a45" d="M 164.164062 170.335938 L 164.164062 183.648438 L 111.863281 183.648438 L 111.863281 170.335938 C 111.863281 168.421875 112.609375 166.59375 113.921875 165.234375 C 116.886719 168.457031 120.9375 170.71875 125.167969 171.984375 C 130.902344 173.699219 136.992188 173.789062 142.976562 173.558594 C 145.957031 173.441406 148.945312 173.246094 151.875 172.683594 C 156.089844 171.875 160.144531 170.285156 163.792969 168.035156 C 164.039062 168.769531 164.164062 169.542969 164.164062 170.335938 Z M 164.164062 170.335938 " fill-opacity="0.25" fill-rule="nonzero"/><path fill="#ffffff" d="M 163.695312 186.472656 C 163.789062 186.753906 163.863281 187.035156 163.917969 187.316406 C 164.710938 191.078125 162.65625 195.285156 159.226562 198.988281 C 154.632812 203.957031 148.277344 206.957031 141.539062 207.613281 C 118.039062 209.914062 94.167969 204.835938 81.480469 195.398438 C 75.839844 191.203125 72.265625 184.773438 71.503906 177.796875 C 70.488281 168.585938 73.5 159.136719 78.570312 150.660156 C 85.121094 139.707031 95.113281 130.390625 104.320312 125.335938 L 105.265625 151.203125 C 104 155.957031 103.761719 160.667969 104.617188 165.328125 C 104.992188 167.378906 106.230469 169.167969 107.996094 170.269531 C 112.363281 173.003906 118.792969 174.554688 125.945312 175.691406 C 127.664062 175.964844 129.425781 175.402344 130.644531 174.15625 C 134.75 169.960938 138.417969 167.96875 141.527344 168.699219 C 142.757812 168.992188 143.574219 170.1875 143.464844 171.4375 C 143.285156 173.507812 142.523438 175.601562 142.390625 177.59375 C 142.328125 178.574219 143.128906 179.402344 144.121094 179.378906 L 162.269531 178.988281 C 163.851562 178.953125 165.25 180.09375 165.449219 181.660156 C 165.722656 183.714844 164.832031 185.863281 163.695312 186.472656 Z M 163.695312 186.472656 " fill-opacity="1" fill-rule="nonzero"/><path fill="#371a45" d="M 105.003906 126.570312 C 89.730469 135.28125 75.449219 152.195312 72.996094 169.917969 C 72.046875 177.101562 73.480469 184.664062 78.183594 190.289062 C 84.644531 198.128906 97.898438 202.421875 107.625 204.5 C 116.796875 206.351562 126.273438 207.066406 135.636719 206.609375 C 136.335938 206.59375 137.75 206.511719 138.449219 206.441406 C 142.96875 206.246094 147.601562 205.335938 151.574219 203.132812 C 156.773438 200.367188 164.207031 193.332031 162.355469 186.917969 C 162.128906 186.257812 162.425781 185.542969 163.027344 185.226562 C 163.710938 184.695312 164.109375 183.359375 164.089844 182.441406 C 164.15625 181.539062 163.679688 180.628906 162.71875 180.441406 C 161.101562 180.339844 149.652344 180.714844 147.753906 180.714844 C 146.976562 180.714844 144.453125 180.824219 143.742188 180.773438 C 142.199219 180.628906 140.925781 179.21875 140.976562 177.65625 C 141.058594 175.664062 141.773438 173.585938 142 171.679688 C 142.09375 171.164062 142.027344 170.597656 141.574219 170.277344 C 141.15625 169.976562 140.246094 169.960938 139.660156 170.035156 C 137.160156 170.355469 134.617188 172.398438 132.710938 174.214844 C 131.902344 174.984375 131.109375 175.910156 130.082031 176.433594 C 128.671875 177.207031 126.988281 177.433594 125.417969 177.128906 C 124.921875 177.046875 123.636719 176.828125 123.128906 176.738281 C 119.0625 176 114.972656 175.09375 111.03125 173.4375 C 106.164062 171.40625 103.285156 169.054688 103.015625 163.464844 C 102.632812 159.230469 103.25 154.9375 104.804688 151.078125 C 105.03125 150.570312 105.792969 150.757812 105.730469 151.324219 C 105.09375 156.253906 104.945312 161.164062 106.1875 165.878906 C 106.742188 167.539062 107.984375 168.726562 109.539062 169.515625 C 112.121094 170.910156 114.917969 171.789062 117.789062 172.519531 C 120.421875 173.199219 123.195312 173.722656 125.898438 174.160156 C 128.035156 174.621094 129.289062 173.496094 130.664062 172.0625 C 132.253906 170.574219 133.953125 169.210938 135.945312 168.214844 C 137.808594 167.285156 140.128906 166.746094 142.242188 167.410156 C 143.960938 167.992188 145.085938 169.820312 144.890625 171.605469 C 144.699219 173.742188 143.984375 175.613281 143.8125 177.675781 C 143.785156 177.816406 143.929688 177.980469 144.085938 177.96875 C 144.097656 177.972656 144.199219 177.96875 144.25 177.96875 L 144.632812 177.960938 C 147.832031 177.890625 158.199219 177.667969 161.464844 177.59375 C 161.957031 177.582031 162.816406 177.542969 163.324219 177.683594 C 165.136719 178.046875 166.65625 179.648438 166.863281 181.515625 C 167.0625 183.839844 166.519531 186.34375 164.367188 187.714844 C 164.367188 187.714844 165.039062 186.027344 165.039062 186.027344 C 165.394531 187.09375 165.539062 188.226562 165.496094 189.324219 C 165.367188 192.511719 163.859375 195.417969 161.988281 197.894531 C 156.402344 205.277344 147.777344 208.992188 138.652344 209.257812 C 137.933594 209.328125 136.492188 209.410156 135.769531 209.429688 C 134.332031 209.511719 131.441406 209.574219 130 209.558594 C 114.90625 209.472656 98.574219 206.855469 85.238281 199.480469 C 73.675781 193.328125 68.539062 182.40625 70.195312 169.570312 C 71.734375 157.929688 77.988281 147.347656 85.675781 138.726562 C 90.859375 132.96875 96.855469 127.886719 103.644531 124.101562 C 105.320312 123.25 106.617188 125.628906 105.003906 126.570312 Z M 105.003906 126.570312 " fill-opacity="1" fill-rule="nonzero"/><path fill="#371a45" d="M 165.773438 186.257812 C 162.371094 189.527344 157.253906 189.503906 152.855469 189.355469 C 151.425781 189.296875 150.007812 189.117188 148.605469 188.953125 C 148.269531 188.914062 148.03125 188.613281 148.070312 188.28125 C 148.105469 187.988281 148.34375 187.769531 148.628906 187.75 C 151.398438 187.53125 154.15625 187.316406 156.878906 186.832031 C 158.839844 186.457031 160.664062 185.960938 162.398438 185.082031 C 163.003906 184.796875 163.503906 184.390625 164.070312 184.046875 C 165.5 183.21875 166.9375 185.097656 165.773438 186.257812 Z M 165.773438 186.257812 " fill-opacity="1" fill-rule="nonzero"/><path fill="#371a45" d="M 89.84375 201.691406 C 89.160156 201.691406 88.5625 201.199219 88.449219 200.507812 C 86.296875 187.242188 98.484375 171.644531 109.152344 169.683594 C 109.917969 169.542969 110.65625 170.046875 110.796875 170.816406 C 110.9375 171.582031 110.429688 172.316406 109.664062 172.457031 C 100.363281 174.167969 89.347656 188.394531 91.238281 200.058594 C 91.363281 200.828125 90.839844 201.550781 90.070312 201.675781 C 89.992188 201.6875 89.917969 201.691406 89.84375 201.691406 Z M 89.84375 201.691406 " fill-opacity="1" fill-rule="nonzero"/><path fill="#371a45" d="M 159.226562 198.988281 C 154.632812 203.957031 148.277344 206.957031 141.539062 207.613281 C 118.039062 209.914062 94.167969 204.835938 81.480469 195.398438 C 75.839844 191.203125 72.265625 184.773438 71.503906 177.796875 C 70.492188 168.585938 73.5 159.136719 78.570312 150.660156 C 77.367188 153.261719 76.34375 155.941406 75.683594 158.730469 C 74.523438 163.617188 74.539062 168.914062 76.589844 173.507812 C 79.523438 180.082031 86.082031 184.246094 92.589844 187.355469 C 106.742188 194.128906 122.382812 197.773438 138.078125 197.949219 C 144.015625 198.023438 150.132812 197.554688 155.484375 194.988281 C 158.949219 193.328125 162.050781 190.625 163.921875 187.316406 C 164.710938 191.078125 162.660156 195.28125 159.226562 198.988281 Z M 159.226562 198.988281 " fill-opacity="0.25" fill-rule="nonzero"/><path fill="#ffffff" d="M 199.769531 100.632812 C 194.550781 110.761719 186.730469 119.640625 176.710938 126.210938 C 174.667969 127.550781 172.539062 128.796875 170.324219 129.933594 C 169.246094 130.488281 168.140625 131.015625 167.015625 131.527344 C 163.621094 133.050781 160.164062 134.28125 156.671875 135.222656 C 153.667969 136.042969 150.628906 136.648438 147.59375 137.050781 C 143.929688 137.542969 140.257812 137.730469 136.617188 137.636719 C 135.289062 137.597656 133.964844 137.527344 132.644531 137.417969 C 108.511719 135.410156 86.097656 120.984375 75.253906 97.746094 C 59.269531 63.519531 74.445312 23.15625 109.136719 7.585938 C 115.820312 4.589844 122.746094 2.722656 129.679688 1.925781 C 130.488281 1.824219 131.304688 1.746094 132.121094 1.6875 C 134.300781 1.507812 136.480469 1.433594 138.648438 1.464844 C 143.667969 1.53125 148.640625 2.140625 153.472656 3.257812 C 158.304688 4.363281 163.011719 5.984375 167.492188 8.078125 C 168.917969 8.742188 170.320312 9.453125 171.699219 10.214844 C 173.769531 11.359375 175.78125 12.597656 177.734375 13.957031 C 187.464844 20.683594 195.578125 29.960938 200.898438 41.367188 C 210.09375 61.054688 208.976562 82.769531 199.769531 100.632812 Z M 199.769531 100.632812 " fill-opacity="1" fill-rule="nonzero"/><path fill="#371a45" d="M 75.253906 97.746094 C 86.097656 120.984375 108.511719 135.410156 132.644531 137.417969 C 133.964844 137.527344 135.289062 137.597656 136.613281 137.636719 C 140.257812 137.730469 143.929688 137.539062 147.59375 137.050781 C 150.628906 136.644531 153.664062 136.042969 156.671875 135.226562 C 160.164062 134.28125 163.617188 133.054688 167.015625 131.53125 C 168.140625 131.015625 169.246094 130.488281 170.324219 129.933594 C 172.542969 128.796875 174.667969 127.550781 176.710938 126.210938 C 186.730469 119.640625 194.550781 110.765625 199.773438 100.632812 C 202.640625 95.066406 204.726562 89.125 205.957031 82.988281 C 200.75 92.542969 193.191406 100.90625 183.632812 107.175781 C 181.59375 108.519531 179.464844 109.761719 177.246094 110.898438 C 176.171875 111.453125 175.066406 111.980469 173.941406 112.496094 C 170.539062 114.019531 167.085938 115.246094 163.597656 116.191406 C 160.589844 117.007812 157.554688 117.613281 154.519531 118.019531 C 150.855469 118.503906 147.179688 118.695312 143.542969 118.601562 C 142.210938 118.5625 140.886719 118.488281 139.566406 118.382812 C 115.433594 116.375 93.023438 101.949219 82.175781 78.707031 C 75.84375 65.152344 74.40625 50.636719 77.128906 37.078125 C 67.242188 55.203125 65.816406 77.542969 75.253906 97.746094 Z M 75.253906 97.746094 " fill-opacity="0.25" fill-rule="nonzero"/><path fill="#371a45" d="M 138.398438 138.925781 C 137.792969 138.925781 137.1875 138.917969 136.582031 138.902344 C 135.234375 138.863281 133.875 138.789062 132.542969 138.679688 C 107.136719 136.566406 84.746094 121.085938 74.105469 98.28125 C 66.261719 81.488281 65.492188 62.710938 71.9375 45.410156 C 78.433594 27.976562 91.460938 14.132812 108.617188 6.429688 C 115.3125 3.433594 122.347656 1.492188 129.535156 0.667969 C 130.308594 0.570312 131.148438 0.488281 132.027344 0.425781 C 134.226562 0.246094 136.464844 0.167969 138.667969 0.199219 C 143.722656 0.265625 148.800781 0.878906 153.757812 2.023438 C 158.667969 3.148438 163.46875 4.800781 168.027344 6.929688 C 169.488281 7.613281 170.929688 8.34375 172.3125 9.105469 C 174.457031 10.292969 176.523438 11.574219 178.457031 12.917969 C 188.65625 19.96875 196.816406 29.621094 202.046875 40.832031 C 211.101562 60.214844 210.683594 82.222656 200.898438 101.210938 C 195.472656 111.738281 187.347656 120.746094 177.40625 127.269531 C 175.300781 128.648438 173.113281 129.921875 170.902344 131.054688 C 169.886719 131.578125 168.789062 132.109375 167.539062 132.679688 C 164.125 134.210938 160.582031 135.476562 157.003906 136.445312 C 154.003906 137.261719 150.894531 137.886719 147.761719 138.304688 C 144.683594 138.71875 141.542969 138.925781 138.398438 138.925781 Z M 137.757812 2.722656 C 135.917969 2.722656 134.0625 2.800781 132.222656 2.949219 C 131.382812 3.011719 130.578125 3.089844 129.835938 3.183594 C 122.898438 3.980469 116.113281 5.847656 109.65625 8.738281 C 93.125 16.160156 80.570312 29.496094 74.3125 46.292969 C 68.105469 62.953125 68.847656 81.035156 76.402344 97.210938 C 86.664062 119.195312 108.253906 134.117188 132.75 136.15625 C 134.035156 136.261719 135.351562 136.335938 136.652344 136.371094 C 140.261719 136.464844 143.886719 136.269531 147.425781 135.796875 C 150.449219 135.394531 153.445312 134.792969 156.335938 134.003906 C 159.789062 133.070312 163.207031 131.847656 166.496094 130.375 C 167.695312 129.828125 168.761719 129.3125 169.738281 128.808594 C 171.875 127.710938 173.984375 126.484375 176.015625 125.15625 C 185.589844 118.871094 193.417969 110.195312 198.640625 100.054688 C 208.066406 81.769531 208.46875 60.570312 199.75 41.902344 C 194.707031 31.097656 186.84375 21.796875 177.007812 15 C 175.144531 13.703125 173.152344 12.46875 171.085938 11.324219 C 169.753906 10.589844 168.363281 9.882812 166.953125 9.226562 C 162.554688 7.171875 157.921875 5.578125 153.1875 4.492188 C 148.40625 3.390625 143.507812 2.796875 138.632812 2.730469 C 138.339844 2.726562 138.050781 2.722656 137.757812 2.722656 Z M 199.769531 100.632812 L 199.777344 100.632812 Z M 199.769531 100.632812 " fill-opacity="1" fill-rule="nonzero"/><path fill="#371a45" d="M 138.398438 139.070312 C 137.792969 139.070312 137.1875 139.0625 136.578125 139.046875 C 135.226562 139.007812 133.867188 138.933594 132.53125 138.824219 C 107.074219 136.707031 84.636719 121.195312 73.972656 98.34375 C 66.113281 81.511719 65.339844 62.695312 71.800781 45.359375 C 78.3125 27.886719 91.363281 14.015625 108.558594 6.296875 C 115.265625 3.292969 122.316406 1.351562 129.519531 0.523438 C 130.292969 0.429688 131.136719 0.34375 132.015625 0.28125 C 134.222656 0.101562 136.464844 0.0273438 138.667969 0.0507812 C 143.738281 0.121094 148.824219 0.734375 153.792969 1.882812 C 158.710938 3.011719 163.523438 4.667969 168.089844 6.800781 C 169.554688 7.484375 171 8.214844 172.382812 8.980469 C 174.535156 10.167969 176.605469 11.453125 178.539062 12.796875 C 188.761719 19.863281 196.9375 29.535156 202.183594 40.769531 C 211.253906 60.195312 210.835938 82.25 201.027344 101.277344 C 195.59375 111.824219 187.453125 120.855469 177.488281 127.390625 C 175.378906 128.769531 173.1875 130.046875 170.96875 131.183594 C 169.953125 131.710938 168.851562 132.242188 167.601562 132.8125 C 164.179688 134.347656 160.628906 135.613281 157.042969 136.585938 C 154.039062 137.402344 150.921875 138.03125 147.78125 138.449219 C 144.699219 138.863281 141.550781 139.070312 138.398438 139.070312 Z M 137.757812 2.867188 C 135.921875 2.867188 134.070312 2.945312 132.234375 3.09375 C 131.394531 3.15625 130.597656 3.234375 129.855469 3.324219 C 122.929688 4.121094 116.160156 5.984375 109.71875 8.871094 C 93.21875 16.277344 80.695312 29.582031 74.449219 46.34375 C 68.257812 62.964844 68.996094 81.007812 76.535156 97.152344 C 86.773438 119.085938 108.316406 133.976562 132.761719 136.011719 C 134.046875 136.117188 135.359375 136.1875 136.65625 136.226562 C 140.257812 136.320312 143.878906 136.125 147.40625 135.652344 C 150.421875 135.25 153.414062 134.648438 156.300781 133.863281 C 159.746094 132.933594 163.152344 131.714844 166.433594 130.242188 C 167.632812 129.695312 168.695312 129.183594 169.671875 128.679688 C 171.804688 127.585938 173.910156 126.359375 175.933594 125.035156 C 185.492188 118.765625 193.300781 110.105469 198.511719 99.988281 C 207.914062 81.742188 208.316406 60.59375 199.617188 41.960938 C 194.585938 31.183594 186.742188 21.898438 176.925781 15.117188 C 175.066406 13.824219 173.078125 12.589844 171.015625 11.449219 C 169.6875 10.714844 168.300781 10.011719 166.894531 9.355469 C 162.503906 7.308594 157.882812 5.71875 153.15625 4.632812 C 148.382812 3.53125 143.496094 2.941406 138.632812 2.875 C 138.339844 2.871094 138.046875 2.867188 137.757812 2.867188 Z M 199.769531 100.632812 L 199.777344 100.632812 Z M 199.769531 100.632812 " fill-opacity="1" fill-rule="nonzero"/><path fill="#371a45" d="M 189.804688 115.015625 C 150.089844 143.804688 94.425781 125.199219 90.152344 77.171875 C 87.246094 44.496094 117.492188 16.617188 149.542969 16.023438 C 172.867188 15.59375 195.882812 25.21875 206.625 60.675781 C 206.625 60.675781 208.921875 77.082031 204.707031 88.140625 C 200.488281 99.195312 194.484375 109.234375 194.484375 109.234375 Z M 189.804688 115.015625 " fill-opacity="1" fill-rule="nonzero"/><path fill="#220f2d" d="M 90.15625 77.171875 C 94.425781 125.199219 150.09375 143.804688 189.804688 115.015625 L 190.753906 113.84375 C 146.40625 122.695312 101.246094 97.441406 96.011719 48.957031 C 91.515625 57.460938 89.257812 67.085938 90.15625 77.171875 Z M 90.15625 77.171875 " fill-opacity="1" fill-rule="nonzero"/><path fill="#371a45" d="M 148.578125 137.296875 C 132.019531 137.296875 116.125 131.898438 104.015625 121.988281 C 90.734375 111.117188 82.871094 95.878906 81.269531 77.910156 C 79.800781 61.410156 85.605469 44.976562 97.613281 31.632812 C 110.949219 16.816406 130.394531 7.757812 149.625 7.402344 C 160.3125 7.207031 169.984375 8.902344 178.371094 12.453125 L 178.527344 12.519531 L 178.664062 12.613281 C 188.921875 19.703125 197.125 29.40625 202.382812 40.675781 C 211.484375 60.164062 211.0625 82.289062 201.226562 101.378906 C 195.773438 111.960938 187.605469 121.019531 177.609375 127.574219 C 175.492188 128.960938 173.292969 130.242188 171.070312 131.382812 C 170.050781 131.910156 168.945312 132.441406 167.691406 133.011719 C 164.257812 134.554688 160.695312 135.828125 157.097656 136.796875 L 156.847656 136.847656 C 154.082031 137.148438 151.320312 137.296875 148.578125 137.296875 Z M 151.28125 10.652344 C 150.75 10.652344 150.21875 10.65625 149.683594 10.667969 C 131.347656 11.003906 112.789062 19.660156 100.046875 33.816406 C 88.652344 46.476562 83.144531 62.03125 84.53125 77.621094 C 86.050781 94.691406 93.507812 109.160156 106.089844 119.460938 C 119.5 130.4375 137.820312 135.589844 156.367188 133.613281 C 159.757812 132.691406 163.113281 131.488281 166.34375 130.039062 C 167.539062 129.492188 168.597656 128.984375 169.570312 128.480469 C 171.695312 127.390625 173.796875 126.167969 175.8125 124.847656 C 185.335938 118.601562 193.121094 109.96875 198.316406 99.886719 C 207.6875 81.699219 208.089844 60.621094 199.417969 42.054688 C 194.425781 31.359375 186.65625 22.144531 176.941406 15.394531 C 169.429688 12.246094 160.804688 10.652344 151.28125 10.652344 Z M 199.769531 100.632812 L 199.777344 100.632812 Z M 199.769531 100.632812 " fill-opacity="1" fill-rule="nonzero"/><path fill="#ffffff" d="M 59.40625 74.878906 C 58.953125 88.296875 66.625 99.847656 76.542969 100.675781 C 86.460938 101.503906 94.867188 91.292969 95.320312 77.875 C 95.324219 77.789062 95.324219 77.699219 95.324219 77.617188 C 95.675781 64.308594 88.035156 52.898438 78.1875 52.078125 C 70.523438 51.4375 63.765625 57.382812 60.875 66.308594 C 60.023438 68.933594 59.511719 71.824219 59.40625 74.878906 Z M 59.40625 74.878906 " fill-opacity="1" fill-rule="nonzero"/><path fill="#371a45" d="M 59.40625 74.878906 C 58.953125 88.296875 66.625 99.847656 76.542969 100.675781 C 86.460938 101.503906 94.867188 91.292969 95.320312 77.875 C 95.324219 77.789062 95.324219 77.699219 95.324219 77.617188 C 94.1875 78.902344 92.445312 80.117188 90.160156 79.46875 C 86.164062 78.328125 79.226562 69.097656 79.226562 69.097656 C 79.226562 69.097656 71.277344 67.835938 60.875 66.308594 C 60.023438 68.933594 59.511719 71.824219 59.40625 74.878906 Z M 59.40625 74.878906 " fill-opacity="0.25" fill-rule="nonzero"/><path fill="#371a45" d="M 77.683594 102.355469 C 77.257812 102.355469 76.832031 102.335938 76.40625 102.300781 C 65.648438 101.40625 57.289062 89.078125 57.769531 74.824219 C 58.046875 66.589844 61.144531 59.261719 66.265625 54.714844 C 69.820312 51.5625 73.992188 50.089844 78.320312 50.449219 C 89.078125 51.34375 97.4375 63.671875 96.957031 77.929688 C 96.679688 86.160156 93.582031 93.488281 88.457031 98.035156 C 85.253906 100.875 81.554688 102.355469 77.683594 102.355469 Z M 77.058594 53.660156 C 73.992188 53.660156 71.03125 54.859375 68.441406 57.15625 C 64.050781 61.054688 61.285156 67.699219 61.039062 74.933594 C 60.617188 87.476562 67.632812 98.292969 76.679688 99.046875 C 80.097656 99.332031 83.417969 98.136719 86.285156 95.59375 C 90.671875 91.695312 93.441406 85.050781 93.683594 77.816406 C 94.109375 65.273438 87.09375 54.457031 78.046875 53.703125 C 77.71875 53.675781 77.386719 53.660156 77.058594 53.660156 Z M 59.40625 74.878906 L 59.410156 74.878906 Z M 59.40625 74.878906 " fill-opacity="1" fill-rule="nonzero"/><path fill="#ffffff" d="M 86.113281 77.28125 C 86.152344 77.914062 86.167969 78.546875 86.164062 79.175781 C 86.15625 79.808594 86.125 80.4375 86.070312 81.0625 C 86.015625 81.6875 85.9375 82.308594 85.835938 82.921875 C 85.734375 83.535156 85.609375 84.136719 85.464844 84.734375 C 85.316406 85.328125 85.148438 85.910156 84.957031 86.484375 C 84.765625 87.054688 84.554688 87.609375 84.320312 88.152344 C 84.089844 88.695312 83.835938 89.21875 83.5625 89.726562 C 83.289062 90.234375 82.996094 90.722656 82.6875 91.1875 C 82.375 91.65625 82.046875 92.101562 81.703125 92.527344 C 81.359375 92.949219 80.996094 93.351562 80.621094 93.726562 C 80.246094 94.101562 79.855469 94.453125 79.453125 94.777344 C 79.050781 95.101562 78.632812 95.398438 78.207031 95.667969 C 77.78125 95.9375 77.34375 96.175781 76.898438 96.386719 C 76.449219 96.601562 75.996094 96.78125 75.535156 96.933594 C 75.074219 97.085938 74.605469 97.210938 74.132812 97.300781 C 73.660156 97.390625 73.183594 97.453125 72.707031 97.484375 C 72.226562 97.511719 71.75 97.511719 71.269531 97.480469 C 70.789062 97.445312 70.308594 97.382812 69.832031 97.289062 C 69.355469 97.195312 68.882812 97.070312 68.414062 96.914062 C 67.945312 96.761719 67.480469 96.578125 67.023438 96.363281 C 66.566406 96.148438 66.117188 95.90625 65.675781 95.632812 C 65.234375 95.363281 64.804688 95.0625 64.386719 94.734375 C 63.964844 94.410156 63.558594 94.058594 63.164062 93.679688 C 62.769531 93.300781 62.386719 92.902344 62.023438 92.476562 C 61.65625 92.050781 61.304688 91.601562 60.972656 91.132812 C 60.636719 90.664062 60.320312 90.171875 60.023438 89.664062 C 59.722656 89.15625 59.445312 88.628906 59.183594 88.085938 C 58.921875 87.542969 58.683594 86.984375 58.464844 86.414062 C 58.242188 85.839844 58.046875 85.257812 57.867188 84.660156 C 57.691406 84.0625 57.539062 83.460938 57.40625 82.84375 C 57.273438 82.230469 57.164062 81.613281 57.078125 80.984375 C 56.992188 80.359375 56.929688 79.730469 56.890625 79.097656 C 56.851562 78.46875 56.835938 77.835938 56.84375 77.203125 C 56.851562 76.570312 56.882812 75.941406 56.9375 75.316406 C 56.992188 74.691406 57.066406 74.074219 57.167969 73.460938 C 57.269531 72.847656 57.394531 72.242188 57.542969 71.648438 C 57.6875 71.050781 57.855469 70.46875 58.046875 69.898438 C 58.238281 69.324219 58.449219 68.769531 58.683594 68.226562 C 58.917969 67.6875 59.167969 67.160156 59.441406 66.652344 C 59.714844 66.144531 60.007812 65.660156 60.316406 65.191406 C 60.628906 64.722656 60.957031 64.277344 61.300781 63.851562 C 61.644531 63.429688 62.007812 63.03125 62.382812 62.652344 C 62.757812 62.277344 63.148438 61.929688 63.550781 61.605469 C 63.957031 61.28125 64.371094 60.984375 64.796875 60.714844 C 65.222656 60.445312 65.660156 60.203125 66.109375 59.992188 C 66.554688 59.78125 67.007812 59.597656 67.46875 59.445312 C 67.933594 59.292969 68.398438 59.171875 68.871094 59.078125 C 69.34375 58.988281 69.820312 58.925781 70.296875 58.898438 C 70.777344 58.867188 71.253906 58.871094 71.734375 58.902344 C 72.214844 58.933594 72.695312 58.996094 73.171875 59.089844 C 73.648438 59.183594 74.121094 59.308594 74.589844 59.464844 C 75.0625 59.621094 75.523438 59.804688 75.980469 60.019531 C 76.4375 60.234375 76.886719 60.476562 77.328125 60.746094 C 77.769531 61.019531 78.199219 61.316406 78.617188 61.644531 C 79.039062 61.96875 79.445312 62.324219 79.839844 62.699219 C 80.234375 63.078125 80.617188 63.480469 80.984375 63.90625 C 81.347656 64.332031 81.699219 64.777344 82.035156 65.25 C 82.367188 65.71875 82.683594 66.207031 82.984375 66.714844 C 83.28125 67.226562 83.5625 67.75 83.820312 68.292969 C 84.082031 68.835938 84.320312 69.394531 84.542969 69.96875 C 84.761719 70.539062 84.957031 71.125 85.136719 71.71875 C 85.3125 72.316406 85.464844 72.921875 85.597656 73.535156 C 85.730469 74.148438 85.839844 74.769531 85.925781 75.394531 C 86.011719 76.019531 86.074219 76.648438 86.113281 77.28125 Z M 86.113281 77.28125 " fill-opacity="1" fill-rule="nonzero"/><path fill="#371a45" d="M 85.054688 86.882812 C 86.082031 83.367188 86.128906 79.558594 85.378906 75.953125 C 82.351562 83.769531 74.925781 86.726562 68.164062 82.523438 C 63.792969 79.808594 60.707031 74.722656 59.546875 69.144531 C 59.351562 69.636719 59.179688 70.152344 59.027344 70.6875 C 56.417969 79.636719 60.128906 90.515625 67.316406 94.988281 C 74.507812 99.460938 82.445312 95.828125 85.054688 86.882812 Z M 85.054688 86.882812 " fill-opacity="0.25" fill-rule="nonzero"/><path fill="#371a45" d="M 71.722656 99.167969 C 71.382812 99.167969 71.042969 99.152344 70.703125 99.121094 C 62.386719 98.363281 55.90625 88.167969 56.253906 76.394531 C 56.464844 69.414062 59.058594 63.0625 63.195312 59.402344 C 65.867188 57.039062 68.976562 55.949219 72.183594 56.242188 C 80.503906 57 86.984375 67.195312 86.632812 78.96875 C 86.425781 85.949219 83.832031 92.300781 79.695312 95.960938 C 77.304688 98.070312 74.570312 99.167969 71.722656 99.167969 Z M 71.183594 59.460938 C 69.140625 59.460938 67.144531 60.277344 65.367188 61.847656 C 61.890625 64.917969 59.710938 70.394531 59.527344 76.492188 C 59.226562 86.574219 64.375 95.265625 71.003906 95.867188 C 73.289062 96.078125 75.546875 95.261719 77.523438 93.511719 C 81 90.441406 83.183594 84.96875 83.363281 78.871094 C 83.664062 68.789062 78.515625 60.097656 71.886719 59.492188 C 71.652344 59.472656 71.417969 59.460938 71.183594 59.460938 Z M 71.183594 59.460938 " fill-opacity="1" fill-rule="nonzero"/><path fill="#ffffff" d="M 131.46875 32.121094 C 131.46875 32.121094 161.800781 33.464844 178.871094 50.320312 C 178.886719 50.339844 178.90625 50.355469 178.921875 50.375 C 182.511719 53.925781 185.066406 58.367188 186.347656 63.207031 C 188.042969 69.609375 188.257812 74.261719 188.289062 78.363281 C 188.375 90.839844 186.042969 96.6875 186.042969 96.6875 C 193.207031 90.082031 197.21875 82.589844 197.25 72.199219 C 197.253906 71.175781 197.214844 70.117188 197.140625 69.035156 C 197.125 68.785156 197.101562 68.539062 197.078125 68.289062 C 197.082031 68.289062 197.082031 68.28125 197.074219 68.277344 C 196.765625 66.089844 196.253906 63.234375 195.40625 60.058594 C 192.84375 50.480469 187.230469 37.988281 174.976562 32.210938 C 152.0625 21.410156 130.414062 30.820312 131.46875 32.121094 Z M 131.46875 32.121094 " fill-opacity="0.5" fill-rule="nonzero"/><g mask="url(#4d82d67c15)"><g transform="matrix(1, 0, 0, 1, 100, 49)"><g clip-path="url(#4ad7cb903f)"><path fill="#ffffff" d="M 15.4375 3.304688 C 16.023438 3.464844 16.585938 3.6875 17.125 3.976562 C 17.664062 4.265625 18.167969 4.609375 18.640625 5.015625 C 19.109375 5.417969 19.539062 5.875 19.921875 6.378906 C 20.308594 6.886719 20.640625 7.433594 20.925781 8.019531 C 21.210938 8.609375 21.4375 9.226562 21.609375 9.875 C 21.78125 10.519531 21.894531 11.183594 21.949219 11.867188 C 22.003906 12.546875 22 13.234375 21.933594 13.921875 C 21.867188 14.613281 21.742188 15.292969 21.558594 15.964844 C 21.375 16.636719 21.132812 17.285156 20.839844 17.914062 C 20.542969 18.542969 20.199219 19.132812 19.804688 19.695312 C 19.414062 20.253906 18.976562 20.765625 18.496094 21.238281 C 18.019531 21.707031 17.507812 22.121094 16.964844 22.484375 C 16.417969 22.847656 15.851562 23.148438 15.261719 23.386719 C 14.675781 23.628906 14.074219 23.800781 13.460938 23.910156 C 12.851562 24.019531 12.238281 24.0625 11.628906 24.035156 C 11.019531 24.011719 10.421875 23.917969 9.835938 23.757812 C 9.25 23.597656 8.6875 23.375 8.148438 23.085938 C 7.609375 22.800781 7.105469 22.453125 6.636719 22.046875 C 6.164062 21.644531 5.738281 21.1875 5.351562 20.683594 C 4.96875 20.175781 4.632812 19.628906 4.347656 19.042969 C 4.0625 18.453125 3.835938 17.835938 3.664062 17.191406 C 3.492188 16.542969 3.378906 15.878906 3.324219 15.195312 C 3.269531 14.515625 3.277344 13.828125 3.339844 13.140625 C 3.40625 12.449219 3.53125 11.769531 3.714844 11.097656 C 3.902344 10.425781 4.140625 9.777344 4.433594 9.148438 C 4.730469 8.523438 5.074219 7.929688 5.46875 7.371094 C 5.863281 6.808594 6.296875 6.296875 6.777344 5.828125 C 7.253906 5.355469 7.765625 4.941406 8.308594 4.578125 C 8.855469 4.21875 9.421875 3.917969 10.011719 3.675781 C 10.597656 3.4375 11.199219 3.261719 11.8125 3.152344 C 12.421875 3.042969 13.035156 3 13.644531 3.027344 C 14.253906 3.050781 14.851562 3.144531 15.4375 3.304688 Z M 15.4375 3.304688 " fill-opacity="1" fill-rule="nonzero"/></g></g></g><g mask="url(#1b5d49d56e)"><g transform="matrix(1, 0, 0, 1, 102, 75)"><g clip-path="url(#e9dc4748fc)"><path fill="#ffffff" d="M 7.25 2.058594 C 7.484375 2.144531 7.707031 2.257812 7.917969 2.398438 C 8.128906 2.535156 8.320312 2.699219 8.5 2.882812 C 8.675781 3.066406 8.835938 3.269531 8.972656 3.492188 C 9.113281 3.714844 9.230469 3.953125 9.324219 4.207031 C 9.417969 4.460938 9.488281 4.722656 9.535156 4.996094 C 9.578125 5.265625 9.601562 5.546875 9.597656 5.828125 C 9.59375 6.109375 9.5625 6.390625 9.511719 6.671875 C 9.457031 6.953125 9.378906 7.230469 9.277344 7.496094 C 9.175781 7.765625 9.050781 8.023438 8.90625 8.273438 C 8.761719 8.519531 8.597656 8.75 8.414062 8.964844 C 8.230469 9.179688 8.03125 9.375 7.816406 9.550781 C 7.601562 9.722656 7.375 9.875 7.136719 10.003906 C 6.902344 10.132812 6.65625 10.234375 6.40625 10.308594 C 6.152344 10.386719 5.898438 10.433594 5.644531 10.457031 C 5.386719 10.476562 5.136719 10.472656 4.886719 10.4375 C 4.636719 10.402344 4.394531 10.34375 4.160156 10.253906 C 3.925781 10.167969 3.703125 10.054688 3.492188 9.914062 C 3.28125 9.777344 3.085938 9.613281 2.910156 9.429688 C 2.730469 9.246094 2.574219 9.042969 2.433594 8.820312 C 2.296875 8.597656 2.179688 8.359375 2.085938 8.105469 C 1.992188 7.851562 1.921875 7.589844 1.875 7.316406 C 1.828125 7.046875 1.808594 6.769531 1.8125 6.484375 C 1.816406 6.203125 1.847656 5.921875 1.898438 5.640625 C 1.953125 5.359375 2.03125 5.082031 2.132812 4.816406 C 2.234375 4.546875 2.355469 4.289062 2.503906 4.039062 C 2.648438 3.792969 2.8125 3.5625 2.996094 3.347656 C 3.179688 3.132812 3.378906 2.9375 3.59375 2.761719 C 3.808594 2.589844 4.035156 2.4375 4.273438 2.308594 C 4.507812 2.179688 4.753906 2.078125 5.003906 2.003906 C 5.257812 1.925781 5.511719 1.878906 5.765625 1.855469 C 6.019531 1.835938 6.273438 1.839844 6.523438 1.875 C 6.773438 1.910156 7.015625 1.96875 7.25 2.058594 Z M 7.25 2.058594 " fill-opacity="1" fill-rule="nonzero"/></g></g></g><path fill="#0096f0" d="M 197.753906 124.058594 C 196.207031 123.863281 194.605469 123.5625 192.941406 123.160156 C 191.523438 122.816406 190.5625 121.503906 190.675781 120.054688 C 191.183594 113.464844 193.152344 106.96875 195.355469 100.203125 C 195.835938 98.71875 197.320312 97.785156 198.867188 98 C 200.5 98.230469 202.085938 98.410156 203.628906 98.515625 C 204.8125 98.609375 205.964844 98.65625 207.082031 98.664062 C 208.894531 98.671875 210.390625 97.234375 210.453125 95.421875 L 210.8125 85.835938 L 222.121094 94.769531 C 223.777344 116.246094 214.164062 126.117188 197.753906 124.058594 Z M 197.753906 124.058594 " fill-opacity="1" fill-rule="nonzero"/><path fill="#ffffff" d="M 195.804688 124.0625 C 194.65625 123.8125 193.46875 123.453125 192.246094 122.988281 C 191.199219 122.589844 190.542969 121.246094 190.699219 119.800781 C 191.410156 113.242188 193.210938 106.824219 195.195312 100.152344 C 195.628906 98.683594 196.785156 97.804688 197.9375 98.078125 C 199.148438 98.371094 200.328125 98.605469 201.480469 98.773438 C 201.558594 106.285156 198.613281 118.308594 195.804688 124.0625 Z M 195.804688 124.0625 " fill-opacity="1" fill-rule="nonzero"/><g mask="url(#77a3bede17)"><g transform="matrix(1, 0, 0, 1, 190, 85)"><g clip-path="url(#35022c3215)"><g clip-path="url(#3b1599f3b5)"><path fill="#371a45" d="M 19.769531 3.15625 L 19.839844 1.3125 L 19.234375 0.835938 L 19.078125 4.984375 C 19.488281 4.484375 19.746094 3.851562 19.769531 3.15625 Z M 19.769531 3.15625 " fill-opacity="1" fill-rule="nonzero"/></g><g clip-path="url(#51d144dd30)"><path fill="#371a45" d="M 8.0625 29.394531 C 6.640625 29.21875 5.164062 28.945312 3.632812 28.574219 C 2.476562 28.296875 1.65625 27.324219 1.546875 26.191406 C 1.136719 28.1875 0.828125 30.1875 0.675781 32.191406 C 0.570312 33.519531 1.457031 34.722656 2.761719 35.039062 C 4.296875 35.40625 5.773438 35.683594 7.195312 35.859375 C 20.582031 37.53125 29.050781 30.628906 29.765625 15.375 C 27.195312 26.09375 19.386719 30.808594 8.0625 29.394531 Z M 8.0625 29.394531 " fill-opacity="1" fill-rule="nonzero"/></g></g></g></g><path fill="#371a45" d="M 201.792969 125.730469 C 200.433594 125.730469 199.027344 125.640625 197.578125 125.457031 C 196.003906 125.261719 194.332031 124.949219 192.605469 124.53125 C 190.503906 124.019531 189.097656 122.09375 189.265625 119.945312 C 189.789062 113.167969 191.808594 106.535156 194.007812 99.769531 C 194.703125 97.625 196.828125 96.292969 199.066406 96.601562 C 200.769531 96.84375 202.292969 97.011719 203.726562 97.109375 C 204.855469 97.199219 205.980469 97.25 207.089844 97.253906 C 207.089844 97.253906 207.09375 97.253906 207.097656 97.253906 C 208.132812 97.253906 209.003906 96.414062 209.042969 95.375 L 209.402344 85.78125 C 209.421875 85.253906 209.738281 84.777344 210.222656 84.554688 C 210.707031 84.332031 211.273438 84.398438 211.691406 84.730469 L 223 93.664062 C 223.308594 93.90625 223.5 94.269531 223.53125 94.660156 C 224.429688 106.335938 222.019531 115.25 216.5625 120.4375 C 212.890625 123.933594 207.835938 125.730469 201.792969 125.730469 Z M 198.421875 99.378906 C 197.644531 99.378906 196.945312 99.878906 196.699219 100.636719 C 194.550781 107.238281 192.585938 113.695312 192.085938 120.164062 C 192.027344 120.921875 192.527344 121.605469 193.273438 121.785156 C 194.894531 122.179688 196.460938 122.472656 197.925781 122.65625 C 197.925781 122.65625 197.929688 122.65625 197.929688 122.65625 C 205.082031 123.554688 210.695312 122.121094 214.613281 118.394531 C 219.34375 113.894531 221.464844 105.984375 220.757812 95.488281 L 212.121094 88.667969 L 211.867188 95.472656 C 211.773438 98.058594 209.683594 100.070312 207.101562 100.070312 C 207.089844 100.070312 207.082031 100.070312 207.074219 100.070312 C 205.898438 100.066406 204.699219 100.015625 203.515625 99.921875 C 202.027344 99.816406 200.441406 99.644531 198.667969 99.394531 C 198.585938 99.386719 198.503906 99.378906 198.421875 99.378906 Z M 198.421875 99.378906 " fill-opacity="1" fill-rule="nonzero"/><path fill="#ffffff" d="M 236.257812 97.589844 C 235.058594 76.8125 222.632812 70.632812 212.851562 73.574219 C 209.203125 74.667969 206.609375 77.859375 206.347656 81.652344 C 206.28125 82.632812 206.289062 83.652344 206.378906 84.679688 C 206.714844 88.449219 208.980469 91.789062 212.371094 93.488281 C 215.652344 95.132812 220.066406 96.375 224.480469 96.648438 Z M 236.257812 97.589844 " fill-opacity="1" fill-rule="nonzero"/><path fill="#371a45" d="M 236.257812 99 C 235.515625 99 234.890625 98.421875 234.847656 97.671875 C 234.128906 85.261719 229.5 79.527344 225.738281 76.902344 C 222.09375 74.359375 217.542969 73.636719 213.261719 74.921875 C 210.140625 75.863281 207.980469 78.539062 207.757812 81.75 C 207.695312 82.671875 207.707031 83.617188 207.789062 84.554688 C 208.078125 87.820312 210.078125 90.761719 213.007812 92.226562 C 216.328125 93.890625 220.542969 94.992188 224.566406 95.242188 C 225.347656 95.289062 225.941406 95.960938 225.890625 96.738281 C 225.84375 97.515625 225.175781 98.097656 224.390625 98.058594 C 220 97.785156 215.386719 96.578125 211.738281 94.75 C 207.941406 92.84375 205.347656 89.035156 204.972656 84.804688 C 204.875 83.71875 204.867188 82.625 204.9375 81.558594 C 205.242188 77.164062 208.1875 73.5 212.445312 72.222656 C 217.5625 70.683594 223 71.546875 227.359375 74.59375 C 231.632812 77.574219 236.886719 83.972656 237.671875 97.507812 C 237.714844 98.289062 237.121094 98.953125 236.339844 99 C 236.3125 99 236.285156 99 236.257812 99 Z M 236.257812 99 " fill-opacity="1" fill-rule="nonzero"/><path fill="#371a45" d="M 163.867188 183.875 C 162.878906 186.292969 164.027344 189.125 166.054688 190.625 C 168.191406 192.203125 171.074219 191.855469 172.875 189.9375 C 174.5625 188.136719 175.21875 185.222656 173.730469 183.097656 C 172.871094 181.867188 171.375 181.199219 169.949219 181.859375 C 168.75 182.410156 167.960938 183.722656 167.71875 184.980469 C 167.179688 187.761719 168.863281 190.589844 171.183594 192.035156 C 173.449219 193.449219 176.34375 193.464844 178.496094 191.832031 C 180.53125 190.285156 181.695312 187.679688 181.308594 185.132812 C 181.109375 183.820312 180.390625 182.289062 179.054688 181.8125 C 177.425781 181.226562 176.269531 182.617188 175.71875 183.972656 C 174.648438 186.597656 175.011719 189.796875 176.800781 192.019531 C 178.511719 194.152344 181.605469 195.066406 184.207031 194.203125 C 187.15625 193.226562 188.484375 190.296875 188.945312 187.433594 C 189.203125 185.839844 189.230469 184.054688 188.097656 182.765625 C 187.125 181.660156 185.457031 181.191406 184.167969 182.027344 C 181.730469 183.613281 181.960938 187.425781 183.445312 189.546875 C 185.140625 191.964844 188.273438 192.765625 191.042969 191.914062 C 193.988281 191.007812 196.042969 188.375 196.695312 185.429688 C 197.304688 182.664062 196.808594 178.578125 193.40625 177.96875 C 192.003906 177.71875 190.613281 178.296875 189.929688 179.574219 C 189.199219 180.929688 189.394531 182.5 190.058594 183.835938 C 190.71875 185.160156 191.867188 186.601562 193.105469 187.429688 C 194.390625 188.289062 195.964844 188.246094 197.289062 187.515625 C 200.097656 185.964844 201.222656 182.449219 201.589844 179.480469 C 201.792969 177.839844 201.726562 176.183594 201.425781 174.558594 C 201.144531 173.042969 200.671875 171.375 199.75 170.113281 C 198.886719 168.929688 197.480469 168.164062 195.992188 168.5625 C 194.367188 168.996094 193.882812 170.597656 194.160156 172.105469 C 194.621094 174.632812 196.71875 177.691406 199.640625 177.199219 C 202.625 176.691406 203.503906 172.929688 203.648438 170.410156 C 203.8125 167.511719 203.015625 164.523438 201.445312 162.082031 C 200.039062 159.898438 197.242188 156.828125 194.574219 159.117188 C 193.527344 160.019531 193.007812 161.53125 193.453125 162.859375 C 193.886719 164.148438 195.023438 165.09375 196.316406 165.457031 C 199.300781 166.296875 202.011719 163.800781 202.609375 161.015625 C 203.277344 157.902344 202.039062 154.484375 200.21875 151.96875 C 199.335938 150.75 198.253906 149.519531 196.957031 148.722656 C 195.695312 147.945312 193.925781 147.660156 192.886719 148.957031 C 191.058594 151.234375 193.6875 154.71875 195.835938 155.644531 C 198.710938 156.882812 201.652344 154.597656 202.195312 151.738281 C 202.835938 148.351562 200.667969 145.109375 198.648438 142.601562 C 198.15625 141.992188 197.632812 141.402344 197.085938 140.839844 C 196.480469 140.21875 195.839844 139.554688 195.046875 139.179688 C 193.648438 138.515625 192.058594 139.09375 191.304688 140.429688 C 190.0625 142.632812 191.703125 145.617188 194.046875 146.21875 C 196.902344 146.957031 199.6875 144.445312 200.199219 141.75 C 200.777344 138.695312 199.238281 135.304688 196.996094 133.238281 C 195.894531 132.230469 194.476562 131.554688 192.957031 131.726562 C 191.558594 131.886719 190.308594 132.734375 189.902344 134.125 C 189.554688 135.335938 189.90625 136.691406 190.691406 137.652344 C 191.527344 138.671875 192.839844 139.078125 194.121094 138.894531 C 197.171875 138.449219 198.683594 135.21875 197.667969 132.453125 C 197.402344 131.730469 197.011719 131.082031 196.5 130.507812 C 196.066406 130.019531 195.386719 129.578125 195.277344 128.890625 C 195.09375 127.742188 196.253906 126.496094 196.777344 125.578125 C 197.320312 124.617188 198.226562 122.492188 196.507812 122.113281 C 194.839844 121.75 194.65625 124.757812 196.472656 124.335938 C 197.625 124.066406 197.136719 122.296875 195.984375 122.566406 C 195.957031 122.574219 195.933594 122.578125 195.90625 122.585938 C 196.070312 122.585938 196.234375 122.585938 196.394531 122.585938 C 196.378906 122.578125 196.359375 122.570312 196.34375 122.5625 C 196.527344 122.703125 196.710938 122.84375 196.890625 122.984375 C 196.875 123.214844 196.855469 123.445312 196.839844 123.675781 C 196.707031 123.753906 196.570312 123.832031 196.4375 123.910156 C 196.460938 123.902344 196.484375 123.894531 196.507812 123.886719 C 196.34375 123.886719 196.183594 123.886719 196.019531 123.886719 C 195.976562 123.867188 195.933594 123.851562 195.886719 123.832031 C 195.808594 123.699219 195.730469 123.5625 195.652344 123.425781 C 195.761719 123.714844 195.679688 123.535156 195.699219 123.496094 C 195.640625 123.601562 195.628906 123.753906 195.582031 123.871094 C 195.496094 124.085938 195.386719 124.296875 195.277344 124.5 C 195.023438 124.964844 194.730469 125.40625 194.457031 125.855469 C 193.9375 126.710938 193.425781 127.660156 193.425781 128.6875 C 193.425781 129.890625 194.148438 130.71875 194.941406 131.53125 C 195.648438 132.253906 196.128906 133.167969 196.160156 134.195312 C 196.1875 135.132812 195.839844 136.023438 195.0625 136.585938 C 194.410156 137.058594 193.476562 137.304688 192.710938 136.960938 C 191.339844 136.347656 191.167969 134.125 192.710938 133.636719 C 194.847656 132.957031 196.585938 135.28125 197.472656 136.878906 C 198.519531 138.753906 199.035156 141.226562 197.632812 143.070312 C 196.59375 144.433594 194.5625 145.144531 193.320312 143.644531 C 192.898438 143.136719 192.617188 142.417969 192.75 141.753906 C 192.8125 141.4375 192.976562 141.148438 193.230469 140.945312 C 193.664062 140.59375 194.101562 140.707031 194.539062 140.996094 C 195.539062 141.660156 196.386719 142.730469 197.144531 143.648438 C 197.929688 144.597656 198.648438 145.617188 199.257812 146.6875 C 200.328125 148.570312 201.136719 151.089844 199.660156 152.992188 C 199.101562 153.710938 198.246094 154.261719 197.304688 154.171875 C 196.339844 154.078125 195.515625 153.363281 194.953125 152.621094 C 194.511719 152.042969 193.917969 151.054688 194.207031 150.292969 C 194.554688 149.382812 195.859375 150.152344 196.34375 150.511719 C 198.097656 151.8125 199.480469 153.8125 200.242188 155.839844 C 201.035156 157.945312 201.464844 160.664062 199.894531 162.539062 C 198.796875 163.847656 196.652344 164.363281 195.480469 162.824219 C 194.953125 162.132812 195.058594 161.25 195.644531 160.628906 C 196.351562 159.875 197.183594 160.097656 197.902344 160.71875 C 201.074219 163.464844 202.484375 168.152344 201.554688 172.207031 C 201.21875 173.664062 200.148438 176.183594 198.207031 175.226562 C 197.347656 174.804688 196.757812 173.902344 196.375 173.058594 C 196.101562 172.457031 195.507812 171.023438 196.15625 170.480469 C 196.84375 169.90625 197.816406 170.574219 198.234375 171.132812 C 198.910156 172.042969 199.246094 173.242188 199.503906 174.332031 C 200.0625 176.710938 199.988281 179.234375 199.296875 181.582031 C 198.976562 182.679688 198.542969 183.757812 197.820312 184.65625 C 197.226562 185.394531 196.382812 186.15625 195.398438 186.246094 C 194.328125 186.34375 193.5625 185.496094 192.933594 184.757812 C 192.226562 183.929688 191.425781 182.941406 191.300781 181.820312 C 191.21875 181.054688 191.46875 180.085938 192.273438 179.800781 C 193.148438 179.492188 194.117188 180.121094 194.550781 180.851562 C 195.644531 182.683594 195.082031 185.382812 194.105469 187.140625 C 193.078125 188.984375 191.261719 190.308594 189.109375 190.40625 C 187.152344 190.5 185.296875 189.558594 184.515625 187.707031 C 184.167969 186.886719 184.050781 185.9375 184.269531 185.070312 C 184.464844 184.308594 185.007812 183.183594 185.96875 183.476562 C 188.164062 184.148438 187.128906 187.777344 186.601562 189.261719 C 185.925781 191.160156 184.46875 192.613281 182.375 192.683594 C 180.417969 192.75 178.617188 191.773438 177.675781 190.050781 C 176.746094 188.351562 176.703125 186.105469 177.539062 184.363281 C 177.675781 184.078125 177.933594 183.507812 178.324219 183.507812 C 178.746094 183.507812 179.09375 184.179688 179.230469 184.492188 C 179.539062 185.191406 179.621094 186 179.519531 186.753906 C 179.292969 188.445312 178.210938 190.023438 176.691406 190.8125 C 175.046875 191.667969 173.078125 191.230469 171.65625 190.140625 C 170.257812 189.070312 169.121094 187.121094 169.523438 185.3125 C 169.679688 184.601562 170.136719 183.628906 170.925781 183.445312 C 171.777344 183.246094 172.402344 184.246094 172.601562 184.941406 C 173.054688 186.476562 172.265625 188.222656 171.011719 189.152344 C 169.652344 190.160156 167.910156 189.945312 166.714844 188.796875 C 165.519531 187.648438 165.003906 185.921875 165.640625 184.363281 C 165.828125 183.902344 165.433594 183.359375 164.996094 183.234375 C 164.472656 183.085938 164.050781 183.417969 163.867188 183.875 Z M 163.867188 183.875 " fill-opacity="1" fill-rule="nonzero"/><path fill="#371a45" d="M 231.601562 60.523438 C 235.050781 58.46875 238.71875 56.773438 242.550781 55.570312 C 242.839844 55.484375 243.140625 55.652344 243.222656 55.9375 C 243.289062 56.164062 243.199219 56.398438 243.019531 56.527344 C 242.199219 57.121094 241.34375 57.65625 240.476562 58.164062 C 237.875 59.671875 235.195312 61.050781 232.378906 62.109375 C 231.386719 62.460938 230.714844 61.082031 231.601562 60.523438 Z M 231.601562 60.523438 " fill-opacity="1" fill-rule="nonzero"/><g clip-path="url(#5b52aafb34)"><path fill="#371a45" d="M 232.707031 67.515625 C 236.640625 68.3125 240.5 69.523438 244.144531 71.207031 C 244.6875 71.464844 244.4375 72.304688 243.847656 72.230469 C 241.839844 71.996094 239.882812 71.546875 237.933594 71.046875 C 235.996094 70.527344 234.074219 69.964844 232.210938 69.210938 C 231.757812 69.023438 231.539062 68.503906 231.726562 68.050781 C 231.890625 67.660156 232.304688 67.445312 232.707031 67.515625 Z M 232.707031 67.515625 " fill-opacity="1" fill-rule="nonzero"/></g></svg>